<svg xmlns="http://www.w3.org/2000/svg" xmlns:xlink="http://www.w3.org/1999/xlink" id="Layer_1" x="0px" y="0px" viewBox="0 0 686 980" style="enable-background:new 0 0 686 980;" xml:space="preserve"><style type="text/css">	.st0{fill:url(#SVGID_1_);}	.st1{fill:url(#SVGID_2_);}	.st2{fill:url(#SVGID_3_);}	.st3{fill:url(#SVGID_4_);}	.st4{fill:#221F20;}	.st5{fill:#2C64AD;}	.st6{fill:url(#SVGID_5_);}	.st7{fill:url(#SVGID_6_);}	.st8{fill:url(#SVGID_7_);}	.st9{fill:url(#SVGID_8_);}	.st10{fill:url(#SVGID_9_);}	.st11{fill:url(#SVGID_10_);}	.st12{fill:#FFB81C;}	.st13{fill:url(#SVGID_11_);}	.st14{fill:url(#SVGID_12_);}	.st15{fill:#001489;}	.st16{fill:url(#SVGID_13_);}	.st17{fill:url(#SVGID_14_);}	.st18{fill:url(#SVGID_15_);}	.st19{fill:url(#SVGID_16_);}	.st20{fill:url(#SVGID_17_);}	.st21{fill:url(#SVGID_18_);}	.st22{fill:url(#SVGID_19_);}	.st23{fill:url(#SVGID_20_);}	.st24{fill:url(#SVGID_21_);}	.st25{fill:url(#SVGID_22_);}	.st26{fill:url(#SVGID_23_);}	.st27{fill:url(#SVGID_24_);}	.st28{fill:url(#SVGID_25_);}	.st29{fill:url(#SVGID_26_);}	.st30{fill:url(#SVGID_27_);}	.st31{fill:url(#SVGID_28_);}	.st32{fill:url(#SVGID_29_);}	.st33{fill:url(#SVGID_30_);}	.st34{fill:url(#SVGID_31_);}	.st35{fill:url(#SVGID_32_);}</style><linearGradient id="SVGID_1_" gradientUnits="userSpaceOnUse" x1="12670.0264" y1="-2998.8945" x2="12767.8662" y2="-2998.8945" gradientTransform="matrix(-1 0 0 1 13356.1797 3048.1299)">	<stop offset="0" style="stop-color:#FFB81C"></stop>	<stop offset="0.51" style="stop-color:#FDB51B"></stop>	<stop offset="0.75" style="stop-color:#F6AE1B"></stop>	<stop offset="0.94" style="stop-color:#EBA11A"></stop>	<stop offset="1" style="stop-color:#E69B1A"></stop></linearGradient><path class="st0" d="M686.2,0.3c0,54-43.8,97.8-97.8,97.8V0.3C588.3,0.3,686.2,0.3,686.2,0.3z"></path><g>			<linearGradient id="SVGID_2_" gradientUnits="userSpaceOnUse" x1="388.7812" y1="690.4344" x2="394.7513" y2="470.9344" gradientTransform="matrix(1 0 0 -1 0 982)">		<stop offset="0" style="stop-color:#007749"></stop>		<stop offset="0.41" style="stop-color:#007447"></stop>		<stop offset="0.61" style="stop-color:#006D42"></stop>		<stop offset="0.76" style="stop-color:#00603A"></stop>		<stop offset="0.78" style="stop-color:#005E39"></stop>	</linearGradient>	<path class="st1" d="M392.5,340.7c-30.7,37.2-43.4,86.9-43.4,86.9c25,32.3,39.3,54.7,39.3,54.7h8.2c0,0,14.3-22.4,39.3-54.7  C435.8,427.7,423.2,377.9,392.5,340.7L392.5,340.7z"></path>			<linearGradient id="SVGID_3_" gradientUnits="userSpaceOnUse" x1="531.005" y1="706.4038" x2="459.335" y2="580.9738" gradientTransform="matrix(1 0 0 -1 0 982)">		<stop offset="0" style="stop-color:#FFB81C"></stop>		<stop offset="0.51" style="stop-color:#FDB51B"></stop>		<stop offset="0.75" style="stop-color:#F6AE1B"></stop>		<stop offset="0.94" style="stop-color:#EBA11A"></stop>		<stop offset="1" style="stop-color:#E69B1A"></stop>	</linearGradient>	<path class="st2" d="M435.8,374.1l17.3,37.5l62.9-41.8l-8.1-62.6C508,307.1,465.9,336.4,435.8,374.1L435.8,374.1z"></path>			<linearGradient id="SVGID_4_" gradientUnits="userSpaceOnUse" x1="260.245" y1="697.4052" x2="324.455" y2="582.4252" gradientTransform="matrix(1 0 0 -1 0 982)">		<stop offset="0" style="stop-color:#FFB81C"></stop>		<stop offset="0.51" style="stop-color:#FDB51B"></stop>		<stop offset="0.75" style="stop-color:#F6AE1B"></stop>		<stop offset="0.94" style="stop-color:#EBA11A"></stop>		<stop offset="1" style="stop-color:#E69B1A"></stop>	</linearGradient>	<path class="st3" d="M349.1,374.1l-17.3,37.5l-62.9-41.8l8.1-62.6C277,307.1,319.1,336.4,349.1,374.1L349.1,374.1z"></path>	<path class="st4" d="M223.2,477.6l-0.3-1.7c-4.6-25.8-6.9-55-5.2-87.5l0.2-3.1l0.2-2.7c-16.4-6.9-34.6-13.1-54.7-18v0  c14.1,59.6,42.9,96.5,60.1,114.2L223.2,477.6z"></path>	<path class="st4" d="M163.3,364.6l0.2,0.9L163.3,364.6C163.4,364.6,163.4,364.6,163.3,364.6L163.3,364.6z"></path>	<path class="st4" d="M561.4,477.6l0.3-1.7c4.6-25.8,6.9-55,5.2-87.5l-0.2-3.1l-0.2-2.7c16.4-6.9,34.6-13.1,54.7-18v0  c-14.1,59.6-42.9,96.5-60.1,114.2L561.4,477.6z"></path>	<path class="st5" d="M291.1,582.4L291.1,582.4c-35.1-52.5-47.2-119.2-47.2-119.2c-2.8-15.4-5.2-41.3-2.6-82.2c0,0,0,0,0,0  c0,0,0,0,0,0c0,0,75.4,34.6,119.1,101.4c0,0,7.8,12.4,11.3,18.8c0,0-39.5,56.2-52.8,116.1L291.1,582.4L291.1,582.4z"></path>			<linearGradient id="SVGID_5_" gradientUnits="userSpaceOnUse" x1="259.2856" y1="636.0552" x2="350.3757" y2="364.2952" gradientTransform="matrix(1 0 0 -1 0 982)">		<stop offset="0" style="stop-color:#001489"></stop>		<stop offset="0.41" style="stop-color:#001386"></stop>		<stop offset="0.6" style="stop-color:#00127F"></stop>		<stop offset="0.75" style="stop-color:#001072"></stop>		<stop offset="0.88" style="stop-color:#000D5F"></stop>		<stop offset="0.99" style="stop-color:#000A48"></stop>		<stop offset="1" style="stop-color:#000A45"></stop>	</linearGradient>	<path class="st6" d="M241.3,381C241.3,381,241.3,381,241.3,381c0,0,75.4,34.6,119.1,101.4c0,0,7.8,12.4,11.3,18.8  c0,0-39.5,56.2-52.8,116.1C318.9,617.2,227.5,542.9,241.3,381L241.3,381z"></path>			<linearGradient id="SVGID_6_" gradientUnits="userSpaceOnUse" x1="141.3421" y1="486.7426" x2="342.9221" y2="322.4826" gradientTransform="matrix(1 0 0 -1 0 982)">		<stop offset="0" style="stop-color:#E03C31"></stop>		<stop offset="0.44" style="stop-color:#DD3B30"></stop>		<stop offset="0.66" style="stop-color:#D6372D"></stop>		<stop offset="0.82" style="stop-color:#C93228"></stop>		<stop offset="0.96" style="stop-color:#B62A22"></stop>		<stop offset="1" style="stop-color:#B02820"></stop>	</linearGradient>	<path class="st7" d="M291.4,622.4v-0.1c0,0-1-0.9-2.7-2.8c-1.8-2-3.7-4.2-5.5-6.4c-12.8-15.5-37.5-50.7-52.9-105.9  c0,0-48.4-21.7-118.6-14.9l1,1.9c7.8,14.4,16,27.6,24.4,39.7l0,0c0,0,84.4,131.1,213.4,131.7C350.5,665.6,322,655.1,291.4,622.4  L291.4,622.4z"></path>			<linearGradient id="SVGID_7_" gradientUnits="userSpaceOnUse" x1="637.0495" y1="482.0596" x2="438.4595" y2="319.2996" gradientTransform="matrix(1 0 0 -1 0 982)">		<stop offset="0" style="stop-color:#E03C31"></stop>		<stop offset="0.44" style="stop-color:#DD3B30"></stop>		<stop offset="0.66" style="stop-color:#D6372D"></stop>		<stop offset="0.82" style="stop-color:#C93228"></stop>		<stop offset="0.96" style="stop-color:#B62A22"></stop>		<stop offset="1" style="stop-color:#B02820"></stop>	</linearGradient>	<path class="st8" d="M672.9,492.3c-70.2-6.8-118.6,14.9-118.6,14.9c-15.4,55.1-40.2,90.4-52.9,105.9c-1.8,2.2-3.7,4.3-5.5,6.4  c-1.7,1.9-2.7,2.8-2.7,2.8v0.1c-30.6,32.7-59.1,43.2-59.1,43.2C563,665,647.4,533.9,647.4,533.9l0,0c8.4-12.1,16.6-25.2,24.4-39.7  L672.9,492.3L672.9,492.3z"></path>			<linearGradient id="SVGID_8_" gradientUnits="userSpaceOnUse" x1="391.2177" y1="487.4846" x2="392.7076" y2="320.2446" gradientTransform="matrix(1 0 0 -1 0 982)">		<stop offset="0" style="stop-color:#E03C31"></stop>		<stop offset="0.44" style="stop-color:#DD3B30"></stop>		<stop offset="0.66" style="stop-color:#D6372D"></stop>		<stop offset="0.82" style="stop-color:#C93228"></stop>		<stop offset="0.96" style="stop-color:#B62A22"></stop>		<stop offset="1" style="stop-color:#B02820"></stop>	</linearGradient>	<path class="st9" d="M447.5,626.5c-10.9-64.2-51.9-110.4-55-113.8v-0.2c0,0,0,0-0.1,0.1c-0.1-0.1-0.1-0.1-0.1-0.1v0.2  c-3.1,3.4-44.1,49.6-55,113.8c0,0,24.4,27.6,55,39v0.1c0,0,0.1,0,0.1,0c0,0,0.1,0,0.1,0v-0.1C423.1,654.2,447.5,626.5,447.5,626.5z  "></path>			<linearGradient id="SVGID_9_" gradientUnits="userSpaceOnUse" x1="517.3033" y1="591.1047" x2="432.1833" y2="376.0847" gradientTransform="matrix(1 0 0 -1 0 982)">		<stop offset="0" style="stop-color:#001489"></stop>		<stop offset="0.41" style="stop-color:#001386"></stop>		<stop offset="0.6" style="stop-color:#00127F"></stop>		<stop offset="0.75" style="stop-color:#001072"></stop>		<stop offset="0.88" style="stop-color:#000D5F"></stop>		<stop offset="0.99" style="stop-color:#000A48"></stop>		<stop offset="1" style="stop-color:#000A45"></stop>	</linearGradient>	<path class="st10" d="M543,381C543,381,543,381,543,381c0,0-75.4,34.6-119.1,101.4c0,0-7.8,12.4-11.3,18.8  c0,0,39.5,56.2,52.8,116.1C465.4,617.2,556.8,542.9,543,381L543,381z"></path></g><linearGradient id="SVGID_10_" gradientUnits="userSpaceOnUse" x1="294.5937" y1="834.5145" x2="392.0937" y2="834.5145" gradientTransform="matrix(1 0 0 -1 0 982)">	<stop offset="0" style="stop-color:#221F20"></stop>	<stop offset="0.49" style="stop-color:#1F1D1D"></stop>	<stop offset="0.72" style="stop-color:#181616"></stop>	<stop offset="0.9" style="stop-color:#0B0A0A"></stop>	<stop offset="1" style="stop-color:#000000"></stop></linearGradient><path class="st11" d="M294.6,98.7c53.8,0,97.5,43.6,97.5,97.5C338.2,196.2,294.6,152.6,294.6,98.7z"></path><path class="st12" d="M195.9,882c54.1,0,98,43.9,98,98h-196C97.9,925.8,141.8,882,195.9,882"></path><linearGradient id="SVGID_11_" gradientUnits="userSpaceOnUse" x1="559.8722" y1="13.0331" x2="419.2222" y2="173.7831" gradientTransform="matrix(1 0 0 -1 0 982)">	<stop offset="0" style="stop-color:#221F20"></stop>	<stop offset="0.49" style="stop-color:#1F1D1D"></stop>	<stop offset="0.72" style="stop-color:#181616"></stop>	<stop offset="0.9" style="stop-color:#0B0A0A"></stop>	<stop offset="1" style="stop-color:#000000"></stop></linearGradient><path class="st13" d="M490,784c0,54.1-43.9,98-98,98v-98H490z"></path><linearGradient id="SVGID_12_" gradientUnits="userSpaceOnUse" x1="9122.6084" y1="8371.7295" x2="8981.9482" y2="8532.4795" gradientTransform="matrix(6.123234e-17 -1 -1 -6.123234e-17 9144.8096 9935.0098)">	<stop offset="0" style="stop-color:#221F20"></stop>	<stop offset="0.49" style="stop-color:#1F1D1D"></stop>	<stop offset="0.72" style="stop-color:#181616"></stop>	<stop offset="0.9" style="stop-color:#0B0A0A"></stop>	<stop offset="1" style="stop-color:#000000"></stop></linearGradient><path class="st14" d="M588.2,882.3c54.1,0,98,43.9,98,98h-98V882.3z"></path><g>	<path class="st12" d="M490,882.1l-97.2,97.6C446.5,979.5,490,935.9,490,882.1z"></path>	<path class="st15" d="M490,882.1c-53.9,0-97.6,43.7-97.6,97.6c0.2,0,0.3,0,0.5,0L490,882.1z"></path></g><linearGradient id="SVGID_13_" gradientUnits="userSpaceOnUse" x1="490.5837" y1="50.5845" x2="588.0837" y2="50.5845" gradientTransform="matrix(1 0 0 -1 0 982)">	<stop offset="0" style="stop-color:#007749"></stop>	<stop offset="0.41" style="stop-color:#007447"></stop>	<stop offset="0.61" style="stop-color:#006D42"></stop>	<stop offset="0.76" style="stop-color:#00603A"></stop>	<stop offset="0.78" style="stop-color:#005E39"></stop></linearGradient><path class="st16" d="M490.6,882.7c53.8,0,97.5,43.6,97.5,97.5C534.2,980.2,490.6,936.5,490.6,882.7L490.6,882.7z"></path><g>			<linearGradient id="SVGID_14_" gradientUnits="userSpaceOnUse" x1="490.3838" y1="148.8045" x2="587.8837" y2="148.8045" gradientTransform="matrix(1 0 0 -1 0 982)">		<stop offset="0" style="stop-color:#E03C31"></stop>		<stop offset="0.44" style="stop-color:#DD3B30"></stop>		<stop offset="0.66" style="stop-color:#D6372D"></stop>		<stop offset="0.82" style="stop-color:#C93228"></stop>		<stop offset="0.96" style="stop-color:#B62A22"></stop>		<stop offset="1" style="stop-color:#B02820"></stop>	</linearGradient>	<path class="st17" d="M587.9,784.4c-53.8,0-97.5,43.7-97.5,97.5C544.2,881.9,587.9,838.3,587.9,784.4z"></path>	<g>		<path class="st12" d="M588.1,784.4l97.2,97.6C631.6,881.8,588.1,838.2,588.1,784.4z"></path>		<path class="st15" d="M588.1,784.4c53.9,0,97.6,43.7,97.6,97.6c-0.2,0-0.3,0-0.5,0L588.1,784.4z"></path>	</g></g><linearGradient id="SVGID_15_" gradientUnits="userSpaceOnUse" x1="293.8838" y1="247.3245" x2="391.3838" y2="247.3245" gradientTransform="matrix(1 0 0 -1 0 982)">	<stop offset="0" style="stop-color:#221F20"></stop>	<stop offset="0.49" style="stop-color:#1F1D1D"></stop>	<stop offset="0.72" style="stop-color:#181616"></stop>	<stop offset="0.9" style="stop-color:#0B0A0A"></stop>	<stop offset="1" style="stop-color:#000000"></stop></linearGradient><path class="st18" d="M391.4,685.9c-53.8,0-97.5,43.7-97.5,97.5C347.7,783.4,391.4,739.8,391.4,685.9z"></path><g>			<linearGradient id="SVGID_16_" gradientUnits="userSpaceOnUse" x1="391.5837" y1="247.2595" x2="488.7638" y2="247.2595" gradientTransform="matrix(1 0 0 -1 0 982)">		<stop offset="0" style="stop-color:#FFB81C"></stop>		<stop offset="0.51" style="stop-color:#FDB51B"></stop>		<stop offset="0.75" style="stop-color:#F6AE1B"></stop>		<stop offset="0.94" style="stop-color:#EBA11A"></stop>		<stop offset="1" style="stop-color:#E69B1A"></stop>	</linearGradient>	<path class="st19" d="M391.6,685.9l97.2,97.6C435.1,783.3,391.6,739.7,391.6,685.9z"></path>			<linearGradient id="SVGID_17_" gradientUnits="userSpaceOnUse" x1="391.5837" y1="247.2545" x2="489.2237" y2="247.2545" gradientTransform="matrix(1 0 0 -1 0 982)">		<stop offset="0" style="stop-color:#E03C31"></stop>		<stop offset="0.44" style="stop-color:#DD3B30"></stop>		<stop offset="0.66" style="stop-color:#D6372D"></stop>		<stop offset="0.82" style="stop-color:#C93228"></stop>		<stop offset="0.96" style="stop-color:#B62A22"></stop>		<stop offset="1" style="stop-color:#B02820"></stop>	</linearGradient>	<path class="st20" d="M391.6,685.9c53.9,0,97.6,43.7,97.6,97.6c-0.2,0-0.3,0-0.5,0L391.6,685.9z"></path></g><linearGradient id="SVGID_18_" gradientUnits="userSpaceOnUse" x1="294.4437" y1="148.6745" x2="391.9437" y2="148.6745" gradientTransform="matrix(1 0 0 -1 0 982)">	<stop offset="0" style="stop-color:#007749"></stop>	<stop offset="0.41" style="stop-color:#007447"></stop>	<stop offset="0.61" style="stop-color:#006D42"></stop>	<stop offset="0.76" style="stop-color:#00603A"></stop>	<stop offset="0.78" style="stop-color:#005E39"></stop></linearGradient><path class="st21" d="M391.9,784.6c-53.8,0-97.5,43.7-97.5,97.5C348.3,882.1,391.9,838.4,391.9,784.6z"></path><linearGradient id="SVGID_19_" gradientUnits="userSpaceOnUse" x1="196.3537" y1="51.2745" x2="293.8537" y2="51.2745" gradientTransform="matrix(1 0 0 -1 0 982)">	<stop offset="0" style="stop-color:#001489"></stop>	<stop offset="0.41" style="stop-color:#001386"></stop>	<stop offset="0.6" style="stop-color:#00127F"></stop>	<stop offset="0.75" style="stop-color:#001072"></stop>	<stop offset="0.88" style="stop-color:#000D5F"></stop>	<stop offset="0.99" style="stop-color:#000A48"></stop>	<stop offset="1" style="stop-color:#000A45"></stop></linearGradient><path class="st22" d="M293.9,979.5c-53.8,0-97.5-43.7-97.5-97.5C250.2,882,293.9,925.6,293.9,979.5z"></path><linearGradient id="SVGID_20_" gradientUnits="userSpaceOnUse" x1="11766.4658" y1="-1061.1946" x2="11864.126" y2="-1061.1946" gradientTransform="matrix(-1 0 0 1 12158.1797 1992.3)">	<stop offset="0" style="stop-color:#E03C31"></stop>	<stop offset="0.44" style="stop-color:#DD3B30"></stop>	<stop offset="0.66" style="stop-color:#D6372D"></stop>	<stop offset="0.82" style="stop-color:#C93228"></stop>	<stop offset="0.96" style="stop-color:#B62A22"></stop>	<stop offset="1" style="stop-color:#B02820"></stop></linearGradient><circle class="st23" cx="342.9" cy="931.1" r="48.8"></circle><linearGradient id="SVGID_21_" gradientUnits="userSpaceOnUse" x1="490.4238" y1="-1845.3046" x2="588.0837" y2="-1845.3046" gradientTransform="matrix(1 0 0 1 0 1992.3)">	<stop offset="0" style="stop-color:#E03C31"></stop>	<stop offset="0.44" style="stop-color:#DD3B30"></stop>	<stop offset="0.66" style="stop-color:#D6372D"></stop>	<stop offset="0.82" style="stop-color:#C93228"></stop>	<stop offset="0.96" style="stop-color:#B62A22"></stop>	<stop offset="1" style="stop-color:#B02820"></stop></linearGradient><circle class="st24" cx="539.3" cy="147" r="48.8"></circle><linearGradient id="SVGID_22_" gradientUnits="userSpaceOnUse" x1="196.3637" y1="-1943.3845" x2="294.0237" y2="-1943.3845" gradientTransform="matrix(1 0 0 1 0 1992.3)">	<stop offset="0" style="stop-color:#FFB81C"></stop>	<stop offset="0.51" style="stop-color:#FDB51B"></stop>	<stop offset="0.75" style="stop-color:#F6AE1B"></stop>	<stop offset="0.94" style="stop-color:#EBA11A"></stop>	<stop offset="1" style="stop-color:#E69B1A"></stop></linearGradient><circle class="st25" cx="245.2" cy="48.9" r="48.8"></circle><linearGradient id="SVGID_23_" gradientUnits="userSpaceOnUse" x1="588.6536" y1="344.5746" x2="686.1536" y2="344.5746" gradientTransform="matrix(1 0 0 -1 0 982)">	<stop offset="0" style="stop-color:#007749"></stop>	<stop offset="0.53" style="stop-color:#007447"></stop>	<stop offset="0.78" style="stop-color:#006D42"></stop>	<stop offset="0.97" style="stop-color:#00603A"></stop>	<stop offset="1" style="stop-color:#005E39"></stop></linearGradient><path class="st26" d="M588.7,686.2c0-53.8,43.7-97.5,97.5-97.5C686.2,642.5,642.5,686.2,588.7,686.2z"></path><linearGradient id="SVGID_24_" gradientUnits="userSpaceOnUse" x1="489.8537" y1="736.5945" x2="587.3537" y2="736.5945" gradientTransform="matrix(1 0 0 -1 0 982)">	<stop offset="0" style="stop-color:#001489"></stop>	<stop offset="0.41" style="stop-color:#001386"></stop>	<stop offset="0.6" style="stop-color:#00127F"></stop>	<stop offset="0.75" style="stop-color:#001072"></stop>	<stop offset="0.88" style="stop-color:#000D5F"></stop>	<stop offset="0.99" style="stop-color:#000A48"></stop>	<stop offset="1" style="stop-color:#000A45"></stop></linearGradient><path class="st27" d="M587.4,294.2c0-53.8-43.7-97.5-97.5-97.5C489.9,250.5,533.5,294.2,587.4,294.2z"></path><linearGradient id="SVGID_25_" gradientUnits="userSpaceOnUse" x1="11765.9219" y1="618.3655" x2="11764.3721" y2="782.2056" gradientTransform="matrix(-1 0 0 1 12158.1602 -680.64)">	<stop offset="0" style="stop-color:#E03C31"></stop>	<stop offset="0.44" style="stop-color:#DD3B30"></stop>	<stop offset="0.66" style="stop-color:#D6372D"></stop>	<stop offset="0.82" style="stop-color:#C93228"></stop>	<stop offset="0.96" style="stop-color:#B62A22"></stop>	<stop offset="1" style="stop-color:#B02820"></stop></linearGradient><path class="st28" d="M392.8,98.4c-54.1,0-98-43.9-98-98h196C490.8,54.5,446.9,98.4,392.8,98.4"></path><linearGradient id="SVGID_26_" gradientUnits="userSpaceOnUse" x1="587.6937" y1="835.1045" x2="685.1937" y2="835.1045" gradientTransform="matrix(1 0 0 -1 0 982)">	<stop offset="0" style="stop-color:#221F20"></stop>	<stop offset="0.49" style="stop-color:#1F1D1D"></stop>	<stop offset="0.72" style="stop-color:#181616"></stop>	<stop offset="0.9" style="stop-color:#0B0A0A"></stop>	<stop offset="1" style="stop-color:#000000"></stop></linearGradient><path class="st29" d="M685.2,195.6c-53.8,0-97.5-43.6-97.5-97.5C641.5,98.1,685.2,141.8,685.2,195.6z"></path><g>	<path class="st12" d="M392.5,195.8l97.2-97.6C436,98.4,392.5,142,392.5,195.8z"></path>	<path class="st15" d="M392.5,195.8c53.9,0,97.6-43.7,97.6-97.6c-0.2,0-0.3,0-0.5,0L392.5,195.8z"></path></g><g>			<linearGradient id="SVGID_27_" gradientUnits="userSpaceOnUse" x1="587.8537" y1="736.9995" x2="685.0338" y2="736.9995" gradientTransform="matrix(1 0 0 -1 0 982)">		<stop offset="0" style="stop-color:#221F20"></stop>		<stop offset="0.49" style="stop-color:#1F1D1D"></stop>		<stop offset="0.72" style="stop-color:#181616"></stop>		<stop offset="0.9" style="stop-color:#0B0A0A"></stop>		<stop offset="1" style="stop-color:#000000"></stop>	</linearGradient>	<path class="st30" d="M587.9,293.8l97.2-97.6C631.3,196.4,587.9,240,587.9,293.8z"></path>			<linearGradient id="SVGID_28_" gradientUnits="userSpaceOnUse" x1="587.8537" y1="737.0045" x2="685.4937" y2="737.0045" gradientTransform="matrix(1 0 0 -1 0 982)">		<stop offset="0" style="stop-color:#007749"></stop>		<stop offset="0.41" style="stop-color:#007447"></stop>		<stop offset="0.61" style="stop-color:#006D42"></stop>		<stop offset="0.76" style="stop-color:#00603A"></stop>		<stop offset="0.78" style="stop-color:#005E39"></stop>	</linearGradient>	<path class="st31" d="M587.9,293.8c53.9,0,97.6-43.7,97.6-97.6c-0.2,0-0.3,0-0.5,0L587.9,293.8z"></path></g><g>	<path class="st12" d="M294,294.3l-97.2-97.6C250.6,196.9,294,240.6,294,294.3z"></path>	<path class="st15" d="M294,294.3c-53.9,0-97.6-43.7-97.6-97.6c0.2,0,0.3,0,0.5,0L294,294.3z"></path></g><linearGradient id="SVGID_29_" gradientUnits="userSpaceOnUse" x1="490.5837" y1="932.5945" x2="588.0837" y2="932.5945" gradientTransform="matrix(1 0 0 -1 0 982)">	<stop offset="0" style="stop-color:#001489"></stop>	<stop offset="0.41" style="stop-color:#001386"></stop>	<stop offset="0.6" style="stop-color:#00127F"></stop>	<stop offset="0.75" style="stop-color:#001072"></stop>	<stop offset="0.88" style="stop-color:#000D5F"></stop>	<stop offset="0.99" style="stop-color:#000A48"></stop>	<stop offset="1" style="stop-color:#000A45"></stop></linearGradient><path class="st32" d="M588.1,98.2c0-53.8-43.7-97.5-97.5-97.5C490.6,54.5,534.2,98.2,588.1,98.2z"></path><linearGradient id="SVGID_30_" gradientUnits="userSpaceOnUse" x1="7252.0947" y1="3984.2764" x2="7349.9346" y2="3984.2764" gradientTransform="matrix(6.123234e-17 -1 -1 -6.123234e-17 4328.0498 7350.3501)">	<stop offset="0" style="stop-color:#007749"></stop>	<stop offset="0.53" style="stop-color:#007447"></stop>	<stop offset="0.78" style="stop-color:#006D42"></stop>	<stop offset="0.97" style="stop-color:#00603A"></stop>	<stop offset="1" style="stop-color:#005E39"></stop></linearGradient><path class="st33" d="M392.7,98.3c-54,0-97.8-43.8-97.8-97.8h97.8V98.3z"></path><g>			<linearGradient id="SVGID_31_" gradientUnits="userSpaceOnUse" x1="-0.1863" y1="344.0695" x2="96.9937" y2="344.0695" gradientTransform="matrix(1 0 0 -1 0 982)">		<stop offset="0" style="stop-color:#E03C31"></stop>		<stop offset="0.44" style="stop-color:#DD3B30"></stop>		<stop offset="0.66" style="stop-color:#D6372D"></stop>		<stop offset="0.82" style="stop-color:#C93228"></stop>		<stop offset="0.96" style="stop-color:#B62A22"></stop>		<stop offset="1" style="stop-color:#B02820"></stop>	</linearGradient>	<path class="st34" d="M-0.2,686.7L97,589.1C43.3,589.4-0.2,633-0.2,686.7z"></path>			<linearGradient id="SVGID_32_" gradientUnits="userSpaceOnUse" x1="-0.1863" y1="344.0746" x2="97.4537" y2="344.0746" gradientTransform="matrix(1 0 0 -1 0 982)">		<stop offset="0" style="stop-color:#007749"></stop>		<stop offset="0.41" style="stop-color:#007447"></stop>		<stop offset="0.61" style="stop-color:#006D42"></stop>		<stop offset="0.76" style="stop-color:#00603A"></stop>		<stop offset="0.78" style="stop-color:#005E39"></stop>	</linearGradient>	<path class="st35" d="M-0.2,686.7c53.9,0,97.6-43.7,97.6-97.6c-0.2,0-0.3,0-0.5,0L-0.2,686.7z"></path></g></svg>