<svg xmlns="http://www.w3.org/2000/svg" xmlns:xlink="http://www.w3.org/1999/xlink" id="Layer_1" x="0px" y="0px" viewBox="0 0 195.7 195.3" style="enable-background:new 0 0 195.7 195.3;" xml:space="preserve"><style type="text/css">	.st0{fill:url(#SVGID_1_);}	.st1{fill:url(#SVGID_2_);}	.st2{fill:url(#SVGID_3_);}	.st3{fill:url(#SVGID_4_);}	.st4{fill:#221F20;}	.st5{fill:#2C64AD;}	.st6{fill:url(#SVGID_5_);}	.st7{fill:url(#SVGID_6_);}	.st8{fill:url(#SVGID_7_);}	.st9{fill:url(#SVGID_8_);}	.st10{fill:url(#SVGID_9_);}	.st11{fill:url(#SVGID_10_);}	.st12{fill:#FFB81C;}	.st13{fill:url(#SVGID_11_);}	.st14{fill:url(#SVGID_12_);}	.st15{fill:#001489;}	.st16{fill:url(#SVGID_13_);}	.st17{fill:url(#SVGID_14_);}	.st18{fill:url(#SVGID_15_);}	.st19{fill:url(#SVGID_16_);}	.st20{fill:url(#SVGID_17_);}	.st21{fill:url(#SVGID_18_);}	.st22{fill:url(#SVGID_19_);}	.st23{fill:url(#SVGID_20_);}	.st24{fill:url(#SVGID_21_);}	.st25{fill:url(#SVGID_22_);}	.st26{fill:url(#SVGID_23_);}	.st27{fill:url(#SVGID_24_);}	.st28{fill:url(#SVGID_25_);}	.st29{fill:url(#SVGID_26_);}	.st30{fill:url(#SVGID_27_);}	.st31{fill:url(#SVGID_28_);}	.st32{fill:url(#SVGID_29_);}	.st33{fill:url(#SVGID_30_);}	.st34{fill:url(#SVGID_31_);}	.st35{fill:url(#SVGID_32_);}	.st36{fill:url(#SVGID_33_);}	.st37{fill:url(#SVGID_34_);}	.st38{fill:url(#SVGID_35_);}</style><linearGradient id="SVGID_1_" gradientUnits="userSpaceOnUse" x1="12455.9297" y1="-2998.98" x2="12553.7695" y2="-2998.98" gradientTransform="matrix(-1 0 0 1 14163.5596 3048.1299)">	<stop offset="0" style="stop-color:#FFB81C"></stop>	<stop offset="0.51" style="stop-color:#FDB51B"></stop>	<stop offset="0.75" style="stop-color:#F6AE1B"></stop>	<stop offset="0.94" style="stop-color:#EBA11A"></stop>	<stop offset="1" style="stop-color:#E69B1A"></stop></linearGradient><path class="st0" d="M1707.6,0.2c0,54-43.8,97.8-97.8,97.8V0.2C1609.8,0.2,1707.6,0.2,1707.6,0.2z"></path><g>			<linearGradient id="SVGID_2_" gradientUnits="userSpaceOnUse" x1="1410.2576" y1="588.9999" x2="1416.2277" y2="369.4999" gradientTransform="matrix(1 0 0 -1 0 880.48)">		<stop offset="0" style="stop-color:#007749"></stop>		<stop offset="0.41" style="stop-color:#007447"></stop>		<stop offset="0.61" style="stop-color:#006D42"></stop>		<stop offset="0.76" style="stop-color:#00603A"></stop>		<stop offset="0.78" style="stop-color:#005E39"></stop>	</linearGradient>	<path class="st1" d="M1414,340.7c-30.7,37.2-43.4,86.9-43.4,86.9c25,32.3,39.3,54.7,39.3,54.7h8.2c0,0,14.3-22.4,39.3-54.7  C1457.3,427.6,1444.7,377.8,1414,340.7L1414,340.7z"></path>			<linearGradient id="SVGID_3_" gradientUnits="userSpaceOnUse" x1="1552.4813" y1="604.9693" x2="1480.8113" y2="479.5393" gradientTransform="matrix(1 0 0 -1 0 880.48)">		<stop offset="0" style="stop-color:#FFB81C"></stop>		<stop offset="0.51" style="stop-color:#FDB51B"></stop>		<stop offset="0.75" style="stop-color:#F6AE1B"></stop>		<stop offset="0.94" style="stop-color:#EBA11A"></stop>		<stop offset="1" style="stop-color:#E69B1A"></stop>	</linearGradient>	<path class="st2" d="M1457.3,374l17.3,37.5l62.9-41.8l-8.1-62.6C1529.5,307,1487.4,336.3,1457.3,374L1457.3,374z"></path>			<linearGradient id="SVGID_4_" gradientUnits="userSpaceOnUse" x1="1281.7213" y1="595.9707" x2="1345.9313" y2="480.9907" gradientTransform="matrix(1 0 0 -1 0 880.48)">		<stop offset="0" style="stop-color:#FFB81C"></stop>		<stop offset="0.51" style="stop-color:#FDB51B"></stop>		<stop offset="0.75" style="stop-color:#F6AE1B"></stop>		<stop offset="0.94" style="stop-color:#EBA11A"></stop>		<stop offset="1" style="stop-color:#E69B1A"></stop>	</linearGradient>	<path class="st3" d="M1370.6,374l-17.3,37.5l-62.9-41.8l8.1-62.6C1298.5,307,1340.5,336.3,1370.6,374L1370.6,374z"></path>	<path class="st4" d="M1244.6,477.5l-0.3-1.7c-4.6-25.8-6.9-55-5.2-87.5l0.2-3.1l0.2-2.7c-16.4-6.9-34.6-13.1-54.7-18v0  c14.1,59.6,42.9,96.5,60.1,114.2L1244.6,477.5z"></path>	<path class="st4" d="M1184.8,364.5l0.2,0.9L1184.8,364.5C1184.8,364.5,1184.8,364.5,1184.8,364.5L1184.8,364.5z"></path>	<path class="st4" d="M1582.9,477.5l0.3-1.7c4.6-25.8,6.9-55,5.2-87.5l-0.2-3.1l-0.2-2.7c16.4-6.9,34.6-13.1,54.7-18v0  c-14.1,59.6-42.9,96.5-60.1,114.2L1582.9,477.5z"></path>	<path class="st5" d="M1312.6,582.3L1312.6,582.3c-35.1-52.5-47.2-119.2-47.2-119.2c-2.8-15.4-5.2-41.3-2.6-82.2c0,0,0,0,0,0  c0,0,0,0,0,0c0,0,75.4,34.6,119.1,101.4c0,0,7.8,12.4,11.3,18.8c0,0-39.5,56.2-52.8,116.1L1312.6,582.3L1312.6,582.3z"></path>			<linearGradient id="SVGID_5_" gradientUnits="userSpaceOnUse" x1="1280.762" y1="534.6207" x2="1371.8521" y2="262.8607" gradientTransform="matrix(1 0 0 -1 0 880.48)">		<stop offset="0" style="stop-color:#001489"></stop>		<stop offset="0.41" style="stop-color:#001386"></stop>		<stop offset="0.6" style="stop-color:#00127F"></stop>		<stop offset="0.75" style="stop-color:#001072"></stop>		<stop offset="0.88" style="stop-color:#000D5F"></stop>		<stop offset="0.99" style="stop-color:#000A48"></stop>		<stop offset="1" style="stop-color:#000A45"></stop>	</linearGradient>	<path class="st6" d="M1262.8,380.9C1262.8,380.9,1262.8,380.9,1262.8,380.9c0,0,75.4,34.6,119.1,101.4c0,0,7.8,12.4,11.3,18.8  c0,0-39.5,56.2-52.9,116.1C1340.3,617.1,1249,542.8,1262.8,380.9L1262.8,380.9z"></path>			<linearGradient id="SVGID_6_" gradientUnits="userSpaceOnUse" x1="1162.8185" y1="385.3081" x2="1364.3984" y2="221.0481" gradientTransform="matrix(1 0 0 -1 0 880.48)">		<stop offset="0" style="stop-color:#E03C31"></stop>		<stop offset="0.44" style="stop-color:#DD3B30"></stop>		<stop offset="0.66" style="stop-color:#D6372D"></stop>		<stop offset="0.82" style="stop-color:#C93228"></stop>		<stop offset="0.96" style="stop-color:#B62A22"></stop>		<stop offset="1" style="stop-color:#B02820"></stop>	</linearGradient>	<path class="st7" d="M1312.9,622.3v-0.1c0,0-1-0.9-2.7-2.8c-1.8-2-3.7-4.2-5.5-6.4c-12.8-15.5-37.5-50.7-52.9-105.9  c0,0-48.4-21.7-118.6-14.9l1,1.9c7.8,14.4,16,27.6,24.4,39.7l0,0c0,0,84.4,131.1,213.4,131.7C1372,665.5,1343.4,655,1312.9,622.3  L1312.9,622.3z"></path>			<linearGradient id="SVGID_7_" gradientUnits="userSpaceOnUse" x1="1658.5258" y1="380.6251" x2="1459.9358" y2="217.8651" gradientTransform="matrix(1 0 0 -1 0 880.48)">		<stop offset="0" style="stop-color:#E03C31"></stop>		<stop offset="0.44" style="stop-color:#DD3B30"></stop>		<stop offset="0.66" style="stop-color:#D6372D"></stop>		<stop offset="0.82" style="stop-color:#C93228"></stop>		<stop offset="0.96" style="stop-color:#B62A22"></stop>		<stop offset="1" style="stop-color:#B02820"></stop>	</linearGradient>	<path class="st8" d="M1694.4,492.2c-70.2-6.8-118.6,14.9-118.6,14.9c-15.4,55.1-40.1,90.4-52.9,105.9c-1.8,2.2-3.7,4.3-5.5,6.4  c-1.7,1.9-2.7,2.8-2.7,2.8v0.1c-30.6,32.7-59.1,43.2-59.1,43.2c128.9-0.6,213.4-131.7,213.4-131.7l0,0  c8.4-12.1,16.6-25.2,24.4-39.7L1694.4,492.2L1694.4,492.2z"></path>			<linearGradient id="SVGID_8_" gradientUnits="userSpaceOnUse" x1="1412.694" y1="386.05" x2="1414.184" y2="218.81" gradientTransform="matrix(1 0 0 -1 0 880.48)">		<stop offset="0" style="stop-color:#E03C31"></stop>		<stop offset="0.44" style="stop-color:#DD3B30"></stop>		<stop offset="0.66" style="stop-color:#D6372D"></stop>		<stop offset="0.82" style="stop-color:#C93228"></stop>		<stop offset="0.96" style="stop-color:#B62A22"></stop>		<stop offset="1" style="stop-color:#B02820"></stop>	</linearGradient>	<path class="st9" d="M1468.9,626.4c-10.9-64.2-51.9-110.4-55-113.8v-0.2c0,0,0,0-0.1,0.1c-0.1-0.1-0.1-0.1-0.1-0.1v0.2  c-3.1,3.4-44.1,49.6-55,113.8c0,0,24.4,27.6,55,39v0.1c0,0,0.1,0,0.1,0c0,0,0.1,0,0.1,0v-0.1  C1444.5,654.1,1468.9,626.4,1468.9,626.4z"></path>			<linearGradient id="SVGID_9_" gradientUnits="userSpaceOnUse" x1="1538.7795" y1="489.6702" x2="1453.6595" y2="274.6501" gradientTransform="matrix(1 0 0 -1 0 880.48)">		<stop offset="0" style="stop-color:#001489"></stop>		<stop offset="0.41" style="stop-color:#001386"></stop>		<stop offset="0.6" style="stop-color:#00127F"></stop>		<stop offset="0.75" style="stop-color:#001072"></stop>		<stop offset="0.88" style="stop-color:#000D5F"></stop>		<stop offset="0.99" style="stop-color:#000A48"></stop>		<stop offset="1" style="stop-color:#000A45"></stop>	</linearGradient>	<path class="st10" d="M1564.4,380.9C1564.4,380.9,1564.4,380.9,1564.4,380.9c0,0-75.4,34.6-119.1,101.4c0,0-7.8,12.4-11.3,18.8  c0,0,39.5,56.2,52.9,116.1C1486.9,617.1,1578.3,542.8,1564.4,380.9L1564.4,380.9z"></path></g><linearGradient id="SVGID_10_" gradientUnits="userSpaceOnUse" x1="1316.0701" y1="733.08" x2="1413.5701" y2="733.08" gradientTransform="matrix(1 0 0 -1 0 880.48)">	<stop offset="0" style="stop-color:#221F20"></stop>	<stop offset="0.49" style="stop-color:#1F1D1D"></stop>	<stop offset="0.72" style="stop-color:#181616"></stop>	<stop offset="0.9" style="stop-color:#0B0A0A"></stop>	<stop offset="1" style="stop-color:#000000"></stop></linearGradient><path class="st11" d="M1316.1,98.7c53.8,0,97.5,43.6,97.5,97.5C1359.7,196.2,1316.1,152.5,1316.1,98.7z"></path><path class="st12" d="M1217.3,881.9c54.1,0,98,43.9,98,98h-196C1119.4,925.8,1163.2,881.9,1217.3,881.9"></path><linearGradient id="SVGID_11_" gradientUnits="userSpaceOnUse" x1="1581.3485" y1="-88.4014" x2="1440.6985" y2="72.3486" gradientTransform="matrix(1 0 0 -1 0 880.48)">	<stop offset="0" style="stop-color:#221F20"></stop>	<stop offset="0.49" style="stop-color:#1F1D1D"></stop>	<stop offset="0.72" style="stop-color:#181616"></stop>	<stop offset="0.9" style="stop-color:#0B0A0A"></stop>	<stop offset="1" style="stop-color:#000000"></stop></linearGradient><path class="st13" d="M1511.5,784c0,54.1-43.9,98-98,98v-98H1511.5z"></path><linearGradient id="SVGID_12_" gradientUnits="userSpaceOnUse" x1="9475.623" y1="7703.1831" x2="9334.9639" y2="7863.9331" gradientTransform="matrix(6.123234e-17 -1 -1 -6.123234e-17 9497.7393 10287.9395)">	<stop offset="0" style="stop-color:#221F20"></stop>	<stop offset="0.49" style="stop-color:#1F1D1D"></stop>	<stop offset="0.72" style="stop-color:#181616"></stop>	<stop offset="0.9" style="stop-color:#0B0A0A"></stop>	<stop offset="1" style="stop-color:#000000"></stop></linearGradient><path class="st14" d="M1609.6,882.2c54.1,0,98,43.9,98,98h-98V882.2z"></path><g>	<path class="st12" d="M1511.5,882l-97.2,97.6C1468,979.4,1511.5,935.8,1511.5,882z"></path>	<path class="st15" d="M1511.5,882c-53.9,0-97.6,43.7-97.6,97.6c0.1,0,0.3,0,0.5,0L1511.5,882z"></path></g><linearGradient id="SVGID_13_" gradientUnits="userSpaceOnUse" x1="1512.0601" y1="-50.8501" x2="1609.5601" y2="-50.8501" gradientTransform="matrix(1 0 0 -1 0 880.48)">	<stop offset="0" style="stop-color:#007749"></stop>	<stop offset="0.41" style="stop-color:#007447"></stop>	<stop offset="0.61" style="stop-color:#006D42"></stop>	<stop offset="0.76" style="stop-color:#00603A"></stop>	<stop offset="0.78" style="stop-color:#005E39"></stop></linearGradient><path class="st16" d="M1512.1,882.6c53.8,0,97.5,43.6,97.5,97.5C1555.7,980.1,1512.1,936.4,1512.1,882.6L1512.1,882.6z"></path><g>			<linearGradient id="SVGID_14_" gradientUnits="userSpaceOnUse" x1="1511.8601" y1="47.37" x2="1609.3601" y2="47.37" gradientTransform="matrix(1 0 0 -1 0 880.48)">		<stop offset="0" style="stop-color:#E03C31"></stop>		<stop offset="0.44" style="stop-color:#DD3B30"></stop>		<stop offset="0.66" style="stop-color:#D6372D"></stop>		<stop offset="0.82" style="stop-color:#C93228"></stop>		<stop offset="0.96" style="stop-color:#B62A22"></stop>		<stop offset="1" style="stop-color:#B02820"></stop>	</linearGradient>	<path class="st17" d="M1609.4,784.4c-53.9,0-97.5,43.7-97.5,97.5C1565.7,881.9,1609.4,838.2,1609.4,784.4z"></path>	<g>		<path class="st12" d="M1609.6,784.4l97.2,97.6C1653,881.7,1609.6,838.1,1609.6,784.4z"></path>		<path class="st15" d="M1609.6,784.4c53.9,0,97.6,43.7,97.6,97.6c-0.1,0-0.3,0-0.5,0L1609.6,784.4z"></path>	</g></g><linearGradient id="SVGID_15_" gradientUnits="userSpaceOnUse" x1="1315.3601" y1="145.89" x2="1412.8601" y2="145.89" gradientTransform="matrix(1 0 0 -1 0 880.48)">	<stop offset="0" style="stop-color:#221F20"></stop>	<stop offset="0.49" style="stop-color:#1F1D1D"></stop>	<stop offset="0.72" style="stop-color:#181616"></stop>	<stop offset="0.9" style="stop-color:#0B0A0A"></stop>	<stop offset="1" style="stop-color:#000000"></stop></linearGradient><path class="st18" d="M1412.9,685.8c-53.9,0-97.5,43.7-97.5,97.5C1369.2,783.3,1412.9,739.7,1412.9,685.8z"></path><g>			<linearGradient id="SVGID_16_" gradientUnits="userSpaceOnUse" x1="1413.0601" y1="145.825" x2="1510.24" y2="145.825" gradientTransform="matrix(1 0 0 -1 0 880.48)">		<stop offset="0" style="stop-color:#FFB81C"></stop>		<stop offset="0.51" style="stop-color:#FDB51B"></stop>		<stop offset="0.75" style="stop-color:#F6AE1B"></stop>		<stop offset="0.94" style="stop-color:#EBA11A"></stop>		<stop offset="1" style="stop-color:#E69B1A"></stop>	</linearGradient>	<path class="st19" d="M1413.1,685.8l97.2,97.6C1456.5,783.2,1413.1,739.6,1413.1,685.8z"></path>			<linearGradient id="SVGID_17_" gradientUnits="userSpaceOnUse" x1="1413.0601" y1="145.82" x2="1510.7" y2="145.82" gradientTransform="matrix(1 0 0 -1 0 880.48)">		<stop offset="0" style="stop-color:#E03C31"></stop>		<stop offset="0.44" style="stop-color:#DD3B30"></stop>		<stop offset="0.66" style="stop-color:#D6372D"></stop>		<stop offset="0.82" style="stop-color:#C93228"></stop>		<stop offset="0.96" style="stop-color:#B62A22"></stop>		<stop offset="1" style="stop-color:#B02820"></stop>	</linearGradient>	<path class="st20" d="M1413.1,685.8c53.9,0,97.6,43.7,97.6,97.6c-0.1,0-0.3,0-0.5,0L1413.1,685.8z"></path></g><linearGradient id="SVGID_18_" gradientUnits="userSpaceOnUse" x1="1315.9199" y1="47.24" x2="1413.4199" y2="47.24" gradientTransform="matrix(1 0 0 -1 0 880.48)">	<stop offset="0" style="stop-color:#007749"></stop>	<stop offset="0.41" style="stop-color:#007447"></stop>	<stop offset="0.61" style="stop-color:#006D42"></stop>	<stop offset="0.76" style="stop-color:#00603A"></stop>	<stop offset="0.78" style="stop-color:#005E39"></stop></linearGradient><path class="st21" d="M1413.4,784.5c-53.8,0-97.5,43.7-97.5,97.5C1369.8,882,1413.4,838.3,1413.4,784.5z"></path><linearGradient id="SVGID_19_" gradientUnits="userSpaceOnUse" x1="1217.8301" y1="-50.16" x2="1315.3301" y2="-50.16" gradientTransform="matrix(1 0 0 -1 0 880.48)">	<stop offset="0" style="stop-color:#001489"></stop>	<stop offset="0.41" style="stop-color:#001386"></stop>	<stop offset="0.6" style="stop-color:#00127F"></stop>	<stop offset="0.75" style="stop-color:#001072"></stop>	<stop offset="0.88" style="stop-color:#000D5F"></stop>	<stop offset="0.99" style="stop-color:#000A48"></stop>	<stop offset="1" style="stop-color:#000A45"></stop></linearGradient><path class="st22" d="M1315.3,979.4c-53.9,0-97.5-43.7-97.5-97.5C1271.7,881.9,1315.3,925.5,1315.3,979.4z"></path><linearGradient id="SVGID_20_" gradientUnits="userSpaceOnUse" x1="11552.3701" y1="-1061.28" x2="11650.0293" y2="-1061.28" gradientTransform="matrix(-1 0 0 1 12965.5596 1992.3)">	<stop offset="0" style="stop-color:#E03C31"></stop>	<stop offset="0.44" style="stop-color:#DD3B30"></stop>	<stop offset="0.66" style="stop-color:#D6372D"></stop>	<stop offset="0.82" style="stop-color:#C93228"></stop>	<stop offset="0.96" style="stop-color:#B62A22"></stop>	<stop offset="1" style="stop-color:#B02820"></stop></linearGradient><circle class="st23" cx="1364.4" cy="931" r="48.8"></circle><linearGradient id="SVGID_21_" gradientUnits="userSpaceOnUse" x1="1511.9001" y1="-1845.39" x2="1609.5601" y2="-1845.39" gradientTransform="matrix(1 0 0 1 0 1992.3)">	<stop offset="0" style="stop-color:#E03C31"></stop>	<stop offset="0.44" style="stop-color:#DD3B30"></stop>	<stop offset="0.66" style="stop-color:#D6372D"></stop>	<stop offset="0.82" style="stop-color:#C93228"></stop>	<stop offset="0.96" style="stop-color:#B62A22"></stop>	<stop offset="1" style="stop-color:#B02820"></stop></linearGradient><circle class="st24" cx="1560.7" cy="146.9" r="48.8"></circle><linearGradient id="SVGID_22_" gradientUnits="userSpaceOnUse" x1="1217.8401" y1="-1943.4701" x2="1315.5" y2="-1943.4701" gradientTransform="matrix(1 0 0 1 0 1992.3)">	<stop offset="0" style="stop-color:#FFB81C"></stop>	<stop offset="0.51" style="stop-color:#FDB51B"></stop>	<stop offset="0.75" style="stop-color:#F6AE1B"></stop>	<stop offset="0.94" style="stop-color:#EBA11A"></stop>	<stop offset="1" style="stop-color:#E69B1A"></stop></linearGradient><circle class="st25" cx="1266.7" cy="48.8" r="48.8"></circle><linearGradient id="SVGID_23_" gradientUnits="userSpaceOnUse" x1="1610.1299" y1="243.14" x2="1707.6299" y2="243.14" gradientTransform="matrix(1 0 0 -1 0 880.48)">	<stop offset="0" style="stop-color:#007749"></stop>	<stop offset="0.53" style="stop-color:#007447"></stop>	<stop offset="0.78" style="stop-color:#006D42"></stop>	<stop offset="0.97" style="stop-color:#00603A"></stop>	<stop offset="1" style="stop-color:#005E39"></stop></linearGradient><path class="st26" d="M1610.1,686.1c0-53.8,43.7-97.5,97.5-97.5C1707.6,642.4,1664,686.1,1610.1,686.1z"></path><linearGradient id="SVGID_24_" gradientUnits="userSpaceOnUse" x1="1511.3301" y1="635.16" x2="1608.8301" y2="635.16" gradientTransform="matrix(1 0 0 -1 0 880.48)">	<stop offset="0" style="stop-color:#001489"></stop>	<stop offset="0.41" style="stop-color:#001386"></stop>	<stop offset="0.6" style="stop-color:#00127F"></stop>	<stop offset="0.75" style="stop-color:#001072"></stop>	<stop offset="0.88" style="stop-color:#000D5F"></stop>	<stop offset="0.99" style="stop-color:#000A48"></stop>	<stop offset="1" style="stop-color:#000A45"></stop></linearGradient><path class="st27" d="M1608.8,294.1c0-53.9-43.7-97.5-97.5-97.5C1511.3,250.4,1555,294.1,1608.8,294.1z"></path><linearGradient id="SVGID_25_" gradientUnits="userSpaceOnUse" x1="11551.8252" y1="618.2801" x2="11550.2754" y2="782.1201" gradientTransform="matrix(-1 0 0 1 12965.54 -680.64)">	<stop offset="0" style="stop-color:#E03C31"></stop>	<stop offset="0.44" style="stop-color:#DD3B30"></stop>	<stop offset="0.66" style="stop-color:#D6372D"></stop>	<stop offset="0.82" style="stop-color:#C93228"></stop>	<stop offset="0.96" style="stop-color:#B62A22"></stop>	<stop offset="1" style="stop-color:#B02820"></stop></linearGradient><path class="st28" d="M1414.3,98.3c-54.1,0-98-43.9-98-98h196C1512.3,54.4,1468.4,98.3,1414.3,98.3"></path><linearGradient id="SVGID_26_" gradientUnits="userSpaceOnUse" x1="1609.1699" y1="733.67" x2="1706.6699" y2="733.67" gradientTransform="matrix(1 0 0 -1 0 880.48)">	<stop offset="0" style="stop-color:#221F20"></stop>	<stop offset="0.49" style="stop-color:#1F1D1D"></stop>	<stop offset="0.72" style="stop-color:#181616"></stop>	<stop offset="0.9" style="stop-color:#0B0A0A"></stop>	<stop offset="1" style="stop-color:#000000"></stop></linearGradient><path class="st29" d="M1706.7,195.6c-53.8,0-97.5-43.6-97.5-97.5C1663,98.1,1706.7,141.7,1706.7,195.6z"></path><g>	<path class="st12" d="M1414,195.7l97.2-97.6C1457.5,98.3,1414,142,1414,195.7z"></path>	<path class="st15" d="M1414,195.7c53.9,0,97.6-43.7,97.6-97.6c-0.2,0-0.3,0-0.5,0L1414,195.7z"></path></g><g>			<linearGradient id="SVGID_27_" gradientUnits="userSpaceOnUse" x1="1609.3301" y1="635.565" x2="1706.51" y2="635.565" gradientTransform="matrix(1 0 0 -1 0 880.48)">		<stop offset="0" style="stop-color:#221F20"></stop>		<stop offset="0.49" style="stop-color:#1F1D1D"></stop>		<stop offset="0.72" style="stop-color:#181616"></stop>		<stop offset="0.9" style="stop-color:#0B0A0A"></stop>		<stop offset="1" style="stop-color:#000000"></stop>	</linearGradient>	<path class="st30" d="M1609.3,293.7l97.2-97.6C1652.8,196.3,1609.3,240,1609.3,293.7z"></path>			<linearGradient id="SVGID_28_" gradientUnits="userSpaceOnUse" x1="1609.3301" y1="635.57" x2="1706.97" y2="635.57" gradientTransform="matrix(1 0 0 -1 0 880.48)">		<stop offset="0" style="stop-color:#007749"></stop>		<stop offset="0.41" style="stop-color:#007447"></stop>		<stop offset="0.61" style="stop-color:#006D42"></stop>		<stop offset="0.76" style="stop-color:#00603A"></stop>		<stop offset="0.78" style="stop-color:#005E39"></stop>	</linearGradient>	<path class="st31" d="M1609.3,293.7c53.9,0,97.6-43.7,97.6-97.6c-0.1,0-0.3,0-0.5,0L1609.3,293.7z"></path></g><g>	<path class="st12" d="M1315.5,294.2l-97.2-97.6C1272,196.9,1315.5,240.5,1315.5,294.2z"></path>	<path class="st15" d="M1315.5,294.2c-53.9,0-97.6-43.7-97.6-97.6c0.1,0,0.3,0,0.5,0L1315.5,294.2z"></path></g><linearGradient id="SVGID_29_" gradientUnits="userSpaceOnUse" x1="1512.0601" y1="831.16" x2="1609.5601" y2="831.16" gradientTransform="matrix(1 0 0 -1 0 880.48)">	<stop offset="0" style="stop-color:#001489"></stop>	<stop offset="0.41" style="stop-color:#001386"></stop>	<stop offset="0.6" style="stop-color:#00127F"></stop>	<stop offset="0.75" style="stop-color:#001072"></stop>	<stop offset="0.88" style="stop-color:#000D5F"></stop>	<stop offset="0.99" style="stop-color:#000A48"></stop>	<stop offset="1" style="stop-color:#000A45"></stop></linearGradient><path class="st32" d="M1609.6,98.1c0-53.8-43.7-97.5-97.5-97.5C1512.1,54.4,1555.7,98.1,1609.6,98.1z"></path><linearGradient id="SVGID_30_" gradientUnits="userSpaceOnUse" x1="7605.1104" y1="3315.73" x2="7702.9502" y2="3315.73" gradientTransform="matrix(6.123234e-17 -1 -1 -6.123234e-17 4680.98 7703.2803)">	<stop offset="0" style="stop-color:#007749"></stop>	<stop offset="0.53" style="stop-color:#007447"></stop>	<stop offset="0.78" style="stop-color:#006D42"></stop>	<stop offset="0.97" style="stop-color:#00603A"></stop>	<stop offset="1" style="stop-color:#005E39"></stop></linearGradient><path class="st33" d="M1414.2,98.2c-54,0-97.8-43.8-97.8-97.8h97.8V98.2z"></path><g>			<linearGradient id="SVGID_31_" gradientUnits="userSpaceOnUse" x1="1021.29" y1="242.635" x2="1118.47" y2="242.635" gradientTransform="matrix(1 0 0 -1 0 880.48)">		<stop offset="0" style="stop-color:#E03C31"></stop>		<stop offset="0.44" style="stop-color:#DD3B30"></stop>		<stop offset="0.66" style="stop-color:#D6372D"></stop>		<stop offset="0.82" style="stop-color:#C93228"></stop>		<stop offset="0.96" style="stop-color:#B62A22"></stop>		<stop offset="1" style="stop-color:#B02820"></stop>	</linearGradient>	<path class="st34" d="M1021.3,686.7l97.2-97.6C1064.8,589.3,1021.3,632.9,1021.3,686.7z"></path>			<linearGradient id="SVGID_32_" gradientUnits="userSpaceOnUse" x1="1021.29" y1="242.64" x2="1118.9299" y2="242.64" gradientTransform="matrix(1 0 0 -1 0 880.48)">		<stop offset="0" style="stop-color:#007749"></stop>		<stop offset="0.41" style="stop-color:#007447"></stop>		<stop offset="0.61" style="stop-color:#006D42"></stop>		<stop offset="0.76" style="stop-color:#00603A"></stop>		<stop offset="0.78" style="stop-color:#005E39"></stop>	</linearGradient>	<path class="st35" d="M1021.3,686.7c53.9,0,97.6-43.7,97.6-97.6c-0.1,0-0.3,0-0.5,0L1021.3,686.7z"></path></g><linearGradient id="SVGID_33_" gradientUnits="userSpaceOnUse" x1="8922.3994" y1="2147.76" x2="9020.2393" y2="2147.76" gradientTransform="matrix(6.123234e-17 -1 -1 -6.123234e-17 2196.6799 9019.7793)">	<stop offset="0" style="stop-color:#FFB81C"></stop>	<stop offset="0.51" style="stop-color:#FDB51B"></stop>	<stop offset="0.75" style="stop-color:#F6AE1B"></stop>	<stop offset="0.94" style="stop-color:#EBA11A"></stop>	<stop offset="1" style="stop-color:#E69B1A"></stop></linearGradient><path class="st36" d="M97.8,97.4C43.8,97.4,0,53.6,0-0.5h97.8V97.4z"></path><g>			<linearGradient id="SVGID_34_" gradientUnits="userSpaceOnUse" x1="98.07" y1="832.115" x2="195.25" y2="832.115" gradientTransform="matrix(1 0 0 -1 0 880.48)">		<stop offset="0" style="stop-color:#E03C31"></stop>		<stop offset="0.44" style="stop-color:#DD3B30"></stop>		<stop offset="0.66" style="stop-color:#D6372D"></stop>		<stop offset="0.82" style="stop-color:#C93228"></stop>		<stop offset="0.96" style="stop-color:#B62A22"></stop>		<stop offset="1" style="stop-color:#B02820"></stop>	</linearGradient>	<path class="st37" d="M98.1,97.2l97.2-97.6C141.5-0.2,98.1,43.4,98.1,97.2z"></path>			<linearGradient id="SVGID_35_" gradientUnits="userSpaceOnUse" x1="98.07" y1="832.12" x2="195.71" y2="832.12" gradientTransform="matrix(1 0 0 -1 0 880.48)">		<stop offset="0" style="stop-color:#007749"></stop>		<stop offset="0.41" style="stop-color:#007447"></stop>		<stop offset="0.61" style="stop-color:#006D42"></stop>		<stop offset="0.76" style="stop-color:#00603A"></stop>		<stop offset="0.78" style="stop-color:#005E39"></stop>	</linearGradient>	<path class="st38" d="M98.1,97.2c53.9,0,97.6-43.7,97.6-97.6c-0.1,0-0.3,0-0.5,0L98.1,97.2L98.1,97.2z"></path></g><g>	<path class="st12" d="M97.6,195.3L0.5,97.6C54.2,97.9,97.6,141.5,97.6,195.3z"></path>	<path class="st15" d="M97.6,195.3C43.7,195.3,0,151.6,0,97.6c0.1,0,0.3,0,0.5,0L97.6,195.3z"></path></g></svg>