<?xml version="1.0" encoding="UTF-8"?>
<svg id="Layer_1" data-name="Layer 1" xmlns="http://www.w3.org/2000/svg" viewBox="0 0 796.5 279">
  <defs>
    <style>
      .cls-1 {
        fill: #cb932f;
      }

      .cls-2 {
        fill: #2c2929;
      }

      .cls-3 {
        fill: #f0e5c0;
      }

      .cls-4 {
        fill: #976c2c;
      }

      .cls-5 {
        fill: #efe6e6;
      }

      .cls-6 {
        fill: #c1c0c0;
      }

      .cls-7 {
        fill: #711e15;
      }

      .cls-8 {
        fill: #f7a00c;
      }

      .cls-9 {
        fill: #9b4c0a;
      }

      .cls-10 {
        fill: #c17f07;
      }

      .cls-11 {
        fill: #f69a5b;
      }

      .cls-12 {
        fill: #b8893c;
      }

      .cls-13 {
        fill: #f7f2f2;
      }

      .cls-14 {
        fill: #d1af49;
      }

      .cls-15 {
        fill: #f5f8f6;
      }

      .cls-16 {
        fill: #1e7042;
      }

      .cls-17 {
        fill: #f9fbf9;
      }

      .cls-18 {
        fill: #f5f8f7;
      }

      .cls-19 {
        fill: #6c1511;
      }

      .cls-20 {
        fill: #f4eccd;
      }

      .cls-21 {
        fill: #1c6e41;
      }

      .cls-22 {
        fill: #dbbe4f;
      }

      .cls-23 {
        fill: #6b1511;
      }

      .cls-24 {
        fill: #3e3b3b;
      }

      .cls-25 {
        fill: #d6b74c;
      }

      .cls-26 {
        fill: #976b2c;
      }

      .cls-27 {
        fill: #f2e8c3;
      }

      .cls-28 {
        fill: #f2e8c2;
      }

      .cls-29 {
        fill: #f5f0f0;
      }

      .cls-30 {
        fill: #f3e9c4;
      }

      .cls-31 {
        fill: #f6f1f1;
      }

      .cls-32 {
        fill: #fbfcfc;
      }

      .cls-33 {
        fill: #9c4d0c;
      }

      .cls-34 {
        fill: #dedddd;
      }

      .cls-35 {
        fill: #cfac48;
      }

      .cls-36 {
        fill: #035e2b;
      }

      .cls-37 {
        fill: #d6b64c;
      }

      .cls-38 {
        fill: #625f5f;
      }

      .cls-39 {
        fill: #f59223;
      }

      .cls-40 {
        fill: #8bb59e;
      }

      .cls-41 {
        fill: #f6f9f7;
      }

      .cls-42 {
        fill: #c17e07;
      }

      .cls-43 {
        fill: #f8f3ed;
      }

      .cls-44 {
        fill: #6ea285;
      }

      .cls-45 {
        fill: #f0e5c1;
      }

      .cls-46 {
        fill: #7b7a7a;
      }

      .cls-47, .cls-48 {
        fill: #025e2b;
      }

      .cls-49 {
        fill: #f5f3f3;
      }

      .cls-50 {
        fill: #5a9675;
      }

      .cls-51 {
        fill: #edf3f0;
      }

      .cls-52 {
        fill: #615f5f;
      }

      .cls-53 {
        fill: #e3ede7;
      }

      .cls-54 {
        fill: #c09640;
      }

      .cls-55 {
        fill: #f4ecce;
      }

      .cls-56 {
        fill: #126838;
      }

      .cls-57 {
        fill: #986c2d;
      }

      .cls-58 {
        fill: #ea1923;
      }

      .cls-59 {
        fill: #c6a754;
      }

      .cls-60 {
        fill: #f9f4e3;
      }

      .cls-61 {
        fill: #8e8d8d;
      }

      .cls-62 {
        fill: #126839;
      }

      .cls-48 {
        font-family: GillSansMT, 'Gill Sans MT';
        font-size: 70px;
        letter-spacing: .02em;
      }

      .cls-63 {
        fill: #221f1f;
      }

      .cls-64 {
        fill: #d2b04a;
      }

      .cls-65 {
        fill: #737171;
      }

      .cls-66 {
        fill: #fefefe;
      }

      .cls-67 {
        fill: #06602e;
      }

      .cls-68 {
        font-family: Arial-BoldMT, Arial;
        font-weight: 700;
      }

      .cls-68, .cls-69 {
        font-size: 37px;
        letter-spacing: -.02em;
      }

      .cls-68, .cls-69, .cls-70 {
        fill: #191919;
      }

      .cls-71 {
        fill: #f5edcf;
      }

      .cls-72 {
        fill: #f5efef;
      }

      .cls-73 {
        fill: #f7faf8;
      }

      .cls-74 {
        fill: #976c2d;
      }

      .cls-75 {
        fill: #211e1e;
      }

      .cls-76 {
        fill: #bb9e75;
      }

      .cls-69 {
        font-family: ArialMT, Arial;
      }

      .cls-77 {
        fill: #6c1612;
      }

      .cls-78 {
        fill: #ebe3d8;
      }

      .cls-79 {
        fill: #ebf2ee;
      }

      .cls-80 {
        fill: #fbfcfb;
      }

      .cls-81 {
        fill: #6e1913;
      }

      .cls-82 {
        fill: #976b2b;
      }

      .cls-83 {
        fill: #6ca184;
      }

      .cls-84 {
        fill: #fafbfb;
      }

      .cls-85 {
        fill: #b88a3c;
      }

      .cls-86 {
        fill: #986d2e;
      }

      .cls-87 {
        fill: #b58f61;
      }

      .cls-88 {
        fill: #c29e9d;
      }

      .cls-89 {
        fill: #89b49c;
      }

      .cls-90 {
        fill: #fafcfb;
      }

      .cls-91 {
        fill: #5b5858;
      }

      .cls-92 {
        fill: #f69b39;
      }

      .cls-93 {
        fill: #fafbfa;
      }

      .cls-94 {
        fill: #c7c6c6;
      }

      .cls-95 {
        fill: #f27014;
      }

      .cls-96 {
        fill: #035e2c;
      }

      .cls-97 {
        fill: #c17f08;
      }

      .cls-98 {
        fill: #ba8b3c;
      }

      .cls-99 {
        fill: #6b1411;
      }
    </style>
  </defs>
  <path class="cls-47" d="M100.51,267.77c-1.39-.64-2.91-.5-4.37-.73-25.23-4.01-43.82-17.7-57.03-39.19-1.26-2.05-2.42-4.16-3.47-6.53,2.31.46,4.47.92,6.68,1.06,4.59.29,9.09-.09,13.4-1.74,1.09-.42,1.32.25,1.74.85,5.74,8.08,12.85,14.61,21.6,19.3,23.3,12.49,51.36,7.81,69.94-11.61,2.38-2.49,4.56-5.14,6.53-7.96.33-.47.54-.81,1.3-.53,6.55,2.4,13.22,2.46,19.95.79.09-.02.19.02.39.05-2.45,5.08-5.34,9.84-8.74,14.28-11.9,15.55-27.15,25.98-46.39,30.28-3.06.68-6.15,1.12-9.27,1.39-.27.02-.63-.12-.75.3h-.91c-.17-.19-.39-.15-.61-.16-.21,0-.44-.03-.61.16h-1.82c-1.11-.25-2.22-.25-3.33,0h-1.82c-.17-.19-.39-.15-.61-.16-.21,0-.44-.03-.61.16h-1.21Z"/>
  <path class="cls-42" d="M203.26,62.8c-.83,1.47-2.16,2.33-3.62,3.06-6.31,3.18-12.86,5.82-19.29,8.72-.23.1-.46.21-.69.3-.5.18-1.07.48-.83,1.05.3.71.86.12,1.25-.03,5.07-1.98,10.13-3.99,15.2-5.97,1.55-.6,3.09-1.25,4.77-1.4,1.25-.11,1.68.47,1.39,1.64-.74,2.97-2.05,5.3-5.26,6.43-10.38,3.65-20.97,5.88-32.04,5.26-3.15-.18-3.1-.18-3.61-3.21-.78-4.7-3.42-8.38-6.77-11.55-1.2-1.14-1.28-1.91-.53-3.38,6.9-13.54,11.21-27.95,13.97-42.85.56-3.02,1.03-6.06,1.54-9.1,3.85,1.17,6.89,5.38,7.28,9.88.41,4.78-.98,9.18-2.61,13.56-1.49,4.02-3.23,7.94-5.07,11.81-.46.97-.45,1.59.74,2.13,1.4-2.79,2.9-5.58,4.23-8.44,2.25-4.84,4.69-9.62,5.79-14.91.6-2.84,1.04-5.67-.04-8.49-.22-.57-.02-.68.52-.7,5.05-.18,9.61,6.06,7.69,10.7-2.66,6.41-6.4,12.24-9.95,18.17-1.35,2.25-2.7,4.5-4.15,6.69-.65.98-.7,1.7.48,2.54,5.77-9.57,13.31-18.02,17.62-28.7.41-.03.73.55,1.11.96.96,1.04,1.75,2.21,2.52,3.4,1.07,1.66,1.12,3.32.1,4.99-.79,1.29-1.6,2.57-2.5,3.79-4.95,6.71-9.91,13.41-15.68,19.45-.14.15-.27.31-.41.45-.42.42-.31.89.04,1.19.4.34.6-.2.8-.42,2.32-2.53,4.63-5.08,6.94-7.62,4.38-4.83,8.36-9.99,12.47-15.04.73-.89,1.21-.74,1.72.06.81,1.28,1.57,2.6,2.09,4.02.82,2.27-.12,4.01-1.74,5.54-4.26,4.02-8.59,7.97-13.05,11.77-2.27,1.93-4.54,3.86-6.8,5.8-.44.37-1.09.7-.52,1.64,1.91-1.49,3.82-2.95,5.69-4.46,5.15-4.15,10.49-8.07,15.38-12.53,1.68-1.53,2.76-1.11,3.24,1.09.18.81.09,1.69.6,2.42v.91c-.43,1.46-1.56,2.31-2.75,3.08-6.4,4.15-12.78,8.32-19.36,12.18-.51.3-1.06.54-1.59,1.23,4.98-2.83,9.73-5.56,14.5-8.27,2.33-1.32,4.66-2.63,7.02-3.89,1.02-.54,1.85-.49,2.18.82v4.25Z"/>
  <path class="cls-16" d="M104.75,267.77c1.11-.49,2.22-.49,3.33,0h-3.33Z"/>
  <path class="cls-40" d="M101.72,267.77c.09-.34.34-.29.59-.25.11.05.14.11.11.16-.03.06-.07.09-.1.09h-.61Z"/>
  <path class="cls-44" d="M102.33,267.77c0-.09,0-.17-.01-.25.26-.05.5-.04.62.25h-.61Z"/>
  <path class="cls-44" d="M109.9,267.77c.12-.3.36-.3.62-.26.09.06.12.12.08.18-.03.05-.06.08-.1.08h-.61Z"/>
  <path class="cls-89" d="M110.51,267.77c0-.09,0-.17.01-.26.25-.04.51-.09.59.26h-.61Z"/>
  <path class="cls-42" d="M21.83,25.89c.88,3.75,2.82,6.88,4.84,9.95,3.99,6.08,8.09,12.08,12.14,18.11.16.24.29.54.62.61.93-.74.83-1.47.22-2.45-4.51-7.24-9.07-14.45-12.87-22.09-.58-1.17-1.15-2.37-1.54-3.61-.68-2.17-.32-4.18,1.23-5.93,2.18-2.47,5.19-3.99,7.4-3.71-1.66,4.92-.29,9.57,1.4,14.13,2.2,5.97,5.06,11.65,8.04,17.27.17.32.16,1.19.94.72.54-.33.81-.75.45-1.5-2.06-4.27-3.97-8.61-5.59-13.07-1.49-4.1-2.72-8.26-2.26-12.7.48-4.66,2.88-7.95,7.21-9.99.64,3.65,1.21,7.23,1.89,10.77,2.81,14.63,7.18,28.75,14.01,42.04.48.93.42,1.42-.35,2.15-3.24,3.04-5.94,6.47-7.04,10.91-.16.63-.39,1.3-.34,1.93.15,1.88-.83,2.29-2.48,2.38-7.66.41-15.22-.11-22.66-2.09-3.65-.97-7.27-2.04-10.84-3.28-3.2-1.11-4.19-3.69-4.87-6.57-.21-.89.23-1.33,1.14-1.32,1.55,0,2.96.6,4.36,1.14,5.12,1.99,10.21,4.05,15.33,6.03.54.21,1.43,1,1.77.21.37-.85-.76-1-1.36-1.26-6.11-2.75-12.32-5.29-18.34-8.24-.9-.44-1.81-.9-2.66-1.44-2.07-1.31-2.87-3.81-2.04-6.09.39-1.08.93-1.4,2.02-.78,5.61,3.19,11.26,6.32,16.88,9.48,1.5.84,2.97,1.71,4.47,2.54.26.14.57.63.87.17.25-.38.05-.77-.37-1-.31-.17-.61-.36-.91-.54-6.9-4.1-13.69-8.36-20.35-12.85-2.56-1.73-3.15-4.42-1.63-7.06.59-1.02,1.42-.89,2.18-.31,1.16.89,2.22,1.91,3.36,2.82,5.79,4.64,11.6,9.26,17.42,13.87.31.24.71.9,1.08.49.52-.58-.18-.97-.58-1.32-4.8-4.18-9.63-8.32-14.41-12.52-1.93-1.7-3.8-3.48-5.65-5.27-2.11-2.04-2.41-3.77-1.13-6.41.48-1,1.02-1.97,1.59-2.92.53-.88,1.04-1.04,1.81-.07,6.06,7.63,12.28,15.14,19.01,22.2.32.34.62,1.23,1.2.75.69-.57,0-1.15-.44-1.62-6.2-6.54-11.6-13.72-16.78-21.07-3.11-4.41-2.15-8.43,2.63-11.57Z"/>
  <path class="cls-9" d="M197.81,79.44c-1.9,5.86-3.78,7.28-10.21,7.87-3.57.32-7.17.03-10.74-.27-.2-.02-.41,0-.6-.04-.62-.11-1.23.02-1.25.71-.02.56.66.47,1.06.52,3.4.45,6.82.8,10.25.96,1.76.08,3.51.19,5.29.29-1.42,3.32-4.43,5.04-8.13,4.73-3.24-.27-6.34-1.13-9.43-2.08-.34-.1-.7-.16-1.01-.32-.57-.29-.91,0-1.07.45-.23.66.43.55.73.65,3.74,1.24,7.58,2.08,11.41,2.94.54.12,1.08.23,1.63.35-1.62,2.92-4.05,3.93-7.57,3.17-3.01-.65-5.92-1.64-8.75-2.85-.52-.22-1.13-.52-1.38.23-.19.57.51.61.84.77,3.06,1.45,6.28,2.47,9.48,3.53.51.17,1.1.16,1.51.59-1.81,2.41-4.2,3.29-7.01,2.57-2.65-.68-5.13-1.8-7.52-3.11-.31-.17-.64-.31-.93-.51-.45-.31-.8-.11-1.03.23-.34.51.25.57.48.72,2.71,1.66,5.54,3.1,8.49,4.3.31.13.62.28,1.02.47-2.33,2.41-5.01,3.26-8.18,2.41-2.43-.65-4.48-2.06-6.56-3.38-.61-.39-1.21-.84-1.77.13,2.64,2.24,5.72,3.76,8.93,5.48-2.67,1.67-5.27,2.67-8.35,1.73-2.26-.69-4.19-1.96-6.09-3.3-.46-.33-.9-.9-1.72-.22,2.41,2.23,5.37,3.62,8.09,5.57-2.91,1.94-5.83,2.3-8.94.96-1.87-.81-3.52-1.97-5.13-3.19-.51-.39-1.01-.96-1.7-.12,2.42,2,5.04,3.69,7.77,5.46-2.75,1.98-5.74,1.96-8.74,1.5-3.3-.5-6.22-2.01-8.93-3.9-3.98-2.76-7.94-5.55-11.9-8.34-.24-.17-.47-.36-.88-.68,2.91-.52,5.61-.98,8.3-1.48,1.79-.33,3.57-.72,5.17-1.63,1.68-.95,2.97-2.18,2.45-4.36-.18-.75.43-.72.77-.87,1.48-.65,2.95-1.33,4.25-2.3,1.43-1.07,2.82-2.21,2.71-4.26-.04-.7.55-.65.92-.77,1.54-.49,3.05-1.06,4.42-1.93.77-.49,1.69-1.02,1.86-1.91.25-1.33,1.07-1.39,2.1-1.52,2.27-.29,4.47-.84,6.33-2.27.5-.39,1.03-.38,1.58-.29,6.2,1.07,12.38.46,18.56-.2,6.37-.68,12.64-1.92,19.12-3.2Z"/>
  <path class="cls-9" d="M26.99,96.21c4.25-.91,8.38-1.82,12.43-3.06.29-.09.58-.18.86-.29.28-.11.83-.03.61-.59-.14-.36-.38-.72-.92-.53-.71.26-1.43.48-2.16.68-3.4.95-6.79,1.93-10.39,1.75-3.09-.15-4.64-2.3-6.43-4.67,1.57-.1,2.94-.22,4.31-.27,3.84-.14,7.66-.51,11.46-1.02.41-.05,1.12.1,1.04-.63-.07-.65-.65-.64-1.19-.6-3.48.26-6.95.53-10.44.36-1.26-.06-2.51-.21-3.76-.4-4.21-.64-6.24-3.5-7.41-7.51,2.57.48,5.01.95,7.45,1.41,7.4,1.39,14.85,2.4,22.39,2.55,2.58.05,5.15-.07,7.69-.53.59-.11,1.17-.18,1.73.24,2.08,1.59,4.55,2.07,7.07,2.41.39.05.93-.19,1.06.52.32,1.82,1.8,2.59,3.21,3.38.53.29,1.09.55,1.66.71,1.49.43,2.67.84,2.97,2.83.27,1.8,2.12,2.72,3.64,3.63.56.34,1.14.66,1.74.91,1.18.49,2.29.74,1.99,2.63-.22,1.4,1.08,2.41,2.33,3.09,2.62,1.43,5.55,1.78,8.42,2.32,1.34.25,2.69.42,4.33.66-1.47,1.16-2.74,2.19-4.05,3.17-3.35,2.51-6.43,5.38-10.1,7.46-3.89,2.2-7.98,3.36-12.48,2.37-1.04-.23-2.02-.61-2.85-1.33,2.25-1.59,4.49-3.13,6.68-4.73.33-.24,1.19-.41.75-1.01-.43-.59-.99-.03-1.42.3-1.4,1.07-2.84,2.1-4.43,2.9-3.3,1.66-6.47,1.51-9.74-.66,1.42-.89,2.75-1.7,4.04-2.55,1.18-.78,2.34-1.59,3.48-2.42.22-.16.8-.3.39-.76-.25-.27-.62-.21-.96.02-1.21.82-2.41,1.66-3.67,2.41-3.34,2-6.74,2.22-10.18.25-.35-.2-.75-.32-.92-.81,2.67-1.4,5.35-2.78,7.77-4.61.33-.25,1.15-.4.79-1.02-.43-.73-1.05-.24-1.55.09-1.6,1.05-3.22,2.09-4.98,2.86-3.75,1.62-7.07.99-9.73-1.91,3.09-1.29,6.09-2.67,8.91-4.41.4-.24,1.31-.37,1-1-.44-.89-1.12-.17-1.65.1-2.46,1.29-4.97,2.43-7.65,3.22-3.05.9-5.24-.33-7.35-2.51,2.98-1.05,5.82-2.04,8.65-3.07.94-.34,1.86-.78,2.77-1.21.26-.12.8-.14.61-.62-.18-.45-.54-.63-1.1-.36-.95.45-1.95.83-2.94,1.18-2.33.83-4.66,1.66-7.13,1.93-3.1.34-4.54-.38-6.64-3.29Z"/>
  <path class="cls-59" d="M41.69,111.16c-.04,1.26-.52,2.04-.88,2.85-5.29,11.78-8.7,24.05-10.06,36.91-2.23,21.14,2.79,40.66,13.06,59.01,1.55,2.77,3.23,5.48,4.93,8.16.6.95.45,1.34-.61,1.47-4.5.55-8.83-.2-13.08-1.63-.59-.2-.98-.64-1.29-1.21-6-11.06-10.17-22.71-11.49-35.3-1.96-18.7,1.65-36.44,9.27-53.48,2.17-4.85,4.79-9.45,7.73-13.87.64-.96,1.29-1.92,2.43-2.91Z"/>
  <path class="cls-59" d="M171.22,111.34c.94.59,1.48,1.44,2.03,2.26,7.81,11.63,12.99,24.35,15.76,38.06,1.51,7.44,2.32,14.96,2.1,22.56-.36,12.48-3.33,24.34-8.59,35.64-1.04,2.24-2.22,4.42-3.3,6.64-.35.72-.82,1.26-1.59,1.51-4.07,1.31-8.21,2.08-12.49,1.59-1.74-.2-1.76-.33-.83-1.77,7.1-11.02,12.71-22.71,15.74-35.53,2.42-10.2,3.14-20.51,2.09-30.96-1.33-13.17-4.83-25.74-10.31-37.77-.25-.55-.44-1.13-.64-1.7-.04-.13.02-.29.05-.54Z"/>
  <path class="cls-99" d="M143.1,180.58c-.45,18.62-7.89,34.02-21.51,46.56-4.25,3.92-9.02,7.13-14.16,9.77-.67.34-1.18.47-1.93.07-17.68-9.45-29.4-23.66-34.2-43.24-3.02-12.35-1.75-24.45,3.16-36.17.31-.74.72-1.02,1.53-1.16,9.68-1.73,19.35-3.51,29.01-5.29,1.76-.32,3.4.3,5.08.6,8.79,1.55,17.56,3.21,26.34,4.75,1.2.21,1.79.73,2.23,1.82,2.87,7.15,4.43,14.56,4.44,22.29Z"/>
  <path class="cls-22" d="M155.79,119.19c1.17.62,1.93,1.54,2.67,2.45,10.37,12.71,16.67,27.3,19.91,43.3.73,3.61,1.21,7.27,1.45,10.94.17,2.59-.76,5.07-1.39,7.55-3.04,12.02-8.34,23.02-15.02,33.4-.45.7-.72,1.94-1.43,1.97-1.27.04-2.57-.47-3.74-1.08-.82-.42-.04-.88.15-1.21,2.68-4.65,4.93-9.49,6.69-14.56,3.35-9.66,5.03-19.59,5.23-29.82.36-18.43-4.57-35.38-13.81-51.19-.29-.5-.72-.96-.73-1.74Z"/>
  <path class="cls-22" d="M57.16,119.4c-.92,1.65-1.86,3.28-2.75,4.94-6.33,11.72-10.41,24.14-11.54,37.47-1.54,18.08,1.46,35.28,9.79,51.47.62,1.21,1.31,2.39,2.01,3.56.31.52.29.81-.33.99-1.06.31-2.12.63-3.17.98-.45.15-.59-.07-.81-.41-7.01-10.88-12.56-22.39-16.07-34.93-1.78-6.37-1.03-12.49.2-18.67,3.04-15.22,8.96-29.19,18.53-41.5,1.16-1.49,2.25-3.06,4.14-3.92Z"/>
  <path class="cls-95" d="M156.58,44.51c-7.97,3.03-15.94,6.05-24.13,9.16.78.6,1.4,1.07,2.01,1.54.07.29,0,.43-.32.32-18.52-7.52-37.06-7.49-55.7-.22.69-.44,1.39-.89,2.08-1.33.19-.63.67-.98,1.2-1.28,1.43-.82,2.82-1.72,4.32-2.41.21-.09.4-.21.6-.32,2.96-1.41,5.99-2.63,9.23-3.24,2.53-1,5.23-1.06,7.87-1.35,2.03-.23,2.05-.17,2.05-2.27,0-8.68,0-17.35,0-26.03,0-1.47.11-2.91.47-4.33,0-.05,0-.12.02-.15.06-.05.13-.08.2-.12.07.18.14.36.2.55,1.89,6.08,3.78,12.16,5.68,18.25.65.35.77,1.02.98,1.63.79,2.23,1.29,4.54,2.2,6.73.32,1.9,1.08,3.67,1.62,5.51.38,1.31.47,1.34,1.58.55,3.34-2.35,6.6-4.8,9.9-7.21,4.85-3.53,9.7-7.06,14.55-10.58.63-.46,1.21-1.29,2.22-.88-.1.53-.49.86-.81,1.25-3.77,4.59-7.54,9.18-11.3,13.78-.35.42-.64.89-.95,1.34-.71,1.9-2.34,3.12-3.47,4.71-.49.69-1.03,1.38-1.71,1.81,1.33-.5,2.8-.71,4.24-1,7.62-1.53,15.22-3.17,22.86-4.63.73-.14,1.64-.82,2.3.23Z"/>
  <path class="cls-22" d="M115.36,89.65c1.17,1.98,1.61,3.77,2.12,5.54,1.11,3.88,1.74,4.24,5.39,2.45,6.48-3.18,11.86-7.81,16.62-13.18,3.92-4.43,7.45-9.15,10.27-14.38.12-.22.26-.43.41-.64,1.36-1.9,2.02-1.96,3.65-.24,2.5,2.63,4.57,5.52,5.37,9.15.55,2.46.07,3.39-2.3,4.34-2.16.87-4.42,1.38-6.73,1.65-.71.08-1.29.11-1.14,1.11.14.97-.52,1.58-1.21,2.13-1.58,1.26-3.5,1.76-5.37,2.33-.68.21-1.1.35-.88,1.32.26,1.16-.43,2.12-1.36,2.85-1.73,1.34-3.69,2.27-5.65,3.19-.69.32-.97.55-.78,1.43.4,1.83-.49,3.17-2.58,4.09-2.47,1.07-5.13,1.44-7.76,1.89-.2.03-.4.03-.6.06-5.23.8-5.21.77-9.32-2.62-.73-.6-.82-1.07-.45-1.88.73-1.6,1.38-3.25,1.77-4.98.38-1.68.55-3.38.54-5.58Z"/>
  <path class="cls-22" d="M96.26,98.79c-.82,2.01-1.57,3.82-2.29,5.64-.21.52-.41.86-1.08.75-3.17-.56-6.39-.88-9.51-1.72-1.18-.32-2.3-.78-3.25-1.56-.97-.8-1.45-1.88-1.1-3.1.27-.92-.07-1.22-.83-1.52-2.02-.82-3.96-1.79-5.56-3.3-.93-.88-1.79-1.82-1.36-3.28.22-.76-.49-.65-.84-.76-1.58-.52-3.18-1.01-4.61-1.88-1.07-.66-2.18-1.32-2.06-2.88.07-.91-.77-.69-1.21-.74-2.38-.22-4.67-.76-6.82-1.84-2.47-1.24-2.73-1.61-2.2-4.22.83-4.13,3.27-7.32,6.36-10.04,1.07-.94,1.83-.33,2.43.67,2.42,4.03,4.94,7.98,7.86,11.67,4.99,6.31,10.7,11.82,17.77,15.78,2.5,1.4,5.06,2.76,8.3,2.34Z"/>
  <path class="cls-75" d="M99.76,148.11c-6.32-1.14-12.61-2.28-18.91-3.39-.58-.1-1.11-.06-.85-.95.2-.69.41-.98,1.22-.84,7.79,1.39,15.6,2.71,23.39,4.11,2.22.4,4.31-.26,6.43-.61,8.6-1.44,17.19-2.98,25.79-4.43,2.85-.48,5.2-1.51,6.44-4.34.6-1.37,1.75-1.87,3.22-1.74,1.52.14,3,.42,4.32,1.24,2.37,1.46,2.83,4.27,1.02,6.37-1.22,1.42-2.82,2.25-4.58,2.81-.87.28-1.69.01-2.23-.59-2.4-2.71-5.35-2.49-8.51-1.9-7.98,1.48-15.98,2.85-24.01,4.46,2.21.4,4.42.81,6.63,1.19,5.86,1.01,11.72,2.02,17.59,3.02.51.09,1.03.16,1.31.64.21.36.19.79-.06,1.15-.4.57-1,.41-1.53.32-3.58-.62-7.15-1.27-10.72-1.91-6.35-1.14-12.69-2.36-19.06-3.36-2.04-.32-4.07.53-6.1.87-8.1,1.37-16.19,2.82-24.28,4.26-.81.14-1.61.27-1.78-.77-.16-.96.63-1.1,1.36-1.23,7.5-1.29,15-2.58,22.51-3.87.49-.08,1.01-.05,1.42-.5Z"/>
  <path class="cls-10" d="M130.72,86.21c-5.23-2.14-10.75-3.34-16.39-5.22,3.62,3.81,5.2,8.06,4.65,13.32-.83-.97-.95-1.93-1.19-2.82-.98-3.67-2.46-7.04-5.35-9.64-1.79-1.6-4.07-2.41-5.99-3.79-.14-.1-.43-.16-.55-.08-.38.25-.16.63-.1.96.53,3.17,1.29,6.24,3.77,8.55.05.04,0,.18,0,.28-1.04-.34-2.5-1.59-3.51-3.01-.97-1.36-1.73-2.85-2.33-4.4-.75-1.97-2.2-2.95-4.18-3.24-2.89-.43-5.8-.78-8.68-1.24-1.5-.24-1.97.93-2.72,1.78-.71-1.53.06-3.7,1.68-4.76,1.37-.89,2.93-1.33,4.51-1.68.85-.19,1.54-.49,2.05-1.33.63-1.04,1.68-1.65,2.92-1.62,2.86.08,5.72.29,8.47,1.2,2.32.8,3.4,3.07,2.48,5.26q-.76,1.83,1.21,2.43c.71.56,1.79.29,2.4,1.06,4.87,1.32,9.58,3.02,14,5.49,1.14.64,2.32,1.21,3.28,2.12.05.32-.02.51-.41.38Z"/>
  <path class="cls-8" d="M106.26,12.74c0,10.56,0,21.12.04,31.67,0,1.17-.4,1.39-1.48,1.44-3.1.15-6.22.28-9.16,1.46-.2-.12-.42-.22-.44-.5.5-2.33,1.38-4.54,2.01-6.84.78-2.39,1.51-4.8,2.27-7.21.16-.52.23-1.09.72-1.46,1.82-5.69,3.64-11.37,5.46-17.05.17-.52.39-1.01.59-1.52Z"/>
  <path class="cls-8" d="M95.37,47.04c.09.09.19.18.28.28-2.46.15-4.62,1.29-6.88,2.11-.75.28-1.48.63-2.22.95-1.19-.41-1.68-1.53-2.41-2.39-1.25-1.48-2.66-2.84-3.6-4.57-1.52-2.43-3.56-4.44-5.35-6.65-2.65-3.27-5.37-6.49-8.06-9.74.33-.7.73-.14,1,0,1.57.82,2.91,1.98,4.33,3.02,7.17,5.21,14.33,10.43,21.49,15.65.52.38,1.11.71,1.4,1.35Z"/>
  <path class="cls-95" d="M95.37,47.04c-3.02-2.16-6.06-4.3-9.06-6.49-6.09-4.44-12.16-8.9-18.25-13.34-.25-.18-.53-.54-.92-.19-.35-.2-.67-.42-.8-1.14,7.67,3.48,15.18,6.89,22.68,10.3.4,0,.79-.03,1.18.14,2.24.99,4.53,1.88,6.67,3.11.23.17.47.35.59.62-.44,2.4-1.3,4.68-2.09,6.98Z"/>
  <path class="cls-8" d="M145.43,27.02c-2.37,1.04-4.24,2.83-6.31,4.32-6.9,4.97-13.75,10-20.6,15.03-.84.62-1.39.67-1.58-.5-.33-2.09-1.62-3.93-1.58-6.11.04-.06.08-.13.12-.19,2.16-1.2,4.46-2.1,6.71-3.12.37-.17.76-.28,1.17-.08,7.12-3.26,14.24-6.52,21.37-9.77.39-.18.8-.4,1.14.09,0,0-.29.22-.44.34Z"/>
  <path class="cls-9" d="M96.25,102.8c1.01-2.26,2.18-4.41,3.73-6.37,2.86-3.62,4.08-7.82,3.98-12.79.59.82,1,1.39,1.42,1.96,1.84,2.45,4.14,4.12,7.33,4.25.52.02,1.01,0,.95.8-.25,2.97-.45,5.94-1.93,8.64-.38.69-.63.9-1.3.32-1.15-.99-2.42-1.83-3.54-2.85-.76-.69-1.26-.64-2.03-.02-2.71,2.18-5.48,4.29-8.23,6.42-.3.05-.45-.04-.37-.37Z"/>
  <path class="cls-99" d="M111.43,77.4c-.48-.11-.97-.21-1.44-.35-1-.29-1.33-.58-.52-1.65,1.51-2.01.77-4.25-1.71-5.93,3.72.72,7.43-.58,11.16-.07,1.23.17,2.4.44,3.56.88-2.83.1-5.66.14-8.4.98,1.87,0,3.74,0,5.61,0,1.86,0,3.69.17,5.46.83-3.55.08-7.02.64-10.45,1.49,4.82.23,9.64.34,14.02,2.75-1.6-.12-3.16-.61-4.79-.53-2.47-.22-4.95-.14-7.43-.04-.66.19-1.3-.16-1.95-.07-.25.02-.48-.1-.72-.11.48.19.97.08,1.45.14.42.18.93.05,1.3.38,4.43.82,8.82,1.77,12.58,4.52-4.93-1.3-9.96-1.95-14.98-2.67-.93-.12-1.9-.05-2.76-.54Z"/>
  <path class="cls-47" d="M106.23,123.58c1.31,5.12,2.62,10.23,3.92,15.35.12.45.1.86-.19,1.28-1.09,1.57-2.15,3.17-3.18,4.78-.38.6-.63.62-1.06.04-1.23-1.66-2.51-3.28-3.77-4.92-.24-.31-.49-.59-.35-1.08,1.47-5.17,2.92-10.34,4.37-15.51.09.02.17.04.26.06Z"/>
  <path class="cls-8" d="M156.58,44.51c-1.94-.3-3.74.47-5.57.82-8.07,1.58-16.1,3.29-24.43,5.01,2.01-2.48,3.76-4.83,5.79-6.96,8.58,0,17.16,0,25.74,0,.02.18.04.36.06.55-.53.19-1.05.39-1.58.58Z"/>
  <path class="cls-95" d="M80.55,43.41c2.26,2.1,3.98,4.66,6.01,6.96-.1.1-.2.2-.3.29-8.83-1.58-17.58-3.57-26.38-5.31-1.58-.31-3.09-.9-4.64-1.32-.19-.04-.38-.07-.57-.11,0-.07,0-.13,0-.2,8.62-.11,17.25-.21,25.87-.32Z"/>
  <path class="cls-47" d="M138.68,125.85c-5.21,4.06-10.37,8.2-15.67,12.16-2.41,1.8-5.38,2.63-8.04,4-.37-.61.09-.76.3-.97.55-.52,1.06-1.06,1.45-1.73,1.19-2.04,1.86-4.59,3.65-6.02,1.78-1.43,4.26-1.98,6.44-2.9,3.85-1.63,7.7-3.24,11.55-4.87.32-.11.39.04.33.32Z"/>
  <path class="cls-47" d="M72.49,125.43c.78-.3,1.19.09,1.63.28,5.48,2.3,10.94,4.64,16.41,6.93.88.37,1.45.92,1.95,1.75,1.48,2.48,2.44,5.3,4.66,7.35-9.78-3.05-16.37-10.82-24.65-16.31Z"/>
  <path class="cls-95" d="M97.47,40.05c-.25,0-.47-.06-.6-.29-.05-.68-.43-1.23-.72-1.81-2.9-5.83-5.81-11.65-8.72-17.47-.35-.71-.83-1.39-.63-2.26.13-.11.26-.11.39,0,3.97,4.03,7.93,8.06,11.91,12.08.35.36.74.68,1.11,1.01-.65,2.99-1.62,5.89-2.74,8.74Z"/>
  <path class="cls-8" d="M115.36,39.75c-.92-1.19-1.09-2.67-1.53-4.04-.48-1.48-.98-2.96-1.47-4.44.63-.07.9-.61,1.28-.99,3.74-3.8,7.47-7.62,11.21-11.42.34-.34.57-.84,1.13-.92.24.74-.13,1.36-.43,1.98-3.07,6.17-6.18,12.32-9.24,18.5-.25.5-.54.96-.95,1.35h0Z"/>
  <path class="cls-8" d="M55.24,44.04c4.27.84,8.54,1.66,12.8,2.53,5.64,1.15,11.27,2.33,16.9,3.48.5.1.99.18,1.32.62-2.05.87-3.94,2.02-5.75,3.31-.34-.6-1-.63-1.54-.83-7.5-2.86-15.01-5.7-22.52-8.55-.42-.16-.81-.38-1.21-.57Z"/>
  <path class="cls-95" d="M115.36,39.76c.23-.55.42-1.13.69-1.66,3.1-6.21,6.21-12.42,9.31-18.64.24-.49.42-1.02.63-1.52.74.52.25,1.19.16,1.76-.9,5.56-1.84,11.11-2.77,16.66-2.72,1.01-5.21,2.57-8,3.4Z"/>
  <path class="cls-96" d="M96.07,120.95h-19.06c3.48-2.64,6.67-5.07,9.87-7.5.5-.03.84.26,1.2.55,2.35,1.89,4.7,3.78,7.06,5.65.43.34.91.66.93,1.3Z"/>
  <path class="cls-8" d="M86.84,18.23c.93,1.95,1.83,3.9,2.79,5.83,2.39,4.81,4.82,9.61,7.18,14.43.16.33,1.06.82.05,1.26-2.61-1.19-5.23-2.39-7.84-3.58.66-1.09-.04-2.13-.19-3.16-.7-4.71-1.53-9.4-2.32-14.1-.07-.31-.27-.69.32-.69Z"/>
  <path class="cls-36" d="M124.47,113.41c3.16,2.43,6.32,4.87,9.8,7.54h-18.91c-.09-.42.2-.65.46-.87,2.55-2.11,5.12-4.2,7.68-6.3.28-.23.6-.37.96-.37Z"/>
  <path class="cls-75" d="M115.09,120.95c-6.31,0-12.61,0-18.92,0,.34-1.14,1.45-1.48,2.24-2.13,2.31-1.88,4.63-3.74,7.06-5.46.07-.02.14-.05.21-.07.07,0,.15,0,.22,0,.07.02.14.04.21.06,2.98,2.07,5.68,4.48,8.54,6.7.28.22.52.49.44.9Z"/>
  <path class="cls-47" d="M122.96,123.62c-2.61,4.76-5.12,9.58-7.88,14.26-1.24,2.1-3.34,3.53-5.26,5.12.69-.95,1.33-1.95,2.09-2.84.63-.74.7-1.44.41-2.34-.53-1.63-.95-3.28-1.43-4.93-.17-.57-.17-1,.43-1.42,3.83-2.67,7.63-5.39,11.44-8.09.07.08.14.15.21.23Z"/>
  <path class="cls-47" d="M101.18,142.48c-6.16-4.81-8.08-12.41-12.25-18.55.62-.4.95.01,1.3.26,3.38,2.38,6.74,4.78,10.12,7.14.61.43.87.8.59,1.61-.52,1.47-.79,3.02-1.31,4.49-.44,1.23-.26,2.21.61,3.15.47.5.82,1.11,1.23,1.66-.09.08-.19.16-.28.25Z"/>
  <path class="cls-8" d="M105.68,113.43c-3.17,2.51-6.35,5.01-9.52,7.52,0,0-.09,0-.09,0-3.06-2.5-6.12-5-9.19-7.5,0,0-.03,0-.03,0,.88-.42,1.82-.52,2.78-.52,4.53.01,9.06,0,13.58.01.84,0,1.73-.14,2.45.48Z"/>
  <path class="cls-36" d="M105.68,113.43c-6.27,0-12.55.02-18.82.02,3.22-2.5,6.44-5,9.66-7.5.21.04.42.07.61.18,2.55,1.93,5.02,3.98,7.51,5.98.42.34,1.09.58,1.01,1.33,0,0,.03-.02.03-.02Z"/>
  <path class="cls-8" d="M115.09,120.95c-2.84-2.3-5.69-4.59-8.53-6.9-.23-.18-.41-.42-.61-.63.63-.56,1.41-.47,2.15-.48,4.73-.02,9.47,0,14.2,0,.77,0,1.51.08,2.18.5,0,0,0-.02,0-.02-3.03,2.51-6.07,5.03-9.1,7.54,0,0-.14.04-.14.04l-.14-.04Z"/>
  <path class="cls-36" d="M124.48,113.44c-6.18,0-12.36,0-18.53-.01,0,0,.03.02.03.02-.13-.72.52-.93.9-1.24,2.54-2.05,5.04-4.14,7.65-6.1.19-.1.4-.14.61-.19,3.12,2.49,6.35,4.85,9.34,7.51Z"/>
  <path class="cls-82" d="M99.85,240.23c-4.83-.49-9.3-2.18-13.63-4.26-2.18-1.05-4.3-2.22-6.43-3.36-.47-.25-1.15-.61-.67-1.25.43-.57.88.08,1.29.29.71.37,1.38.86,2.12,1.15,1.99.77,3.08.09,3.43-2.01.1-.58-.07-1.22.43-1.85,4.02,4.72,9.28,7.74,14.41,10.94-.09.74-.59.36-.95.35Z"/>
  <path class="cls-82" d="M126.51,228.79c.12.81.19,1.25.26,1.7.44,2.65,1.72,3.29,4.14,2.04.67-.35,1.29-.79,1.93-1.18.26-.16.55-.31.81,0,.29.36.1.66-.18.91-.18.17-.4.3-.62.42-5.72,3.22-11.57,6.12-18.1,7.33-.35.06-.69.13-1.04.17-.69.08-1.38.15-2.12.11,5.2-3.43,10.67-6.46,14.93-11.5Z"/>
  <path class="cls-58" d="M96.86,105.83c2.8-2.2,5.61-4.39,8.41-6.6.42-.33.74-.36,1.18,0,2.79,2.22,5.61,4.41,8.41,6.61-.54.48-1.2.46-1.85.46-4.76,0-9.53,0-14.29,0-.65,0-1.32.05-1.85-.45Z"/>
  <path class="cls-97" d="M121.93,130.03c1.29-2.34,2.36-4.27,3.43-6.22.22-.41.43-.76,1-.76,3.74.02,7.49,0,11.3.33-5.1,2.16-10.2,4.31-15.72,6.65Z"/>
  <path class="cls-97" d="M74.35,123.07c3.72,0,7.45,0,11.17,0,.56,0,.79.31,1.02.73,1.06,1.95,2.14,3.89,3.42,6.22-5.45-2.3-10.55-4.45-15.65-6.6.01-.11.02-.22.04-.33Z"/>
  <path class="cls-26" d="M156.27,189.08c-1.34,0-1.77-.96-2.24-1.86-.45-.86-.19-1.55.51-2.13,1.36-1.12,2.69-2.29,4.11-3.32,1.29-.94,2.16-2.03,2.26-3.69.05-.89.35-1.77.55-2.66.09-.38.3-.68.73-.55.32.09.49.4.41.72-1.05,3.91-1.23,8.1-3.66,11.56-.67.96-1.54,1.74-2.67,1.92Z"/>
  <path class="cls-26" d="M57.38,197.81c-1.83-.38-3-1.82-3.85-3.5-1.47-2.89-2.02-6.1-2.98-9.17-.13-.41-.29-1.02.27-1.18.72-.21.82.49.86.94.24,3.47,2.28,5.62,5.12,7.26.82.48,1.56,1.11,2.31,1.7.66.52.93,1.16.52,1.99-.45.9-.8,1.89-2.24,1.97Z"/>
  <path class="cls-26" d="M50.18,175.97c-.03-.55-.09-.96.35-1.08.55-.15.64.33.78.7.02.05.04.1.03.15-.07,3.92,2.42,6.15,5.33,8.11.37.25.7.57,1.05.87,1.53,1.29,1.6,2.16.3,3.66-.88,1.01-1.99.95-3.29-.2-1-.88-1.68-1.98-2.19-3.21-1.2-2.96-1.56-6.13-2.36-8.99Z"/>
  <path class="cls-26" d="M158.43,195.62c-.51.49-.97,1.04-1.53,1.46-1.62,1.2-2.73.88-3.64-.88-.57-1.11-.33-1.91.65-2.6,1.48-1.06,2.89-2.21,4.42-3.19,1.19-.76,1.88-1.74,2.11-3.12.14-.84.43-1.66.64-2.49.11-.44.19-1.05.77-.9.65.17.46.76.31,1.27-.91,3.09-1.62,6.24-2.93,9.21.11.66-.3.98-.8,1.24Z"/>
  <path class="cls-26" d="M161.43,167.11c-.27,2.7-.17,5.45-.89,8.1-.39,1.44-1,2.76-2.12,3.76-.91.81-1.87.93-2.82,0-1.27-1.23-1.43-1.98-.48-3.1,1.23-1.47,2.49-2.92,3.83-4.28.91-.93,1.37-1.9,1.29-3.22-.06-1,.1-2.01.16-3.02.03-.37.12-.75.59-.71.47.04.5.44.49.8,0,.55-.05,1.11-.07,1.66Z"/>
  <path class="cls-26" d="M51.18,165.67c0-.24-.16-.93.51-.99.9-.08.68.76.64,1.22-.31,3.16.87,5.65,3.24,7.68.68.58,1.23,1.33,1.82,2.02,1.12,1.31,1.02,2.26-.36,3.47-.96.84-1.96.71-3.03-.41-1.59-1.67-2.04-3.79-2.28-5.96-.24-2.26-.35-4.53-.54-7.04Z"/>
  <path class="cls-63" d="M69.92,142.2c2.66.66,5.4.95,8.2,2.02-.66.39-1.18.23-1.67.22-1.79-.02-3.62-.33-5.28.73-.48.3-1.08.07-1.61-.07-4.97-1.28-9.71-3.21-14.48-5.06-.03-.25.13-.37.32-.45.4-.12.8-.11,1.2-.04.13.02.25.06.38.1.48.19.99.13,1.48.22.12.02.24.06.36.1.48.18.99.11,1.47.21.13.02.25.06.37.1.5.17,1.03.11,1.53.21.13.02.27.06.4.09.76.13,1.52.22,2.27.38.57.07,1.11.27,1.68.37.53.16,1.06.29,1.62.23.27-.03.54-.06.8,0,.35.18.67.4.95.67Z"/>
  <path class="cls-63" d="M68.96,141.63c-.2.1-.39.21-.59.31-.57-.43-1.28-.27-1.91-.47-.59-.19-1.19-.33-1.82-.31-.71-.51-1.6-.08-2.34-.44h.03c-.56-.39-1.28.09-1.85-.3l.03.02c-.56-.41-1.28.08-1.85-.32l.03.02c-.56-.41-1.27.07-1.83-.31h0c-.48-.32-1.03-.08-1.53-.17-.26-.06-.39-.21-.33-.48.5-.25,1.07.04,1.56-.21,4.39-.12,8.78-.35,13.17-.09,1.17.07,2.19.2,3.1,1.18.9.96,2.32,1.16,3.56,1.56.71.23,1.46.3,2.33.87-2.93.3-5.55-.44-8.2-.56-.48-.32-1.13.26-1.58-.28Z"/>
  <path class="cls-10" d="M119.34,123.36c-3.02,2.13-6.04,4.27-9.23,6.52-.6-2.11-1.16-4.06-1.72-6.01-.17-.58-.02-.81.62-.81,3.42.02,6.83,0,10.25,0,.03.1.05.2.08.3Z"/>
  <path class="cls-10" d="M92.76,123.07c3.36,0,6.72.01,10.08-.01.78,0,.81.38.65.95-.48,1.69-1,3.38-1.44,5.08-.17.67-.4.69-.91.33-2.82-2.01-5.66-4.01-8.49-6.02.03-.11.07-.22.1-.34Z"/>
  <path class="cls-4" d="M61.23,207.54c-1.38-.16-2.54-1.15-3.48-2.34-1.7-2.15-2.76-4.67-4-7.09-.41-.81-.8-1.63-1.2-2.44-.18-.37-.45-.77.05-1.04.64-.35.73.27.94.63.03.04.04.09.05.14,1.01,3.51,3.49,5.76,6.44,7.67.92.6,1.72,1.4,2.53,2.15.38.36.88.75.55,1.42-.33.67-.92.89-1.87.9Z"/>
  <path class="cls-26" d="M159.7,194.45c.74.13.88.49.54,1.17-1.49,2.97-2.89,5.99-4.65,8.82-.73,1.18-1.75,2.08-2.97,2.74-.6.32-1.21.49-1.89.3-1.18-.32-1.46-1.21-.66-2.13,1.34-1.54,3.04-2.66,4.7-3.78,1.98-1.33,3.26-3.1,3.93-5.35.27-.63.14-1.47.99-1.77Z"/>
  <path class="cls-26" d="M65.16,214.72c-1.12-.16-2.42-.82-3.53-1.81-2.39-2.14-3.96-4.97-6.06-7.36-.25-.28-.38-.63-.02-.94.35-.31.7-.13.93.15.54.66,1.09,1.33,1.53,2.07.9,1.51,2.2,2.43,3.84,2.99,1.62.55,3.2,1.23,4.63,2.21.62.43.88.93.54,1.67-.29.65-.67,1.14-1.85,1.01Z"/>
  <path class="cls-26" d="M147.23,214.76c-.81.1-1.22-.38-1.48-1.03-.27-.68-.15-1.25.52-1.7,1.35-.91,2.82-1.59,4.34-2.1,1.85-.61,3.32-1.63,4.29-3.34.27-.48.62-.92.97-1.35.33-.4.66-1.13,1.29-.61.66.54-.07.99-.37,1.38-1.58,2.03-3.15,4.07-4.81,6.04-1.24,1.46-2.83,2.41-4.75,2.72Z"/>
  <path class="cls-4" d="M70.71,222.58c-.88-.09-1.98-.6-3.02-1.23-3.09-1.87-5.06-4.91-7.58-7.37-.19-.18-.33-.43-.12-.66.24-.26.59-.22.82,0,.51.49,1.04.98,1.44,1.55,1.24,1.75,2.96,2.66,4.98,3.18,1.66.43,3.32.87,4.77,1.86.64.44,1,.99.76,1.8-.26.88-.95.94-2.05.87Z"/>
  <path class="cls-4" d="M78.08,229.89c-2.22-.15-4.13-1.16-5.87-2.47-1.92-1.46-3.72-3.08-5.57-4.63-.26-.22-.64-.44-.3-.85.31-.37.63-.13.93.06.08.05.17.11.23.19,2.28,2.77,5.4,3.69,8.79,4.02.92.09,1.72.53,2.54.92.75.36,1.27.85,1.06,1.76-.22.98-1.02.97-1.82,1.01Z"/>
  <path class="cls-26" d="M141.45,222.62c-.67.04-1.22-.17-1.45-.84-.23-.68-.06-1.27.56-1.73,1.16-.85,2.47-1.38,3.85-1.67,2.83-.59,5.14-1.93,6.81-4.33.22-.32.55-.59.87-.82.21-.15.51-.11.69.09.22.24.05.47-.13.64-2.49,2.41-4.42,5.38-7.42,7.27-1.16.73-2.37,1.32-3.78,1.37Z"/>
  <path class="cls-4" d="M134.63,229.87c-.72-.02-1.47,0-1.73-.87-.29-.95.26-1.46,1.04-1.9,1.21-.68,2.52-1.02,3.87-1.16,2.58-.27,4.89-1.05,6.66-3.08.36-.41.84-.72,1.28-1.04.24-.17.49-.08.67.13.21.24.12.48-.1.64-3.08,2.31-5.58,5.43-9.35,6.78-.76.27-1.53.5-2.35.5Z"/>
  <path class="cls-33" d="M113.49,89.06c-3.74-2.21-6.42-4.96-6.75-9.37,4.43.98,6.78,4.18,6.75,9.37Z"/>
  <path class="cls-4" d="M59.61,183.76c-1.2.06-1.91-1.14-1.34-2.16.47-.83,1.01-1.65,1.7-2.3,2.49-2.37,3.97-5.25,4.69-8.58.1-.45.06-1.21.76-1.07.75.16.51.8.32,1.36-.85,2.58-1.66,5.17-2.51,7.75-.5,1.49-1.26,2.85-2.3,4.04-.4.46-.86.84-1.33.95Z"/>
  <path class="cls-74" d="M59.85,175.22c-.99-.01-1.65-1.2-1.18-2.12.52-1,1.28-1.83,2.11-2.55,2.49-2.14,4.02-4.83,4.88-7.97.13-.47.1-1.35.86-1.15.87.23.41.98.21,1.51-.9,2.4-1.81,4.8-2.75,7.19-.63,1.61-1.49,3.08-2.75,4.3-.41.39-.85.71-1.38.79Z"/>
  <path class="cls-74" d="M147.35,178.37c-.11-.47.04-.81.53-.89.52-.08.51.35.59.69.01.05.02.1.03.15.14,4.06,2.08,7.36,4.36,10.55.65.91,1.61,2.06.14,3.15-.85.63-1.73.07-2.7-1.66-1.63-2.94-1.75-6.28-2.49-9.45-.19-.83-.31-1.68-.46-2.53Z"/>
  <path class="cls-4" d="M152.43,200.29c.02.74-.34,1.18-.96,1.43-.76.3-1.27-.12-1.66-.68-1.19-1.7-1.67-3.66-1.94-5.67-.33-2.45-.59-4.91-.88-7.37-.06-.51-.17-1.1.55-1.17.72-.07.58.58.58.98.01,3.59,1.11,6.81,3.14,9.75.56.82,1.03,1.74,1.17,2.72Z"/>
  <path class="cls-4" d="M65.71,188.46c-.46,2.97-.57,6.05-1.25,9.05-.29,1.28-.78,2.5-1.56,3.57-.45.62-1.03,1.02-1.81.58-.75-.42-1.02-1.02-.68-1.9.59-1.51,1.34-2.95,2.25-4.26,1.21-1.73,1.6-3.64,1.74-5.67.03-.5-.03-1.04.14-1.5.19-.52-.33-1.6.74-1.47.89.11.3.99.41,1.59Z"/>
  <path class="cls-4" d="M153.23,183.77c-.51-.04-.91-.43-1.29-.83-1.08-1.16-1.86-2.51-2.36-4-.89-2.61-1.73-5.25-2.58-7.87-.17-.52-.42-1.22.31-1.4.67-.16.69.59.78,1.05.67,3.35,2.2,6.19,4.68,8.57.71.68,1.27,1.57,1.75,2.44.5.91-.23,2.06-1.29,2.04Z"/>
  <path class="cls-4" d="M65.4,178.45c-.91,3.65-1.04,7.48-2.52,11-.31.73-.76,1.42-1.24,2.06-.44.58-1.03,1.05-1.81.56-.79-.49-1.03-1.15-.59-2.06.71-1.45,1.54-2.86,2.56-4.08,1.71-2.03,1.86-4.49,2.32-6.9.05-.25.04-.5.09-.75.09-.38.13-.89.69-.8.5.08.54.53.5.97Z"/>
  <path class="cls-4" d="M154.27,173.66c-.05.61-.26,1.04-.72,1.35-.56.37-1.08.19-1.53-.16-1.26-.98-2.19-2.25-2.79-3.7-1.17-2.83-2.23-5.71-3.35-8.56-.19-.48-.27-.95.27-1.14.66-.23.67.4.83.8.02.05.04.09.06.14.83,3.37,2.57,6.16,5.19,8.45.89.78,1.75,1.67,2.04,2.84Z"/>
  <path class="cls-74" d="M128.08,229.87c.04-.87.28-1.69.63-2.47,1-2.25,2.08-4.46,3.35-6.58.16-.27.3-.73.76-.53.33.14.38.5.17.76-1.95,2.41-1.15,5.28-1.35,7.98-.03.4-.08.8-.13,1.2-.18,1.3-1.09,1.6-2.19,1.52-1.15-.09-1.26-.96-1.23-1.88Z"/>
  <path class="cls-26" d="M84.74,230.01c-.07.87-.23,1.65-1.29,1.73-1.13.09-2.07-.29-2.21-1.53-.14-1.35-.13-2.71-.11-4.07.03-1.68,0-3.32-1.17-4.71-.26-.3-.63-.85,0-1.14.5-.24.66.35.83.66,1.42,2.6,2.98,5.13,3.75,8.03.09.34.14.69.2,1.03Z"/>
  <path class="cls-74" d="M72.32,214.48c-.06,2.34-.6,2.89-2.12,2.64-1.08-.18-1.61-.77-1.4-1.9.16-.89.32-1.78.51-2.67.41-2.01,1.12-4.01.03-6.04-.14-.26-.27-.73.2-.9.36-.13.55.2.64.49.97,2.91,1.82,5.86,2.16,8.39Z"/>
  <path class="cls-74" d="M145.16,204.32c.09-1.9.16-3.26.23-4.61.02-.3.04-.65.41-.71.41-.06.54.31.48.59-.65,3.23,1.49,5.61,2.5,8.34.56,1.5.31,2.12-1.04,2.56-1.05.35-1.73.07-2.08-1.03-.6-1.86-.46-3.77-.5-5.13Z"/>
  <path class="cls-74" d="M140.43,214.6c.38-2.81,1.2-5.71,2.18-8.56.1-.3.25-.57.63-.49.32.07.39.4.28.6-1.56,3.02.11,5.9.37,8.83.14,1.64-.58,2.37-2.17,2.16-1.5-.2-1.13-1.4-1.29-2.54Z"/>
  <path class="cls-26" d="M136.19,225.15c-1.81.03-2.4-.57-2.14-2.02.59-3.29,2.4-6.06,3.9-8.95.11-.22.3-.45.6-.3.34.17.37.52.18.77-2.02,2.65-1.04,5.73-1.24,8.63-.08,1.11-.37,1.88-1.31,1.87Z"/>
  <path class="cls-74" d="M56.13,170.72c-2.11-1.13-2.93-2.91-1.72-4.65,2.1-3.04,3.04-6.39,3.35-9.99.03-.39.04-.92.57-.89.49.03.39.53.33.85-.78,4.82-1.57,9.63-2.37,14.44-.01.08-.1.15-.16.23Z"/>
  <path class="cls-57" d="M158.8,167.31c-.02.79-.11,1.34-.41,1.82-.43.69-.93,1.61-1.72,1.51-.66-.08-.38-1.13-.49-1.74-.69-4.02-1.34-8.06-1.99-12.09-.05-.3-.08-.6-.09-.9,0-.28-.12-.67.32-.71.37-.03.5.33.55.61.24,1.39.57,2.78.62,4.18.06,1.63.92,2.83,1.69,4.14.63,1.07,1.47,2.07,1.53,3.17Z"/>
  <path class="cls-26" d="M67.4,204.1c.02,1.75.3,3.51-.27,5.24-.41,1.24-1.15,1.55-2.31,1.09-1.06-.42-1.52-1.11-.99-2.24.56-1.18,1.07-2.39,1.66-3.55.75-1.46,1.36-2.91.96-4.61-.09-.38-.13-.96.35-1.01.65-.07.56.62.57,1.01.05,1.36.02,2.72.02,4.07Z"/>
  <path class="cls-26" d="M75.33,220.56c.06-1.97.18-3.94-1.18-5.62-.24-.3-.47-.76.04-1.03.46-.24.61.25.77.52,1.38,2.46,2.69,4.97,3.58,7.64.72,2.17.05,3.2-1.79,3.08-.89-.06-1.42-.47-1.42-1.41,0-1.06,0-2.12,0-3.18Z"/>
  <path class="cls-86" d="M155.35,170.84c-3.19-1.9-3.82-3.25-2.78-6.36.93-2.77-.2-5.37-.36-8.05-.01-.2-.1-.39-.12-.59-.02-.38-.24-.93.33-.99.52-.05.49.51.55.9.78,4.97,1.56,9.93,2.37,15.09Z"/>
  <path class="cls-57" d="M57.4,170.78c.82-5.19,1.6-10.17,2.39-15.15.05-.34.09-.85.52-.8.57.07.38.58.32.98-.18,1.2-.28,2.41-.52,3.6-.38,1.91-.4,3.73.22,5.64.84,2.58-.03,4.15-2.92,5.74Z"/>
  <path class="cls-92" d="M96.86,105.83c6,0,12,0,17.99,0,.1.03.19.07.29.1-.11.09-.22.17-.34.26-.73.4-1.52.47-2.34.47-4.43,0-8.86,0-13.28,0-.82,0-1.61-.06-2.34-.47-.11-.08-.22-.16-.32-.23.11-.04.23-.08.34-.12Z"/>
  <path class="cls-5" d="M116.26,75.58c2.56.02,5.13-.27,7.67.22-1.96.01-3.93.02-5.89.05-.49,0-1.02-.16-1.44.24-.45.04-.9.03-1.31-.21.25-.35.69-.06.97-.3Z"/>
  <path class="cls-52" d="M56.57,138.95c-.44.37-.99.18-1.49.29-.18.39-.57.39-.92.47-.3-.12-.6-.24-1.18-.48,1.39-.41,2.49-.36,3.58-.29Z"/>
  <path class="cls-43" d="M111.43,77.4c.92.18,1.84.36,2.76.54-.11.09-.22.18-.33.27-.82-.22-1.81.03-2.42-.81Z"/>
  <path class="cls-78" d="M159.7,194.45c-.33.59-.66,1.18-.99,1.77-.09-.2-.18-.39-.27-.59.27-.41.54-.83.8-1.24.15.02.31.04.46.06Z"/>
  <path class="cls-94" d="M68.96,141.63c.54,0,1.09-.02,1.58.28-.21.1-.41.19-.62.29-.44,0-.94.12-.96-.57Z"/>
  <path class="cls-39" d="M86.84,18.23c-.11.23-.22.46-.32.69-.3-.43-.28-.91-.25-1.46.51.04.7.42.92.75-.11,0-.23.01-.34.02Z"/>
  <path class="cls-76" d="M99.85,240.23c.31-.15.74.05.95-.35.16.11.41.2.44.33.06.28-.22.26-.4.25-.35,0-.71.01-1-.24Z"/>
  <path class="cls-1" d="M130.72,86.21c.14-.13.27-.25.41-.38.37.14.65.36.75.8-.47.07-.83-.13-1.16-.42Z"/>
  <path class="cls-24" d="M54.17,139.72c.31-.16.61-.32.92-.47.1.1.19.2.29.29.08.06.11.12.08.17-.03.06-.06.08-.09.08-.1.08-.2.16-.3.24-.3-.11-.6-.21-.9-.32Z"/>
  <path class="cls-11" d="M134.14,55.53c.11-.11.21-.21.32-.32.33.1.61.24.75.7-.48.16-.78-.09-1.07-.37Z"/>
  <path class="cls-87" d="M96.25,102.8c.12.12.24.24.37.37-.18.25-.35.71-.69.42-.21-.18.03-.59.33-.78Z"/>
  <path class="cls-83" d="M102.65,144.09c-.44-.32-.76-.46-.81-.92.54-.07.63.3.81.92Z"/>
  <path class="cls-50" d="M138.68,125.85c-.11-.11-.22-.22-.33-.32.22-.29.65-.53.82-.29.29.4-.22.48-.5.61Z"/>
  <path class="cls-93" d="M111.42,260.1c-.36.52.82,1.75-.47,1.85-1.24.1-.65-1.19-.74-1.85-.26-1.89-.36-3.81-.58-5.71-.11-.9.05-1.47,1.11-1.41.87.05,1.98-.48,2.5.49.56,1.05.8,2.27.13,3.45-.09.16-.54.25-.18.52,1.21.92.7,2.29.95,3.46.08.37.19.82-.47.86-.65.04-.73-.34-.77-.84-.04-.6-.14-1.2-.2-1.8-.06-.58-.11-1.15-.92-1.06-.91.1-.33.76-.4,1.16-.04.24.02.5.05.86Z"/>
  <path class="cls-32" d="M119.15,251.81c1.24,0,2.33,2.05,1.85,3.45-.2.56-.34.76.21,1.33.84.86.63,2.28,1.01,3.42.09.28-.23.39-.48.45-.42.11-.7-.04-.8-.45-.16-.64-.28-1.28-.43-1.92-.14-.58-.21-1.34-1.06-1.14-.88.2-.37.89-.31,1.37.09.65.27,1.28.42,1.92.13.53-.14.72-.61.82-.53.11-.55-.25-.63-.6-.54-2.51-1.07-5.03-1.64-7.53-.11-.5.1-.62.49-.7.69-.14,1.38-.29,1.97-.42Z"/>
  <path class="cls-80" d="M153.83,243.48c-1.96,1.58-3.11-.9-4.89-.77.68.82,1.31,1.58,1.93,2.34.25.3.58.58.11,1.01-.52.48-.79.12-1.09-.24-1.55-1.85-3.11-3.71-4.66-5.56-.29-.35-.65-.62-.07-1.09.6-.48.79.02,1.06.34.59.68,1.15,1.38,1.73,2.08.52-1.56-1.58-3.13.21-4.85-.13,4.01,2.24,5.77,5.67,6.74Z"/>
  <path class="cls-90" d="M125.12,250.97c-.15-.66.11-.92.63-1.08.55-.17.83.06,1.08.51,1.23,2.19,2.47,4.38,3.69,6.58.13.24.6.55,0,.83-.46.22-.78.27-1.1-.28-.3-.5-.27-1.44-1.15-1.33-.85.1-1.71.35-1.34,1.59.17.57.41,1.31-.53,1.37-.89.06-.54-.81-.59-1.22-.29-2.35-.48-4.71-.7-6.96Z"/>
  <path class="cls-90" d="M101.47,261.61c.64-2.71,1.24-5.2,1.8-7.7.13-.55.42-.7.96-.7.59,0,.75.28.84.81.43,2.48.91,4.95,1.36,7.42.06.3.34.73-.25.83-.4.07-.82.08-.91-.5-.04-.3-.18-.59-.17-.89.03-.83-.42-.95-1.14-.99-.79-.04-1.1.26-1.12,1,0,.25-.14.49-.17.73-.05.56-.41.64-.85.57-.57-.08-.36-.48-.35-.59Z"/>
  <path class="cls-80" d="M96.04,255.33c1.21-.52.71-2.85,3.08-2.31-2.62,2.63-2.88,5.48-1.29,8.52-1.14.43-1.47,0-1.63-.94-.12-.66-.1-1.4-.63-2.1-.47.79-.93,1.49-1.31,2.23-.27.54-.68.62-1.11.39-.63-.33.07-.63.1-.95,0-.05.04-.09.07-.13,1.74-2.05,2.18-4.29,1.05-6.8-.12-.27-.58-.77.15-.92.49-.1.88.08.99.65.16.79.35,1.57.52,2.36Z"/>
  <path class="cls-93" d="M151.7,234.62c.32.28.65.51.91.81.68.75,1.32,1.25,2.06.07.14-.22.35-.54.71-.25.24.2.52.49.21.74-1.76,1.42-.07,1.99.66,2.8.13.15.31.26.56.46.33-.38.66-.76.99-1.13.21-.23.41-.45.73-.11.22.24.39.45.1.76-.56.58-1.11,1.16-1.65,1.77-.37.42-.61.11-.86-.13-1.84-1.71-3.67-3.45-5.53-5.14-.46-.42-.43-.7,0-1.09.37-.34.66-.77,1.05-1.09.32-.26.51-1.09,1.14-.44.58.6-.21.83-.43,1.2-.15.25-.38.46-.64.78Z"/>
  <path class="cls-84" d="M74.19,250.45c-.73.46-.86,1.35-1.32,2.03-.44.66.21.71.51.96.33.28,1.18.2.86.94-.39.9-.91.1-1.36-.03-.33-.1-.61-.36-.94-.48-.77-.29-.95-.66-.5-1.44,1.12-1.97,2.19-3.97,3.2-6,.41-.83.81-1.07,1.58-.5.16.12.39.16.52.3.39.42,1.59.26,1.18,1.18-.41.93-1.02,0-1.47-.19-.96-.42-1.03.41-1.22.87-.2.49-1.11.96-.16,1.63.37.26,1.33.21.95,1.01-.46.97-.98-.05-1.48-.11-.1-.01-.18-.08-.37-.16Z"/>
  <path class="cls-84" d="M63.67,248.66c-.87-.66-1.79-1.17-2.41-1.92-.38-.45.41-.91.71-1.33,1.24-1.71,2.55-3.37,3.78-5.09.47-.65.84-.91,1.5-.25.39.39.87.68,1.32,1.01.29.22.56.4.26.84-.31.46-.63.29-.85.03-1.15-1.33-1.66-.29-2.31.54-.49.63-.44,1,.22,1.43.3.2.95.37.49,1.01-.47.66-.82.06-1.07-.17-1.16-1.09-1.37.2-1.85.72-.52.56-1.11,1.14.01,1.74.3.16.83.3.65.85-.07.2-.28.36-.46.58Z"/>
  <path class="cls-73" d="M59.61,238.02c1.12.15,2-.54,2.97-.9.7-.26,1.14-.16,1.65.76-3.91.27-5.47,2.78-5.77,6.32-1.18-.31-1.22-.92-.93-1.75.33-.94.87-1.82.85-2.86-.17-.99.34-1.43,1.24-1.58Z"/>
  <path class="cls-17" d="M59.61,238.02c-.5.46-1.04.88-1.24,1.58-.9.34-1.29,1.22-1.97,1.8-.3.26-.48.82-1.06.3-.5-.46-.26-.74.08-1.1,1.69-1.8,3.38-3.6,5.05-5.41.3-.32.54-.56.97-.14.41.39.3.65-.03.99-.62.65-1.21,1.33-1.81,1.99Z"/>
  <path class="cls-15" d="M145.4,249.85c.07.37-.15.59-.45.68-.43.12-.46-.26-.55-.54-.86-2.52-1.71-5.05-2.57-7.57-.15-.43-.18-.79.3-1.01.45-.21.48.16.58.43.88,2.57,1.75,5.14,2.62,7.72.03.09.04.2.07.3Z"/>
  <path class="cls-18" d="M137.34,244.58c.39.01.38.35.45.64.58,2.59,1.16,5.19,1.76,7.78.12.52.03.95-.52,1.04-.56.1-.4-.48-.47-.74-.59-2.49-1.14-4.99-1.69-7.49-.11-.49-.29-1.02.46-1.23Z"/>
  <path class="cls-41" d="M86.39,259.66c-.47-.05-.58-.28-.33-.7,1.47-2.41,2.95-4.82,4.42-7.23.2-.34.47-.33.77-.21.43.17.28.45.11.72-1.42,2.32-2.84,4.65-4.26,6.97-.15.25-.31.55-.71.45Z"/>
  <path class="cls-15" d="M53.27,236.62c-.08-.14-.16-.32-.26-.49-.17-.29.02-.46.21-.64,1.39-1.32,2.79-2.63,4.18-3.95.33-.32.59-.3.86.06.21.27.51.5.08.86-1.51,1.27-2.99,2.55-4.49,3.83-.11.09-.25.15-.58.35Z"/>
  <path class="cls-53" d="M81.19,249.85c-.27-.29-1.04-.09-.9-.76.08-.36.07-1.06.71-.94.36.07,1.05.09.93.72-.07.36-.07.96-.75.97Z"/>
  <path class="cls-51" d="M78.04,255.14c.47.27,1.14.16,1.05.8-.06.38-.09,1.03-.76.89-.33-.07-.9-.08-.85-.64.03-.41.2-.83.56-1.04Z"/>
  <path class="cls-79" d="M51.98,237.99c-.32-.22-.72-.45-.62-.91.07-.33.38-.68.76-.56.35.11.76.4.66.84-.07.31-.37.58-.79.62Z"/>
  <path class="cls-22" d="M72.96,180.86c.15-7.18,1.3-13.74,3.63-20.1.41-1.12.99-1.65,2.2-1.87,8.81-1.6,17.61-3.32,26.42-4.92,2.27-.41,4.48.45,6.69.84,6.94,1.21,13.84,2.59,20.78,3.8,2.11.37,3.34,1.17,4.06,3.42,6.38,20.08,2.85,38.32-10.03,54.81-5.15,6.59-11.46,11.9-18.69,16.12-1.14.67-2.03.65-3.16-.03-16.16-9.74-27.03-23.36-30.89-42.11-.7-3.41-.89-6.9-1-9.95Z"/>
  <path class="cls-77" d="M93.75,74.41c2.27-3.84,5.61-4.51,8.85-3.99.82.13,1.52.49.56,1.45-.31.31-.66.71-.74,1.12-.43,2.11-1.78,1.7-3.32,1.48-1.66-.24-3.38-.05-5.35-.05Z"/>
  <path class="cls-66" d="M116.26,75.58c-.26.32-.65.18-.97.3-.57-.03-1.14-.06-1.71-.08-.03-.58.31-.39.61-.3.69.03,1.38.06,2.08.09Z"/>
  <path class="cls-88" d="M114.18,75.49c-.2.1-.4.2-.61.3-.44.03-.89.13-1.22-.46.67-.2,1.25-.12,1.83.16Z"/>
  <path class="cls-8" d="M96.84,106.18c5.99,0,11.97,0,17.96,0-2.94,2.42-5.89,4.84-8.83,7.26-.11,0-.21,0-.32,0-2.94-2.42-5.87-4.84-8.81-7.26Z"/>
  <path class="cls-34" d="M66.56,141.34c.64.09,1.44-.31,1.81.59-.58-.22-1.28.16-1.81-.35-.11-.05-.14-.11-.11-.16.03-.06.07-.08.1-.08Z"/>
  <path class="cls-61" d="M62.3,140.72c.83,0,1.68-.14,2.45.33.09.06.13.11.1.17-.03.06-.06.09-.09.09-.81-.24-1.72-.04-2.45-.58Z"/>
  <path class="cls-6" d="M64.76,141.3c-.02-.09-.02-.17,0-.26.63-.07,1.24,0,1.81.3,0,.08,0,.16,0,.24-.6-.1-1.21-.19-1.81-.29Z"/>
  <path class="cls-46" d="M60.48,140.41c.61.13,1.32-.29,1.85.32-.62-.06-1.31.23-1.85-.32Z"/>
  <path class="cls-38" d="M56.87,139.82c.61.11,1.3-.28,1.83.31-.61-.08-1.29.23-1.83-.31Z"/>
  <path class="cls-65" d="M58.67,140.11c.61.12,1.32-.28,1.85.32-.62-.09-1.31.25-1.85-.32Z"/>
  <path class="cls-91" d="M55.37,139.79c0-.09,0-.17,0-.25.51,0,1.07-.22,1.5.28-.5,0-1-.02-1.5-.02Z"/>
  <path class="cls-67" d="M112.45,255.63c.01.64.05,1.22-.74,1.3-.93.09-.47-.66-.63-1.04-.02-.04-.03-.1-.01-.15.18-.56-.79-1.54.44-1.68,1.28-.15.69,1.05.95,1.57Z"/>
  <path class="cls-56" d="M119.85,254.71c.1.73-.16,1.06-.66,1.19-.73.18-.63-.44-.77-.83-.02-.05-.02-.1-.02-.15.04-.63-.62-1.24-.08-1.84.14-.16.63-.2.84-.08.73.41.41,1.29.7,1.71Z"/>
  <path class="cls-62" d="M126.06,251.6c1.01,1.1,1.32,2.1,1.84,2.96.36.6-.12.67-.49.77-.35.09-.77.33-.85-.37-.1-.97-.28-1.92-.5-3.36Z"/>
  <path class="cls-21" d="M103.98,255.09c.65,1.07.51,2.21.76,3.26.14.6-.32.6-.75.59-.45,0-.81-.06-.68-.66.22-1.02.43-2.04.67-3.18Z"/>
  <path class="cls-99" d="M109.29,171.63c1.22-.24,1.79.7,2.45,1.41.58.62,1.09,1.3,1.71,2.06.33-.66.9-1.07.37-1.89-.74-1.14-.44-1.82.9-2.07.68-.13,1.4-.05,2.1-.06.28.08.48.08.32-.3-1.6-.26-1.59-.25-.63-1.48.89-1.14,2.04-1.77,3.47-1.89.48-.04,1.08.13,1.1-.66.02-.81-.58-.41-.96-.51-1.07-.3-1.27-1.11-.9-2,.37-.88.93-1.66.7-2.69-.09-.42.18-.53.63-.59,1.44-.19,2.77.16,3.98.84.98.55.97,1.91.09,2.73-.33.31-.77.5-1.07.83-.83.93-.44,2.15.74,2.35,1.37.23,2.68.52,3.49,1.81.05.08.13.16.21.21,2.02,1.25,2.03,1.28.38,2.82.11.26-.05.41-.23.55-.6.31-1.22.5-1.9.35-.73.31-.72,1.04-.91,1.64-1.2,3.6-1.72,7.36-2.66,11.02-.2.77-.51,1.39-1.03,1.96-.76,1.01-1.67,1.77-2.94,2.04-1.4.04-1.06-1.16-1.17-1.84-.46-2.79-.48-5.62-.44-8.45.02-1.69,0-3.37,0-5.15-.87.48-1.38,1.45-2.13,2.13-1.3,1.18-2.22,1.28-3.61.26-1.34-.99-2.07-2.45-2.88-3.84-.39-.67.43-.8.51-1.25-.1-.28.03-.36.29-.32Z"/>
  <path class="cls-99" d="M84.13,172.27c-1.36-1.48-1.13-1.29.47-2.55,1.4-1.1,2.75-1.87,4.49-2.14.71-.11.8-1.53.18-2.2-.3-.33-.73-.53-1.07-.83-1.04-.96-.82-2.33.46-2.94.86-.41,1.77-.68,2.72-.72.93-.04,1.86,0,1.49,1.41-.15.59.27,1.03.53,1.52.74,1.35.4,2.09-1.14,2.38-.38.07-.53.18-.53.54,0,.54.32.69.78.67,1.46-.04,2.63.61,3.59,1.64,1.22,1.31,1.17,1.44-.54,2.01.68,0,1.37-.04,2.05,0,1.69.13,2.1.81,1.31,2.23-.4.71.16,1.09.3,1.86.91-1.03,1.69-1.9,2.47-2.77.41-.45.82-.91,1.52-.77.35-.09.52.06.55.41.6.43.84.89.35,1.61-.84,1.24-1.5,2.63-2.8,3.51-1.2.82-2.31.85-3.37-.26-.72-.76-1.49-1.46-2.24-2.19-.42.14-.29.48-.26.75.43,4.17.44,8.35-.16,12.49-.11.74.4,2.1-1.17,2.15-1.27-.25-2.19-1.03-2.94-2.03-.57-.58-.86-1.26-1.06-2.07-.92-3.63-1.43-7.36-2.64-10.92-.19-.57-.12-1.34-.9-1.6-.36.21-.67,0-.99-.11-.53-.31-1.17-.47-1.45-1.1Z"/>
  <path class="cls-99" d="M93.74,191.08c.01,1.59.59,3,1.25,4.44,1.19,2.59,2.31,5.22,2.39,8.16.02.62.35,1.22.57,1.94-1.47-.05-2.6-.29-3.57-1.53-1.18-1.52-2.21-3.09-2.99-4.84-.5-.47-.74-1.11-1.05-1.7-.06-.12-.11-.24-.15-.37-.23-.7-.65-1.26-1.24-1.7-.19-.2-.36-.42-.23-.72-.07-.3-.35-.31-.56-.42-1.17-.61-2.43-1.13-1.95-2.89.53-1.95,1.88-3.09,3.71-3.04,1.53.53,2.84,1.37,3.82,2.68Z"/>
  <path class="cls-99" d="M122.92,188.4c1.98-.05,3.89,1.82,3.8,3.75-.04.97-.64,1.54-1.48,1.87-.49.19-1.07.2-1.41.7.18.15.19.34.13.55-.22.35-.59.53-.86.83-.43.42-.67.95-.88,1.49-.25.56-.33,1.19-.78,1.65-.79,1.8-1.8,3.44-3.09,4.94-.53.62-1.07,1.12-1.82,1.4h.03c-.5,0-.99,0-1.49,0,.42-3.81,1.34-7.47,3.16-10.86.61-1.15.79-2.38.87-3.64.99-1.3,2.3-2.15,3.83-2.68Z"/>
  <path class="cls-99" d="M97.6,219.85c-2.4.04-4.06-.73-5.41-2.53-1.99-2.67-4.2-5.17-4.85-8.58,0-.05-.04-.1-.04-.14.03-.78-.68-1.79.31-2.28.93-.46,2.82.56,3.18,1.51.99,2.58,2.03,5.15,2.93,7.77.41,1.18,1.09,1.86,2.27,2.16.58.15,1.15.39,1.68.67.48.26,1.38.34,1.16,1.12-.19.65-.97.26-1.23.31Z"/>
  <path class="cls-99" d="M115.18,219.87c-.3-.05-.99.27-1.19-.31-.24-.74.57-.95,1.01-1.04,3.13-.59,4.32-2.85,5.13-5.59.54-1.83,1.31-3.59,2-5.37.26-.68,2.61-1.58,3.24-1.25.47.24.31.71.29,1.08-.15,2.49-1.13,4.68-2.54,6.68-.81,1.15-1.83,2.16-2.59,3.34-1.24,1.93-3.07,2.45-5.35,2.46Z"/>
  <path class="cls-23" d="M97.46,206.83c.92.29,1.36.91,1.64,1.87.59,2.06,1.28,4.1,1.92,6.15.46,1.49,1.43,2.18,2.61,2.86.39.23,1.11.46.76,1.08-.25.43-.82.11-1.24-.06-.79-.33-1.58-.64-2.44-.77-.45-.07-.85-.29-1.13-.69-1.64-2.32-3.17-4.71-4.38-7.28-.23-.5-.37-1.04-.49-1.58-.38-1.71-.13-1.95,1.58-1.64.39.07.8.05,1.2.08h-.02Z"/>
  <path class="cls-23" d="M115.35,206.83c.45-.04.9-.03,1.35-.11,1.5-.28,1.8-.01,1.46,1.53-.64,2.84-2.54,5.05-3.85,7.55-1.16,2.23-3.36,2.28-5.2,3.11-.18.08-.58.01-.68-.13-.2-.28-.03-.62.27-.74,3.38-1.36,3.46-4.7,4.47-7.47.22-.61.47-1.24.57-1.88.15-1,.71-1.58,1.63-1.87h-.02Z"/>
  <path class="cls-23" d="M86.53,173.86c-.27,1.43-.99,2.65-1.92,3.72-.85.99-1.16,2.05-1.09,3.33.1,1.62-.17,3.21-.63,4.77-.24.83-.82.89-1.51.86-.8-.04-.8-.63-.82-1.19-.03-.86-.21-1.76,0-2.56.79-3.11,1.63-6.2,2.25-9.35.08-.42.17-1.23,1.05-.89.57.19,1.11.44,1.65.7.37.15.79.22,1.02.61Z"/>
  <path class="cls-23" d="M128.11,172.86c.1-.1.2-.21.29-.31.69-.07,1.47-.23,1.59.77.46,3.92,2.43,7.53,2.34,11.59-.02,1.07-.55,1.38-1.36,1.55-1,.21-.95-.68-1.14-1.24-.48-1.45-.61-2.96-.53-4.47.06-1.17-.24-2.15-1-3.06-.94-1.12-1.73-2.35-2-3.84.41-.69,1.33-.43,1.8-.99Z"/>
  <path class="cls-19" d="M90.49,197.09c0,.08,0,.16,0,.24.12.66.67,1.19.61,1.92-.47,1.63-.93,3.27-1.41,4.9-.11.37.24,1.13-.49.99-.65-.12-1.56.26-1.92-.76-1.13-3.17-.52-6.21.59-9.23.16-.44.49-.43.86-.38.09.16.17.33.26.49.73.43.91,1.31,1.52,1.84Z"/>
  <path class="cls-19" d="M123.86,195.26c0-.18-.02-.35-.03-.53.68-.07,1.05.12,1.3.87.94,2.78,1.39,5.51.53,8.43-.35,1.18-1.13.95-1.84,1.09-1.06.22-.57-.68-.7-1.1-.49-1.59-.94-3.18-1.4-4.78-.18-.67.37-1.14.44-1.74.16-.38.34-.74.57-1.09.33-.42.67-.85,1.12-1.16Z"/>
  <path class="cls-7" d="M107.79,170.66c-.79.35-1.69-.14-2.47.29-.46-.07-.73-.33-.8-.8-.4-.71-.39-1.38.4-1.78.97-.49,2.01-.49,2.98,0,.79.4.8,1.07.4,1.78-.04.3-.21.47-.51.51Z"/>
  <path class="cls-81" d="M82.39,188.15c-.08,1.14-.37,2.09-1.55,2.2-.68.06-1.49-.43-1.26-1.14.29-.95.78-2.09,1.86-2.33.76-.17.96.69.96,1.28Z"/>
  <path class="cls-81" d="M130.46,188.33c-.08-.69.13-1.26.68-1.44.61-.21.99.28,1.24.82.04.09.07.19.13.27.43.57,1.27,1.04.52,1.9-.34.39-.79.65-1.35.44-.96-.35-1.19-1.15-1.23-1.99Z"/>
  <path class="cls-3" d="M122.92,188.4c-1.28.89-2.55,1.79-3.83,2.68-.94-.01-.63-.51-.37-.98.98-.68,1.96-1.36,2.94-2.04.4.17,1.15-.92,1.25.34Z"/>
  <path class="cls-45" d="M93.74,191.08c-1.27-.89-2.55-1.79-3.82-2.68.11-1.27.86-.16,1.26-.34.98.68,1.96,1.36,2.95,2.03.26.48.55.97-.38.99Z"/>
  <path class="cls-27" d="M97.48,206.84c-.67-.54-1.62-.34-2.3-.99,1.02-.23,1.99.04,2.94.4.09.03.11.24.17.37-.28.07-.56.14-.84.21,0,0,.02,0,.02,0Z"/>
  <path class="cls-28" d="M115.37,206.83c-.28-.06-.75-.07-.79-.21-.15-.48.36-.45.63-.6.42-.22,1,.02,1.34-.44,0,0-.03,0-.03,0,.36.13.81-.15,1.19.3-.65.68-1.71.36-2.37.94,0,0,.02,0,.02,0Z"/>
  <path class="cls-55" d="M87.34,205.67c.96-.34,1.85-.16,2.97.34-1.25.45-2.07-.23-2.97-.34Z"/>
  <path class="cls-71" d="M109.29,171.63c-.1.11-.19.21-.29.32-.53.06-1.36.72-1.2-.6.16-.19.33-.35.6-.33.18.37,1.51-.92.89.62Z"/>
  <path class="cls-20" d="M103.77,172.03c-.18-.14-.37-.27-.55-.41-.22-.47-.36-.97.43-.62.32.14.52.15.78.02.19.04.31.15.36.34.37,1.33-.64.51-1.03.66Z"/>
  <path class="cls-60" d="M125.17,205.75c-.77.19-1.51.6-2.5.36.84-.79,1.68-.52,2.5-.36Z"/>
  <path class="cls-28" d="M104.8,171.37c-.12-.11-.24-.23-.36-.34-.03-.3-.57-.65.09-.87.27.27.53.53.8.8-.18.14-.35.28-.53.42Z"/>
  <path class="cls-64" d="M122.41,197.45c-.23.6-.45,1.2-.68,1.8-.1,0-.19,0-.29,0,.06-.65.1-1.31.6-1.82.12-.1.25-.1.36.01Z"/>
  <path class="cls-85" d="M85.38,173.42c-.57-.18-1.13-.39-1.52-.87.09-.09.18-.18.27-.27.51.3,1.03.59,1.54.89-.06.13-.16.21-.29.26Z"/>
  <path class="cls-25" d="M128.11,172.86c-.37.75-1.22.63-1.8.99-.01-.13-.03-.27-.04-.4.56-.36,1.2-.47,1.84-.58Z"/>
  <path class="cls-30" d="M108.41,171.02c-.12.25-.35.32-.6.33,0-.23,0-.46-.01-.69.17-.17.34-.34.51-.51.66.22.15.57.1.87Z"/>
  <path class="cls-14" d="M91.1,199.24c-.25-.62-.69-1.19-.61-1.92.47.56.77,1.2.89,1.92-.1,0-.19,0-.29,0Z"/>
  <path class="cls-54" d="M117.16,170.78c.29-.01.69.04.51.39-.18.36-.57.11-.84-.09.11-.1.22-.2.32-.3Z"/>
  <path class="cls-37" d="M85.38,173.42c.1-.09.19-.17.29-.26.3.11.6.21.89.32-.01.13-.02.25-.04.38-.38-.15-.77-.29-1.15-.44Z"/>
  <path class="cls-49" d="M99.9,71.01c.8.17,1.8.26,1.77,1.27-.03,1.09-1.03,1.21-1.91,1.17-.82-.03-1.74-.2-1.67-1.26.07-1.02,1.05-1.03,1.81-1.18Z"/>
  <path class="cls-29" d="M115.81,171.66c.57.45,2.06-.44,1.89,1.31-.07.75-.41.96-1.08.72-.42-.15-.86-.28-1.27-.47-.44-.2-1.09-.39-.99-.97.12-.69.83-.55,1.46-.6Z"/>
  <path class="cls-31" d="M126.5,172.55c.07-1.12.58-1.73,1.44-2.06.32-.13.77-.22.99.09.25.34-.06.66-.33.89-.57.48-1.17.93-2.09,1.09Z"/>
  <path class="cls-13" d="M97.17,171.67c.68.02,1.3-.02,1.41.58.09.5-.47.71-.87.91-.36.17-.74.35-1.12.41-.44.07-1.07.73-1.28-.29-.16-.76-.2-1.41.86-1.45.4-.02.79-.12,1.01-.16Z"/>
  <path class="cls-72" d="M86.55,172.61c-1.13-.25-1.82-.72-2.42-1.33-.18-.18-.37-.44-.19-.65.12-.15.45-.22.66-.2,1.17.14,1.61.97,1.95,2.18Z"/>
  <path class="cls-98" d="M90.49,197.09c-.94-.25-.96-1.27-1.52-1.84,1.04.17,1.18,1.09,1.52,1.84Z"/>
  <path class="cls-35" d="M122.41,197.45c-.12,0-.24,0-.36-.01.23-.56.34-1.19.88-1.57.18.22.18.44.01.66-.18.31-.36.61-.53.92Z"/>
  <path class="cls-12" d="M122.94,196.53c0-.22,0-.44-.01-.66.17-.41.48-.62.93-.61-.31.42-.61.85-.92,1.27Z"/>
  <path class="cls-2" d="M99.83,71.55c.52.06.72.31.7.73-.02.44-.32.61-.72.59-.42-.02-.63-.29-.59-.71.04-.42.29-.61.61-.61Z"/>
  <text class="cls-69" transform="translate(262.31 224.62)"><tspan x="0" y="0">Small Business Development</tspan></text>
  <text class="cls-69" transform="translate(262.01 188.61)"><tspan x="0" y="0">Department</tspan></text>
  <text class="cls-68" transform="translate(262.01 262.37)"><tspan x="0" y="0">REPUBLIC OF SOUTH AFRICA</tspan></text>
  <rect class="cls-70" x="264.43" y="144.09" width="519" height="5.79"/>
  <text class="cls-48" transform="translate(262.01 63.68)"><tspan x="0" y="0">small business</tspan></text>
  <text class="cls-48" transform="translate(261.9 124.14)"><tspan x="0" y="0">development</tspan></text>
</svg>