<svg xmlns="http://www.w3.org/2000/svg" xmlns:xlink="http://www.w3.org/1999/xlink" id="Layer_2" viewBox="0 0 1920 195.47"><defs><style>      .cls-1 {        fill: url(#linear-gradient-15);      }      .cls-2 {        fill: url(#linear-gradient-13);      }      .cls-3 {        fill: url(#linear-gradient-2);      }      .cls-4 {        fill: url(#linear-gradient-10);      }      .cls-5 {        fill: url(#linear-gradient-12);      }      .cls-6 {        fill: url(#linear-gradient-4);      }      .cls-7 {        fill: #2c64ad;      }      .cls-8 {        fill: #221f20;      }      .cls-9 {        fill: url(#linear-gradient-3);      }      .cls-10 {        fill: url(#linear-gradient-5);      }      .cls-11 {        fill: #ffb81c;      }      .cls-12 {        fill: url(#linear-gradient-8);      }      .cls-13 {        fill: url(#linear-gradient-14);      }      .cls-14 {        fill: url(#linear-gradient-20);      }      .cls-15 {        fill: url(#linear-gradient-17);      }      .cls-16 {        fill: url(#linear-gradient-7);      }      .cls-17 {        fill: url(#linear-gradient-9);      }      .cls-18 {        fill: #001489;      }      .cls-19 {        fill: url(#linear-gradient-11);      }      .cls-20 {        fill: url(#linear-gradient-19);      }      .cls-21 {        fill: url(#linear-gradient-6);      }      .cls-22 {        fill: url(#linear-gradient-21);      }      .cls-23 {        fill: url(#linear-gradient-16);      }      .cls-24 {        fill: url(#linear-gradient);      }      .cls-25 {        fill: url(#linear-gradient-18);      }    </style><linearGradient id="linear-gradient" x1="3808.79" y1="6150.44" x2="3700.69" y2="6148.64" gradientTransform="translate(-5757.84 -3596.09) rotate(90) scale(1 -1)" gradientUnits="userSpaceOnUse"><stop offset="0" stop-color="#ffb81c"></stop><stop offset=".51" stop-color="#fdb51b"></stop><stop offset=".75" stop-color="#f6ae1b"></stop><stop offset=".94" stop-color="#eba11a"></stop><stop offset="1" stop-color="#e69b1a"></stop></linearGradient><linearGradient id="linear-gradient-2" x1="3808.79" y1="4884.8" x2="3700.69" y2="4883" gradientTransform="translate(-3997.66 3889.23) rotate(-90)" gradientUnits="userSpaceOnUse"><stop offset="0" stop-color="#007749"></stop><stop offset="1" stop-color="#005e39"></stop></linearGradient><linearGradient id="linear-gradient-3" x1="680.34" y1="1620.74" x2="778.02" y2="1620.74" gradientTransform="translate(1663.25 1767.31) rotate(-180)" gradientUnits="userSpaceOnUse"><stop offset="0" stop-color="#001489"></stop><stop offset=".41" stop-color="#001386"></stop><stop offset=".6" stop-color="#00127f"></stop><stop offset=".75" stop-color="#001072"></stop><stop offset=".88" stop-color="#000d5f"></stop><stop offset=".99" stop-color="#000a48"></stop><stop offset="1" stop-color="#000a45"></stop></linearGradient><linearGradient id="linear-gradient-4" x1="386.91" y1="1620.74" x2="484.59" y2="1620.74" gradientTransform="translate(-393.25 582.32) rotate(-90)" gradientUnits="userSpaceOnUse"><stop offset="0" stop-color="#e03c31"></stop><stop offset=".44" stop-color="#dd3b30"></stop><stop offset=".66" stop-color="#d6372d"></stop><stop offset=".82" stop-color="#c93228"></stop><stop offset=".96" stop-color="#b62a22"></stop><stop offset="1" stop-color="#b02820"></stop></linearGradient><linearGradient id="linear-gradient-5" x1="-380.92" y1="1665.1" x2="-299.84" y2="1580.42" gradientTransform="translate(878.32 1767.31) scale(1 -1)" xlink:href="#linear-gradient-2"></linearGradient><linearGradient id="linear-gradient-6" x1="6492.69" y1="-1602.89" x2="6413.34" y2="-1682.24" gradientTransform="translate(1703.93 -6294.18) rotate(90) scale(1 -1)" xlink:href="#linear-gradient-3"></linearGradient><linearGradient id="linear-gradient-7" x1="1376" y1="146.57" x2="1473.67" y2="146.57" gradientTransform="matrix(1,0,0,1,0,0)" xlink:href="#linear-gradient-2"></linearGradient><linearGradient id="linear-gradient-8" x1="-585.3" y1="1620.74" x2="-487.62" y2="1620.74" gradientTransform="translate(878.32 1767.31) scale(1 -1)" xlink:href="#linear-gradient-4"></linearGradient><linearGradient id="linear-gradient-9" x1="584.47" y1="146.57" x2="682.14" y2="146.57" gradientTransform="matrix(1,0,0,1,0,0)" xlink:href="#linear-gradient-3"></linearGradient><linearGradient id="linear-gradient-10" x1="-194.42" y1="1621.01" x2="-96.29" y2="1621.01" gradientTransform="translate(878.32 1767.31) scale(1 -1)" xlink:href="#linear-gradient-4"></linearGradient><linearGradient id="linear-gradient-11" x1="396.58" y1="1621.01" x2="494.71" y2="1621.01" gradientTransform="translate(878.32 1767.31) scale(1 -1)" xlink:href="#linear-gradient"></linearGradient><linearGradient id="linear-gradient-12" x1="-776.87" y1="1621.01" x2="-678.74" y2="1621.01" gradientTransform="translate(878.32 1767.31) scale(1 -1)" gradientUnits="userSpaceOnUse"><stop offset="0" stop-color="#007749"></stop><stop offset=".53" stop-color="#007447"></stop><stop offset=".78" stop-color="#006d42"></stop><stop offset=".97" stop-color="#00603a"></stop><stop offset="1" stop-color="#005e39"></stop></linearGradient><linearGradient id="linear-gradient-13" x1="1609.09" y1="-8.47" x2="1612.35" y2="111.22" gradientUnits="userSpaceOnUse"><stop offset="0" stop-color="#007749"></stop><stop offset=".41" stop-color="#007447"></stop><stop offset=".61" stop-color="#006d42"></stop><stop offset=".76" stop-color="#00603a"></stop><stop offset=".78" stop-color="#005e39"></stop></linearGradient><linearGradient id="linear-gradient-14" x1="1686.64" y1="-17.17" x2="1647.56" y2="51.22" gradientTransform="matrix(1,0,0,1,0,0)" xlink:href="#linear-gradient"></linearGradient><linearGradient id="linear-gradient-15" x1="1539.01" y1="-12.26" x2="1574.02" y2="50.42" gradientTransform="matrix(1,0,0,1,0,0)" xlink:href="#linear-gradient"></linearGradient><linearGradient id="linear-gradient-16" x1="1538.49" y1="21.18" x2="1588.15" y2="169.36" gradientTransform="matrix(1,0,0,1,0,0)" xlink:href="#linear-gradient-3"></linearGradient><linearGradient id="linear-gradient-17" x1="1474.18" y1="102.6" x2="1584.09" y2="192.16" gradientTransform="matrix(1,0,0,1,0,0)" xlink:href="#linear-gradient-4"></linearGradient><linearGradient id="linear-gradient-18" x1="1744.46" y1="105.15" x2="1636.18" y2="193.89" gradientTransform="matrix(1,0,0,1,0,0)" xlink:href="#linear-gradient-4"></linearGradient><linearGradient id="linear-gradient-19" x1="1610.42" y1="102.19" x2="1611.23" y2="193.38" gradientTransform="matrix(1,0,0,1,0,0)" xlink:href="#linear-gradient-4"></linearGradient><linearGradient id="linear-gradient-20" x1="1679.17" y1="45.7" x2="1632.76" y2="162.93" gradientTransform="matrix(1,0,0,1,0,0)" xlink:href="#linear-gradient-3"></linearGradient><linearGradient id="linear-gradient-21" x1="1863.87" y1="146.3" x2="1920" y2="146.3" gradientTransform="matrix(1,0,0,1,0,0)" xlink:href="#linear-gradient-4"></linearGradient></defs><g id="Layer_1-2" data-name="Layer_1"><g><path class="cls-24" d="M390.7,195.41c-53.94,0-97.67-43.73-97.67-97.67h195.35c0,53.94-43.73,97.67-97.67,97.67"></path><path class="cls-8" d="M392.7,195.41c0-53.94,43.73-97.67,97.67-97.67,0,53.94-43.73,97.67-97.67,97.67Z"></path><path class="cls-3" d="M885.23,97.73c-53.94,0-97.67,43.73-97.67,97.67h195.35c0-53.94-43.73-97.67-97.67-97.67"></path><path class="cls-9" d="M982.9,195.41c0-53.94-43.73-97.67-97.67-97.67,0,53.94,43.73,97.67,97.67,97.67Z"></path><path class="cls-6" d="M1178.66,97.73c53.94,0,97.67,43.73,97.67,97.67-53.94,0-97.67-43.73-97.67-97.67Z"></path><path class="cls-11" d="M982.86,195.41c0-53.94,43.73-97.67,97.67-97.67,0,53.94-43.73,97.67-97.67,97.67Z"></path><path class="cls-10" d="M588.7,195.41c0-53.94-43.73-97.67-97.67-97.67,0,53.94,43.73,97.67,97.67,97.67Z"></path><path class="cls-18" d="M195.35,195.41c0-53.94,43.73-97.67,97.67-97.67,0,53.94-43.73,97.67-97.67,97.67Z"></path><path class="cls-21" d="M97.67,97.46C43.73,97.46,0,141.19,0,195.14h97.67s0-97.67,0-97.67Z"></path><path class="cls-8" d="M1176.44,97.73c-53.94,0-97.67,43.73-97.67,97.67h97.67s0-97.67,0-97.67Z"></path><path class="cls-16" d="M1473.67,195.41c0-53.94-43.73-97.67-97.67-97.67v97.67s97.67,0,97.67,0Z"></path><path class="cls-12" d="M390.7,195.41c0-53.94-43.73-97.67-97.67-97.67,0,53.94,43.73,97.67,97.67,97.67Z"></path><g><path class="cls-11" d="M682.14,195.41l-97.66-97.21c.25,53.73,43.87,97.21,97.66,97.21Z"></path><path class="cls-17" d="M682.14,195.41c0-53.94-43.73-97.67-97.67-97.67,0,.15.01.31.01.46l97.66,97.21Z"></path></g><circle class="cls-4" cx="732.96" cy="146.3" r="49.06"></circle><circle class="cls-19" cx="1323.96" cy="146.3" r="49.06"></circle><circle class="cls-5" cx="150.51" cy="146.3" r="49.06"></circle><g><path class="cls-11" d="M1764.9,195.14l97.66-97.21c-.25,53.73-43.87,97.21-97.66,97.21Z"></path><path class="cls-8" d="M1764.9,195.14c0-53.94,43.73-97.67,97.67-97.67,0,.15-.01.31-.01.46l-97.66,97.21Z"></path></g><g><path class="cls-2" d="M1611.11,18.35c-16.76,20.26-23.64,47.41-23.64,47.41,13.64,17.59,21.41,29.82,21.41,29.82h4.46s7.77-12.23,21.41-29.82c0,0-6.88-27.14-23.64-47.41Z"></path><path class="cls-13" d="M1634.75,36.53l9.43,20.43,34.32-22.81-4.42-34.15s-22.94,15.97-39.34,36.53Z"></path><path class="cls-1" d="M1587.47,36.53l-9.43,20.43-34.32-22.81,4.42-34.15s22.94,15.97,39.34,36.53Z"></path><path class="cls-8" d="M1518.79,92.96l-.17-.92c-2.53-14.05-3.75-29.96-2.82-47.72l.09-1.68.09-1.45c-8.96-3.76-18.88-7.13-29.81-9.84v.02c7.68,32.48,23.38,52.64,32.74,62.29l-.13-.69Z"></path><path class="cls-8" d="M1486.18,31.35l.12.49-.11-.48s0,0,0-.01Z"></path><path class="cls-8" d="M1703.21,92.96l.17-.92c2.53-14.05,3.75-29.96,2.82-47.72l-.09-1.68-.09-1.45c8.96-3.76,18.88-7.13,29.81-9.84v.02c-7.68,32.48-23.38,52.64-32.74,62.29l.13-.69Z"></path><path class="cls-7" d="M1555.82,150.12h0c-19.11-28.64-25.73-65.01-25.73-65.01-1.55-8.39-2.84-22.52-1.41-44.84,0,0,.02,0,.02.01,0,0,0,0,0,0,0,0,41.12,18.86,64.91,55.31,0,0,4.27,6.77,6.17,10.24,0,0-21.54,30.65-28.82,63.28l-15.15-18.98Z"></path><path class="cls-23" d="M1528.71,40.28s0,0,0,0c0,0,41.12,18.86,64.91,55.31,0,0,4.27,6.77,6.17,10.24,0,0-21.54,30.65-28.82,63.28,0,0-49.81-40.55-42.26-128.82Z"></path><path class="cls-15" d="M1556,171.91v-.07s-.53-.51-1.46-1.52c-1-1.11-2.01-2.27-3.01-3.47-6.96-8.46-20.47-27.67-28.85-57.72,0,0-26.39-11.81-64.67-8.13l.56,1.05c4.25,7.86,8.72,15.05,13.31,21.62h0s46.05,71.5,116.35,71.81c0,0-15.56-5.72-32.23-23.56Z"></path><path class="cls-25" d="M1764,100.99c-38.28-3.68-64.67,8.13-64.67,8.13-8.38,30.06-21.89,49.27-28.85,57.72-1,1.2-2.01,2.36-3.01,3.47-.93,1.02-1.46,1.52-1.46,1.52v.07c-16.67,17.84-32.23,23.56-32.23,23.56,70.3-.31,116.35-71.81,116.35-71.81h0c4.59-6.57,9.07-13.76,13.31-21.62l.56-1.05Z"></path><path class="cls-20" d="M1641.08,174.17c-5.92-35.01-28.3-60.21-29.97-62.06v-.11s-.02.02-.05.06c-.03-.03-.05-.06-.05-.06v.11c-1.67,1.85-24.05,27.05-29.97,62.06,0,0,13.3,15.06,29.97,21.26v.04s.03-.01.05-.02c.02,0,.03.01.05.02v-.04c16.67-6.2,29.97-21.26,29.97-21.26Z"></path><path class="cls-14" d="M1693.15,40.28s0,0,0,0c0,0-41.12,18.86-64.91,55.31,0,0-4.27,6.77-6.17,10.24,0,0,21.54,30.65,28.82,63.28,0,0,49.81-40.55,42.26-128.82Z"></path></g><path class="cls-22" d="M1920,97.75c-2.31-.33-4.66-.51-7.06-.51-27.1,0-49.06,21.97-49.06,49.06s21.97,49.06,49.06,49.06c2.4,0,4.76-.18,7.06-.51v-97.1Z"></path></g></g></svg>