<?xml version="1.0" encoding="UTF-8"?>
<svg id="Layer_1" xmlns="http://www.w3.org/2000/svg" xmlns:xlink="http://www.w3.org/1999/xlink" version="1.1" viewBox="0 0 1496.2 315.2">
  <!-- Generator: Adobe Illustrator 29.4.0, SVG Export Plug-In . SVG Version: 2.1.0 Build 152)  -->
  <defs>
    <style>
      .st0 {
        fill: url(#linear-gradient2);
      }

      .st1 {
        fill: url(#linear-gradient1);
      }

      .st2 {
        fill: url(#linear-gradient3);
      }

      .st3 {
        fill: url(#linear-gradient6);
      }

      .st4 {
        fill: url(#linear-gradient8);
      }

      .st5 {
        fill: url(#linear-gradient7);
      }

      .st6 {
        fill: url(#linear-gradient5);
      }

      .st7 {
        fill: url(#linear-gradient4);
      }

      .st8 {
        fill: #2c64ad;
      }

      .st9 {
        fill: url(#linear-gradient);
      }

      .st10 {
        fill: #fff;
      }

      .st11 {
        fill: #221f20;
      }

      .st12 {
        fill: #007247;
      }
    </style>
    <linearGradient id="linear-gradient" x1="181.2" y1="380.6" x2="185" y2="241.8" gradientTransform="translate(0 372.5) scale(1 -1)" gradientUnits="userSpaceOnUse">
      <stop offset="0" stop-color="#007749"/>
      <stop offset=".4" stop-color="#007447"/>
      <stop offset=".6" stop-color="#006d42"/>
      <stop offset=".8" stop-color="#00603a"/>
      <stop offset=".8" stop-color="#005e39"/>
    </linearGradient>
    <linearGradient id="linear-gradient1" x1="271.1" y1="390.7" x2="225.8" y2="311.4" gradientTransform="translate(0 372.5) scale(1 -1)" gradientUnits="userSpaceOnUse">
      <stop offset="0" stop-color="#ffb81c"/>
      <stop offset=".5" stop-color="#fdb51b"/>
      <stop offset=".8" stop-color="#f6ae1b"/>
      <stop offset=".9" stop-color="#eba11a"/>
      <stop offset="1" stop-color="#e69b1a"/>
    </linearGradient>
    <linearGradient id="linear-gradient2" x1="99.9" y1="385.1" x2="140.5" y2="312.3" xlink:href="#linear-gradient1"/>
    <linearGradient id="linear-gradient3" x1="99.3" y1="346.2" x2="156.9" y2="174.3" gradientTransform="translate(0 372.5) scale(1 -1)" gradientUnits="userSpaceOnUse">
      <stop offset="0" stop-color="#001489"/>
      <stop offset=".4" stop-color="#001386"/>
      <stop offset=".6" stop-color="#00127f"/>
      <stop offset=".8" stop-color="#001072"/>
      <stop offset=".9" stop-color="#000d5f"/>
      <stop offset="1" stop-color="#000a48"/>
      <stop offset="1" stop-color="#000a45"/>
    </linearGradient>
    <linearGradient id="linear-gradient4" x1="24.7" y1="251.8" x2="152.2" y2="147.9" gradientTransform="translate(0 372.5) scale(1 -1)" gradientUnits="userSpaceOnUse">
      <stop offset="0" stop-color="#e03c31"/>
      <stop offset=".4" stop-color="#dd3b30"/>
      <stop offset=".7" stop-color="#d6372d"/>
      <stop offset=".8" stop-color="#c93228"/>
      <stop offset="1" stop-color="#b62a22"/>
      <stop offset="1" stop-color="#b02820"/>
    </linearGradient>
    <linearGradient id="linear-gradient5" x1="338.2" y1="248.8" x2="212.6" y2="145.9" xlink:href="#linear-gradient4"/>
    <linearGradient id="linear-gradient6" x1="182.7" y1="252.3" x2="183.7" y2="146.5" xlink:href="#linear-gradient4"/>
    <linearGradient id="linear-gradient7" x1="262.5" y1="317.8" x2="208.6" y2="181.8" xlink:href="#linear-gradient3"/>
    <linearGradient id="linear-gradient8" x1="915" y1="241.8" x2="921.8" y2="241.8" gradientTransform="matrix(1,0,0,1,0,0)" xlink:href="#linear-gradient"/>
  </defs>
  <g>
    <path class="st11" d="M701.3,199.1c-1,.3-2.3.5-3.9.5s-4.2-.3-6.3-1-3.9-1.6-5.4-2.6l-2.8,6.2c1.6,1.2,3.7,2.2,6.3,2.9s5.3,1.1,8.1,1.1,6.2-.5,8.3-1.5c2.2-1,3.9-2.3,5-4,1.1-1.6,1.7-3.5,1.7-5.4s-.4-3.4-1.1-4.6c-.8-1.2-1.7-2.2-3-2.9s-2.5-1.3-4-1.8-2.9-.8-4.4-1.2c-1.5-.3-2.8-.7-4-1-1.2-.3-2.2-.8-2.9-1.3s-1.1-1.3-1.1-2.2.2-1.4.7-2c.4-.6,1.2-1.1,2.2-1.4s2.3-.6,3.9-.6,3.2.2,4.8.7c1.7.4,3.3,1.2,4.9,2.1l2.5-6.2c-1.7-1-3.5-1.8-5.7-2.3-2.2-.5-4.3-.8-6.6-.8-3.3,0-6.1.5-8.3,1.5s-3.8,2.3-5,4-1.6,3.5-1.6,5.5.4,3.4,1.1,4.6,1.7,2.2,3,2.9,2.5,1.4,4,1.8,2.9.9,4.4,1.2,2.8.7,4,1c1.2.4,2.2.8,2.9,1.4s1.1,1.3,1.1,2.2-.2,1.4-.7,2c-.5.6-1.2,1-2.2,1.3h0Z"/>
    <path class="st11" d="M721.2,200.9c1.7,1.6,3.8,2.9,6.2,3.8,2.4.9,5,1.4,7.8,1.4s5.3-.4,7.7-1.4,4.4-2.2,6.1-3.8c1.7-1.6,3.1-3.6,4.1-5.8s1.5-4.7,1.5-7.3-.5-5.1-1.5-7.3c-1-2.2-2.3-4.1-4.1-5.8s-3.8-2.9-6.1-3.8-4.9-1.4-7.7-1.4-5.3.4-7.7,1.4-4.4,2.2-6.2,3.8c-1.8,1.7-3.1,3.6-4.1,5.8s-1.4,4.6-1.4,7.3.5,5.1,1.4,7.3,2.3,4.2,4,5.8h0ZM724.8,183.3c.5-1.4,1.3-2.6,2.3-3.6s2.2-1.8,3.5-2.3,2.8-.8,4.4-.8,3,.3,4.4.8c1.3.5,2.5,1.3,3.5,2.3,1,1,1.8,2.2,2.3,3.6.6,1.4.8,2.9.8,4.6s-.3,3.2-.8,4.6c-.5,1.4-1.3,2.6-2.3,3.6s-2.2,1.8-3.5,2.3c-1.3.5-2.8.8-4.4.8s-3-.3-4.4-.8c-1.3-.5-2.5-1.3-3.5-2.3s-1.8-2.2-2.3-3.6c-.6-1.4-.8-2.9-.8-4.6s.3-3.2.8-4.6h0Z"/>
    <path class="st11" d="M776.2,206.1c5,0,8.9-1.4,11.8-4.2,2.8-2.8,4.2-6.8,4.2-12v-19.8h-8.1v19.5c0,3.4-.7,5.8-2.1,7.3-1.4,1.5-3.3,2.2-5.8,2.2s-4.4-.7-5.8-2.2-2.1-3.9-2.1-7.3v-19.5h-8.2v19.8c0,5.2,1.4,9.2,4.2,12,2.8,2.8,6.7,4.2,11.8,4.2Z"/>
    <polygon class="st11" points="815.2 205.5 815.2 176.9 826.5 176.9 826.5 170.2 795.7 170.2 795.7 176.9 807 176.9 807 205.5 815.2 205.5"/>
    <polygon class="st11" points="839.1 191.1 855.1 191.1 855.1 205.5 863.3 205.5 863.3 170.2 855.1 170.2 855.1 184.1 839.1 184.1 839.1 170.2 830.9 170.2 830.9 205.5 839.1 205.5 839.1 191.1"/>
    <path class="st11" d="M705.4,224.5h-8.1l-15.8,35.3h8.4l3.2-7.6h16.4l3.1,7.6h8.6l-15.8-35.3h0ZM695.7,246l5.6-13.5,5.6,13.5h-11.2Z"/>
    <polygon class="st11" points="751.5 231 751.5 224.5 724.9 224.5 724.9 259.8 733 259.8 733 246.9 749.4 246.9 749.4 240.4 733 240.4 733 231 751.5 231"/>
    <path class="st11" d="M765.3,250h7.1c.1,0,.2,0,.4,0l6.8,9.9h8.8l-7.9-11.3s0,0,0,0c2.3-1,4.1-2.5,5.3-4.4,1.2-1.9,1.9-4.2,1.9-6.8s-.6-4.9-1.9-6.9-3-3.4-5.3-4.4-5-1.5-8.2-1.5h-15.3v35.3h8.2v-9.8h0ZM777.6,232.8c1.2,1.1,1.9,2.6,1.9,4.5s-.6,3.4-1.9,4.5c-1.2,1.1-3.1,1.6-5.7,1.6h-6.7v-12.3h6.7c2.5,0,4.4.5,5.7,1.6h0Z"/>
    <rect class="st11" x="794.2" y="224.5" width="8.2" height="35.3"/>
    <path class="st11" d="M820,234c1-1,2.2-1.8,3.6-2.3,1.4-.5,2.9-.8,4.5-.8s3.4.4,4.8,1c1.5.7,2.8,1.7,4,3.1l5.2-4.9c-1.7-2.1-3.8-3.6-6.2-4.7s-5.2-1.6-8.3-1.6-5.3.4-7.6,1.3-4.3,2.2-6.1,3.8c-1.7,1.6-3.1,3.6-4,5.8-1,2.2-1.4,4.7-1.4,7.3s.5,5.1,1.4,7.3,2.3,4.2,4,5.8c1.7,1.6,3.7,2.9,6.1,3.8s4.9,1.3,7.6,1.3,5.9-.5,8.3-1.6,4.5-2.6,6.2-4.7l-5.2-4.9c-1.2,1.4-2.6,2.5-4,3.1-1.5.7-3.1,1-4.8,1s-3.2-.3-4.5-.8-2.6-1.3-3.6-2.3c-1-1-1.8-2.2-2.3-3.6s-.8-2.9-.8-4.6.3-3.2.8-4.6c.5-1.4,1.3-2.6,2.3-3.6h0Z"/>
    <path class="st11" d="M873.4,259.8h8.6l-15.8-35.3h-8.1l-15.8,35.3h8.4l3.2-7.6h16.4l3.1,7.6h0ZM856.5,246l5.6-13.5,5.6,13.5h-11.2Z"/>
    <path class="st11" d="M702.9,299.8c1.7-1.6,2.9-2.9,3.8-4.2s1.4-2.4,1.7-3.6c.3-1.1.4-2.3.4-3.4,0-2.1-.5-4-1.6-5.6s-2.6-2.8-4.6-3.6c-2-.9-4.3-1.3-6.9-1.3s-6,.6-8.4,1.8c-2.4,1.2-4.3,2.8-5.7,4.8l6,3.8c.9-1.2,1.9-2.1,3.2-2.7,1.3-.6,2.6-.9,4.1-.9s3.2.4,4.2,1.1,1.4,1.8,1.4,3.2,0,1.1-.3,1.8-.5,1.4-1,2.1c-.5.8-1.3,1.6-2.4,2.6l-13.6,12.9v5.3h26.7v-6.7h-15.2l8.1-7.7h0Z"/>
    <path class="st11" d="M736.2,280.3c-2.3-1.4-4.9-2.1-7.8-2.1s-5.5.7-7.8,2.1c-2.3,1.4-4.1,3.5-5.4,6.2-1.3,2.7-2,6-2,9.9s.7,7.2,2,9.9c1.3,2.7,3.1,4.8,5.4,6.2s4.9,2.1,7.8,2.1,5.5-.7,7.8-2.1c2.3-1.4,4.1-3.5,5.4-6.2,1.3-2.7,2-6,2-9.9s-.7-7.2-2-9.9c-1.3-2.7-3.1-4.8-5.4-6.2h0ZM734.5,302.9c-.6,1.7-1.4,2.9-2.4,3.7-1,.8-2.2,1.2-3.6,1.2s-2.5-.4-3.6-1.2c-1-.8-1.8-2-2.4-3.7s-.9-3.9-.9-6.5.3-4.8.9-6.5,1.4-2.9,2.4-3.7c1-.8,2.2-1.2,3.6-1.2s2.6.4,3.6,1.2,1.8,2,2.4,3.7c.6,1.7.9,3.9.9,6.5s-.3,4.8-.9,6.5Z"/>
    <path class="st11" d="M766.7,299.8c1.7-1.6,2.9-2.9,3.8-4.2s1.4-2.4,1.7-3.6c.3-1.1.4-2.3.4-3.4,0-2.1-.5-4-1.6-5.6s-2.6-2.8-4.6-3.6c-2-.9-4.3-1.3-6.9-1.3s-6,.6-8.4,1.8c-2.4,1.2-4.3,2.8-5.7,4.8l6,3.8c.9-1.2,1.9-2.1,3.2-2.7,1.3-.6,2.6-.9,4.1-.9s3.2.4,4.2,1.1,1.4,1.8,1.4,3.2,0,1.1-.3,1.8-.5,1.4-1,2.1-1.3,1.6-2.4,2.6l-13.6,12.9v5.3h26.7v-6.7h-15.2l8.1-7.7h0Z"/>
    <path class="st11" d="M797.7,293.5c-2.1-1-5-1.4-8.5-1.4h-2.9l.6-6.7h14.7v-6.6h-21.5l-1.8,19.9h9c2.2,0,3.8.2,5,.6s2,.9,2.5,1.6c.5.7.7,1.5.7,2.4,0,1.4-.6,2.6-1.8,3.4s-2.8,1.2-4.8,1.2-3.6-.3-5.4-.9c-1.8-.6-3.3-1.4-4.7-2.3l-3.2,6.3c1.7,1.2,3.8,2.1,6.2,2.8,2.4.7,4.8,1,7.3,1s6.1-.5,8.3-1.6c2.2-1.1,3.8-2.5,4.8-4.3,1-1.8,1.6-3.7,1.6-5.8s-.5-3.9-1.5-5.6c-1-1.6-2.5-2.9-4.7-3.9h0Z"/>
  </g>
  <g>
    <g>
      <path class="st9" d="M183.5,23c-19.4,23.5-27.4,55-27.4,55,15.8,20.4,24.8,34.6,24.8,34.6h5.2s9-14.2,24.8-34.6c0,0-8-31.5-27.4-55Z"/>
      <path class="st1" d="M210.9,44.1l10.9,23.7,39.8-26.5-5.1-39.6s-26.6,18.5-45.6,42.4h0Z"/>
      <path class="st0" d="M156.1,44.1l-10.9,23.7-39.8-26.5L110.5,1.7s26.6,18.5,45.6,42.4Z"/>
      <path class="st11" d="M76.4,109.5l-.2-1.1c-2.9-16.3-4.4-34.8-3.3-55.4v-2c.1,0,.2-1.7.2-1.7-10.4-4.4-21.9-8.3-34.6-11.4h0c8.9,37.7,27.1,61.1,38,72.3l-.2-.8h0Z"/>
      <path class="st11" d="M38.6,38.1v.6c.1,0,0-.6,0-.6h0Z"/>
      <path class="st11" d="M290.4,109.5l.2-1.1c2.9-16.3,4.4-34.8,3.3-55.4v-2c-.1,0-.2-1.7-.2-1.7,10.4-4.4,21.9-8.3,34.6-11.4h0c-8.9,37.7-27.1,61.1-38,72.3l.2-.8h0Z"/>
      <path class="st8" d="M119.4,175.9h0c-22.2-33.2-29.8-75.4-29.8-75.4-1.8-9.7-3.3-26.1-1.6-52,0,0,0,0,0,0h0s47.7,21.9,75.3,64.2c0,0,5,7.9,7.2,11.9,0,0-25,35.6-33.4,73.4l-17.6-22h0Z"/>
      <path class="st2" d="M87.9,48.4h0s47.7,21.9,75.3,64.2c0,0,5,7.9,7.2,11.9,0,0-25,35.6-33.4,73.4,0,0-57.8-47-49-149.4h0Z"/>
      <path class="st7" d="M119.6,201.1h0c0,0-.6-.7-1.7-1.8-1.2-1.3-2.3-2.6-3.5-4-8.1-9.8-23.7-32.1-33.5-67,0,0-30.6-13.7-75-9.4l.7,1.2c4.9,9.1,10.1,17.5,15.4,25.1h0s53.4,82.9,135,83.3c0,0-18.1-6.6-37.4-27.3h0Z"/>
      <path class="st6" d="M360.9,118.9c-44.4-4.3-75,9.4-75,9.4-9.7,34.9-25.4,57.2-33.5,67-1.2,1.4-2.3,2.7-3.5,4-1.1,1.2-1.7,1.8-1.7,1.8h0c-19.3,20.8-37.4,27.4-37.4,27.4,81.6-.4,135-83.3,135-83.3h0c5.3-7.6,10.5-16,15.4-25.1l.7-1.2h0Z"/>
      <path class="st3" d="M218.3,203.8c-6.9-40.6-32.8-69.9-34.8-72h0c0-.1,0-.1,0,0,0,0,0,0,0,0h0c-1.9,2.3-27.9,31.5-34.8,72.1,0,0,15.4,17.5,34.8,24.7h0s0,0,0,0c0,0,0,0,0,0h0c19.3-7.2,34.8-24.7,34.8-24.7h0Z"/>
      <path class="st5" d="M278.7,48.4h0s-47.7,21.9-75.3,64.2c0,0-5,7.9-7.2,11.9,0,0,25,35.6,33.4,73.4,0,0,57.8-47,49-149.4h0Z"/>
    </g>
    <rect class="st10" x="143.6" y="149.6" width="257.1" height="158.2"/>
    <path class="st10" d="M100.8,287.1C7.9,154,163,105.4,256.5,195.3c0,0,123.6-54.6,167.6-46.9,94.4,16.6-70.5,153.1-169.7,153.1s-129.6,20-153.6-14.4Z"/>
  </g>
  <g>
    <path d="M144.1,314.6c-11.8,0-23.1-1.6-33.9-4.7-10.9-3.1-19.6-7.2-26.1-12.3l11.5-25.6c6.2,4.5,13.6,8.2,22.3,11,8.7,2.9,17.4,4.3,26.2,4.3s12.1-.7,16.3-2.1c4.1-1.4,7.2-3.3,9.1-5.6,2-2.3,2.9-5,2.9-8.1s-1.5-7-4.6-9.3c-3.1-2.3-7.2-4.2-12.3-5.7-5.1-1.5-10.7-2.9-16.7-4.2-6-1.3-12.1-2.9-18.2-4.8-6.1-1.9-11.7-4.4-16.8-7.6-5.1-3.2-9.2-7.3-12.2-12.4-3-5.1-4.5-11.5-4.5-19.2s2.2-16.1,6.7-23c4.5-6.9,11.3-12.5,20.5-16.6,9.2-4.1,20.7-6.2,34.5-6.2s18.4,1.1,27.4,3.4c9,2.2,16.9,5.5,23.6,9.7l-10.7,25.6c-6.6-3.8-13.4-6.6-20.4-8.5-7-1.9-13.7-2.8-20.2-2.8s-12.1.7-16.2,2.2c-4.1,1.5-7,3.5-8.9,6-1.9,2.5-2.8,5.3-2.8,8.4s1.5,7.1,4.6,9.5c3.1,2.4,7.1,4.2,12.2,5.6,5,1.3,10.6,2.7,16.8,4,6.2,1.3,12.2,3,18.3,4.9,6,2,11.5,4.4,16.6,7.5,5,3,9.1,7.1,12.3,12.2,3.2,5.1,4.7,11.4,4.7,19s-2.3,15.8-6.8,22.7c-4.6,6.9-11.4,12.4-20.7,16.6-9.2,4.2-20.8,6.3-34.6,6.3Z"/>
    <path d="M294.8,314.6c-20.9,0-37.2-5.8-48.9-17.4-11.8-11.6-17.6-28.3-17.6-50v-82.1h34.2v81.3c0,13.9,2.9,23.9,8.6,30.1,5.7,6.2,13.7,9.3,23.9,9.3s18.4-3.1,24.1-9.3c5.7-6.2,8.6-16.3,8.6-30.1v-81.3h33.4v82.1c0,21.7-5.9,38.4-17.6,50-11.8,11.6-28,17.4-48.7,17.4Z"/>
    <path d="M384.5,312.1v-22l56.7-53.5c4.5-4.1,7.8-7.7,10-10.8,2.2-3.1,3.6-6.1,4.3-8.8.7-2.7,1-5.3,1-7.7,0-5.7-2-10.2-5.9-13.4-3.9-3.2-9.8-4.8-17.6-4.8s-12,1.3-17.2,3.8c-5.2,2.5-9.6,6.2-13.2,11.1l-24.6-16c5.5-8.4,13.2-15,23.3-20,10.1-4.9,21.7-7.4,34.9-7.4s20.5,1.8,28.8,5.2c8.3,3.5,14.7,8.5,19.2,15,4.5,6.5,6.8,14.2,6.8,23.2s-.7,9.3-2,14.1c-1.3,4.8-3.7,9.7-7.2,14.9-3.5,5.2-8.7,11-15.5,17.4l-47,44.1-6.5-12.2h83.2v27.7h-111.3Z"/>
    <path d="M572.7,314.6c-12,0-22.8-3-32.2-8.9-9.5-5.9-16.9-14.6-22.5-25.8-5.5-11.3-8.3-25-8.3-41.3s2.8-30,8.3-41.3c5.5-11.3,13-19.9,22.5-25.8,9.5-5.9,20.2-8.9,32.2-8.9s23,3,32.4,8.9c9.5,6,16.9,14.6,22.5,25.8,5.5,11.3,8.3,25,8.3,41.3s-2.8,30-8.3,41.3c-5.5,11.3-13,19.9-22.5,25.8-9.5,6-20.3,8.9-32.4,8.9ZM572.7,286c5.7,0,10.7-1.6,15-4.9,4.3-3.3,7.6-8.4,10.1-15.4,2.4-7,3.7-16,3.7-27.1s-1.2-20.1-3.7-27.1c-2.5-7-5.8-12.1-10.1-15.4-4.3-3.3-9.3-4.9-15-4.9s-10.4,1.6-14.7,4.9c-4.3,3.3-7.8,8.4-10.3,15.4-2.5,7-3.8,16-3.8,27.1s1.3,20.1,3.8,27.1c2.5,7,5.9,12.1,10.3,15.4,4.3,3.3,9.2,4.9,14.7,4.9Z"/>
  </g>
  <rect class="st4" x="915" y="169.6" width="6.9" height="144.5"/>
  <g>
    <path class="st12" d="M1256,205.9c-2,0-4-.3-5.8-.9-1.8-.6-3.3-1.3-4.4-2.2l1.7-3.7c1,.8,2.3,1.5,3.8,2,1.5.5,3.1.8,4.7.8s2.5-.1,3.3-.4,1.5-.7,1.9-1.2c.4-.5.6-1.1.6-1.7s-.3-1.4-.9-1.9c-.6-.5-1.3-.9-2.2-1.1-.9-.3-1.9-.5-3-.8s-2.2-.5-3.3-.9c-1.1-.3-2.1-.8-3-1.3-.9-.5-1.6-1.2-2.2-2.1-.6-.9-.8-2-.8-3.4s.4-2.7,1.1-3.9c.8-1.2,1.9-2.1,3.4-2.8,1.5-.7,3.5-1.1,5.9-1.1s3.1.2,4.6.6c1.5.4,2.9,1,4,1.7l-1.5,3.7c-1.2-.7-2.4-1.2-3.6-1.5s-2.4-.5-3.6-.5-2.4.2-3.2.5c-.8.3-1.4.7-1.8,1.3-.4.5-.6,1.1-.6,1.8s.3,1.4.8,1.9c.6.5,1.3.9,2.2,1.1.9.3,1.9.5,3,.8,1.1.2,2.2.5,3.3.9,1.1.3,2.1.8,3,1.3.9.5,1.6,1.2,2.2,2.1.6.9.8,2,.8,3.3s-.4,2.7-1.1,3.8c-.8,1.2-1.9,2.1-3.5,2.8-1.6.7-3.5,1.1-5.9,1.1Z"/>
    <path class="st12" d="M1282.3,205.9c-3.5,0-6.3-1-8.3-3-2-2-3-4.9-3-8.7v-14.6h4.8v14.4c0,2.7.6,4.6,1.7,5.8,1.1,1.2,2.8,1.8,4.9,1.8s3.7-.6,4.8-1.8c1.1-1.2,1.7-3.1,1.7-5.8v-14.4h4.7v14.6c0,3.8-1,6.7-3,8.7-2,2-4.8,3-8.3,3Z"/>
    <path class="st12" d="M1298.2,205.5v-3.2l10.3-9.8c.8-.8,1.5-1.5,1.9-2.1.4-.6.7-1.2.9-1.7.1-.5.2-1,.2-1.5,0-1.2-.4-2.1-1.2-2.8-.8-.7-2-1-3.6-1s-2.4.2-3.4.7c-1,.4-1.9,1.1-2.6,2l-3.4-2.6c1-1.4,2.4-2.4,4.1-3.2,1.7-.8,3.6-1.1,5.8-1.1s3.5.3,4.9.9c1.4.6,2.5,1.5,3.2,2.6.8,1.1,1.1,2.4,1.1,3.9s-.1,1.7-.3,2.5c-.2.8-.6,1.7-1.3,2.6-.6.9-1.5,2-2.7,3.1l-8.9,8.4-1-1.8h15.2v4.1h-19.1Z"/>
    <path class="st12" d="M1330.9,205.9c-2.1,0-3.9-.5-5.5-1.6s-2.9-2.5-3.9-4.5c-1-2-1.4-4.4-1.4-7.2s.5-5.2,1.4-7.2c.9-2,2.2-3.5,3.9-4.5,1.6-1,3.5-1.6,5.5-1.6s3.9.5,5.5,1.6c1.6,1,2.9,2.5,3.9,4.5.9,2,1.4,4.4,1.4,7.2s-.5,5.2-1.4,7.2c-1,2-2.2,3.5-3.9,4.5-1.6,1-3.5,1.6-5.5,1.6ZM1330.9,201.7c1.2,0,2.2-.3,3.1-1,.9-.7,1.6-1.7,2.1-3,.5-1.4.8-3.1.8-5.1s-.3-3.8-.8-5.1c-.5-1.4-1.2-2.4-2.1-3-.9-.7-1.9-1-3.1-1s-2.2.3-3.1,1c-.9.7-1.6,1.7-2.1,3-.5,1.4-.8,3.1-.8,5.1s.3,3.8.8,5.1c.5,1.4,1.2,2.4,2.1,3,.9.7,1.9,1,3.1,1Z"/>
    <path class="st12" d="M1365.1,205.9c-2,0-4-.3-5.8-.9-1.8-.6-3.3-1.3-4.4-2.2l1.7-3.7c1,.8,2.3,1.5,3.8,2,1.5.5,3.1.8,4.7.8s2.5-.1,3.3-.4,1.5-.7,1.9-1.2c.4-.5.6-1.1.6-1.7s-.3-1.4-.9-1.9c-.6-.5-1.3-.9-2.2-1.1-.9-.3-1.9-.5-3-.8s-2.2-.5-3.3-.9c-1.1-.3-2.1-.8-3-1.3-.9-.5-1.6-1.2-2.2-2.1-.6-.9-.8-2-.8-3.4s.4-2.7,1.1-3.9c.8-1.2,1.9-2.1,3.4-2.8,1.5-.7,3.5-1.1,5.9-1.1s3.1.2,4.6.6c1.5.4,2.9,1,4,1.7l-1.5,3.7c-1.2-.7-2.4-1.2-3.6-1.5s-2.4-.5-3.6-.5-2.4.2-3.2.5c-.8.3-1.4.7-1.8,1.3-.4.5-.6,1.1-.6,1.8s.3,1.4.8,1.9c.6.5,1.3.9,2.2,1.1.9.3,1.9.5,3,.8,1.1.2,2.2.5,3.3.9,1.1.3,2.1.8,3,1.3.9.5,1.6,1.2,2.2,2.1.6.9.8,2,.8,3.3s-.4,2.7-1.1,3.8c-.8,1.2-1.9,2.1-3.5,2.8-1.6.7-3.5,1.1-5.9,1.1Z"/>
    <path class="st12" d="M1388.8,205.8c-2,0-3.8-.4-5.4-1.3-1.6-.9-2.8-2.1-3.8-3.6-.9-1.5-1.4-3.3-1.4-5.2s.5-3.7,1.4-5.3c.9-1.5,2.2-2.7,3.7-3.6,1.6-.9,3.4-1.3,5.4-1.3s3.9.4,5.5,1.3c1.6.9,2.8,2.1,3.7,3.6s1.4,3.3,1.4,5.3-.5,3.7-1.4,5.2c-.9,1.5-2.2,2.7-3.8,3.6-1.6.9-3.4,1.3-5.4,1.3ZM1388.8,201.9c1.1,0,2.1-.3,3-.8.9-.5,1.6-1.2,2.1-2.2s.8-2,.8-3.3-.3-2.3-.8-3.3c-.5-.9-1.2-1.6-2.1-2.1-.9-.5-1.9-.8-3-.8s-2.1.3-3,.8c-.9.5-1.6,1.2-2.1,2.1-.5.9-.8,2-.8,3.3s.3,2.3.8,3.3c.5.9,1.2,1.7,2.1,2.2.9.5,1.9.8,3,.8Z"/>
    <path class="st12" d="M1412.1,205.8c-1.7,0-3.2-.3-4.4-.9-1.3-.6-2.3-1.6-3-2.9-.7-1.3-1.1-2.9-1.1-4.9v-11.3h4.7v10.7c0,1.8.4,3.1,1.2,3.9.8.9,1.9,1.3,3.4,1.3s2-.2,2.8-.7c.8-.4,1.4-1.1,1.9-2,.4-.9.7-2,.7-3.3v-10h4.6v19.8h-4.4v-5.4l.8,1.7c-.7,1.3-1.6,2.2-2.9,2.9-1.3.7-2.7,1-4.2,1Z"/>
    <path class="st12" d="M1426.3,189.6v-3.7h13.2v3.7h-13.2ZM1436.4,205.8c-2.2,0-3.8-.6-5-1.7-1.2-1.1-1.8-2.8-1.8-4.9v-17.8h4.6v17.6c0,.9.2,1.7.7,2.2.5.5,1.2.8,2.1.8s1.8-.3,2.5-.8l1.3,3.3c-.6.4-1.2.8-2,1-.8.2-1.6.3-2.4.3Z"/>
    <path class="st12" d="M1455.8,185.5c1.6,0,3,.3,4.2.9s2.2,1.6,2.9,2.8c.7,1.3,1.1,2.9,1.1,4.9v11.3h-4.6v-10.7c0-1.8-.4-3.1-1.2-3.9-.8-.9-2-1.3-3.5-1.3s-2,.2-2.9.7c-.8.4-1.5,1.1-1.9,2-.5.9-.7,2-.7,3.3v10h-4.6v-27.5h4.6v13.1l-1-1.7c.7-1.3,1.7-2.2,3-2.9,1.3-.7,2.8-1,4.6-1Z"/>
    <path class="st12" d="M1244.3,249.9l11.7-25.9h4.7l11.7,25.9h-5.1l-10-23.3h1.9l-10,23.3h-4.9ZM1249.7,243.9l1.3-3.8h13.9l1.3,3.8h-16.6Z"/>
    <path class="st12" d="M1272.6,234v-3.7h13.2v3.7h-13.2ZM1275.8,249.9v-20.8c0-2.1.6-3.8,1.8-5,1.2-1.2,3-1.9,5.2-1.9s1.6,0,2.3.3c.7.2,1.3.4,1.8.8l-1.3,3.4c-.3-.2-.7-.4-1.1-.6-.4-.1-.9-.2-1.4-.2-1,0-1.7.3-2.2.8-.5.5-.7,1.3-.7,2.3v4.3c.1,0,.1,16.5.1,16.5h-4.6Z"/>
    <path class="st12" d="M1288.9,249.9v-19.8h4.4v5.4l-.5-1.6c.6-1.3,1.5-2.3,2.8-3.1,1.3-.7,2.8-1.1,4.7-1.1v4.4c-.2,0-.3,0-.5,0-.2,0-.3,0-.5,0-1.8,0-3.2.5-4.2,1.5-1,1-1.6,2.6-1.6,4.6v9.5h-4.6Z"/>
    <path class="st12" d="M1306.6,226.9c-.9,0-1.6-.3-2.1-.8-.6-.5-.8-1.2-.8-2s.3-1.4.8-1.9c.6-.5,1.3-.8,2.1-.8s1.6.3,2.1.8c.6.5.8,1.2.8,1.9s-.3,1.5-.8,2c-.5.6-1.3.8-2.1.8ZM1304.3,249.9v-19.8h4.6v19.8h-4.6Z"/>
    <path class="st12" d="M1324,250.2c-2.1,0-3.9-.4-5.5-1.3-1.6-.9-2.9-2.1-3.8-3.6-.9-1.5-1.4-3.3-1.4-5.2s.5-3.7,1.4-5.3c.9-1.5,2.2-2.7,3.8-3.6,1.6-.9,3.5-1.3,5.5-1.3s3.6.4,5.1,1.2c1.5.8,2.6,1.9,3.3,3.4l-3.5,2.1c-.6-.9-1.3-1.6-2.2-2.1-.9-.5-1.8-.7-2.8-.7s-2.2.3-3.1.8c-.9.5-1.6,1.2-2.1,2.1-.5.9-.8,2-.8,3.3s.3,2.4.8,3.3c.5.9,1.2,1.7,2.1,2.2.9.5,1.9.8,3.1.8s1.9-.2,2.8-.7c.9-.5,1.6-1.2,2.2-2.1l3.5,2.1c-.7,1.5-1.8,2.6-3.3,3.4-1.5.8-3.2,1.2-5.1,1.2Z"/>
    <path class="st12" d="M1342.4,250.2c-1.5,0-2.8-.3-3.9-.8-1.1-.5-2-1.2-2.6-2.1s-.9-1.9-.9-3.1.3-2.1.8-3c.5-.9,1.4-1.6,2.6-2.1,1.2-.5,2.8-.8,4.8-.8h5.7v3.1h-5.4c-1.6,0-2.6.3-3.2.8-.6.5-.8,1.1-.8,1.9s.3,1.5,1,2,1.6.7,2.8.7,2.2-.3,3.1-.8c.9-.5,1.6-1.3,2-2.3l.7,2.8c-.4,1.2-1.2,2.1-2.4,2.7-1.1.6-2.6,1-4.4,1ZM1348.6,249.9v-4l-.2-.8v-7c0-1.4-.4-2.4-1.2-3.2-.8-.8-2.1-1.1-3.8-1.1s-2.2.2-3.2.5c-1.1.3-2,.8-2.7,1.4l-1.8-3.4c1.1-.8,2.4-1.4,3.8-1.8,1.5-.4,3-.6,4.6-.6,2.9,0,5.1.7,6.7,2.1,1.6,1.4,2.3,3.5,2.3,6.4v11.6h-4.4Z"/>
    <path class="st12" d="M1256,294.7c-2,0-4-.3-5.8-.9-1.8-.6-3.3-1.3-4.4-2.2l1.7-3.7c1,.8,2.3,1.5,3.8,2,1.5.5,3.1.8,4.7.8s2.5-.1,3.3-.4,1.5-.7,1.9-1.2c.4-.5.6-1.1.6-1.7s-.3-1.4-.9-1.9c-.6-.5-1.3-.9-2.2-1.1-.9-.3-1.9-.5-3-.8s-2.2-.5-3.3-.9c-1.1-.3-2.1-.8-3-1.3-.9-.5-1.6-1.2-2.2-2.1-.6-.9-.8-2-.8-3.4s.4-2.7,1.1-3.9c.8-1.2,1.9-2.1,3.4-2.8,1.5-.7,3.5-1.1,5.9-1.1s3.1.2,4.6.6c1.5.4,2.9,1,4,1.7l-1.5,3.7c-1.2-.7-2.4-1.2-3.6-1.5s-2.4-.5-3.6-.5-2.4.2-3.2.5c-.8.3-1.4.7-1.8,1.3s-.6,1.1-.6,1.8.3,1.4.8,1.9c.6.5,1.3.9,2.2,1.1.9.3,1.9.5,3,.8,1.1.2,2.2.5,3.3.9,1.1.3,2.1.8,3,1.3.9.5,1.6,1.2,2.2,2.1.6.9.8,2,.8,3.3s-.4,2.7-1.1,3.8c-.8,1.2-1.9,2.1-3.5,2.8-1.6.7-3.5,1.1-5.9,1.1Z"/>
    <path class="st12" d="M1280.1,294.6c-2.2,0-4.1-.4-5.8-1.3-1.6-.9-2.9-2.1-3.8-3.6-.9-1.5-1.4-3.3-1.4-5.2s.4-3.7,1.3-5.2c.9-1.5,2.1-2.7,3.6-3.6,1.5-.9,3.3-1.3,5.3-1.3s3.6.4,5.1,1.3c1.5.9,2.7,2,3.6,3.6.9,1.5,1.3,3.3,1.3,5.4s0,.4,0,.6c0,.3,0,.5,0,.7h-16.5v-3.1h14l-1.8,1c0-1.1-.2-2.1-.7-3-.5-.9-1.1-1.6-2-2-.8-.5-1.8-.7-3-.7s-2.1.2-3,.7c-.9.5-1.5,1.2-2,2.1-.5.9-.7,1.9-.7,3.1v.7c0,1.2.3,2.2.8,3.1.5.9,1.3,1.6,2.3,2.1,1,.5,2.1.8,3.4.8s2.1-.2,3-.6c.9-.4,1.7-.9,2.4-1.6l2.5,2.9c-.9,1-2,1.8-3.4,2.4-1.3.5-2.9.8-4.6.8Z"/>
    <path class="st12" d="M1302.9,294.6c-2.1,0-3.9-.4-5.5-1.3-1.6-.9-2.9-2.1-3.8-3.6-.9-1.5-1.4-3.3-1.4-5.2s.5-3.7,1.4-5.3c.9-1.5,2.2-2.7,3.8-3.6,1.6-.9,3.5-1.3,5.5-1.3s3.6.4,5.1,1.2c1.5.8,2.6,1.9,3.3,3.4l-3.5,2.1c-.6-.9-1.3-1.6-2.2-2.1-.9-.5-1.8-.7-2.8-.7s-2.2.3-3.1.8c-.9.5-1.6,1.2-2.1,2.1-.5.9-.8,2-.8,3.3s.3,2.4.8,3.3c.5.9,1.2,1.7,2.1,2.2.9.5,1.9.8,3.1.8s1.9-.2,2.8-.7c.9-.5,1.6-1.2,2.2-2.1l3.5,2.1c-.7,1.5-1.8,2.6-3.3,3.4-1.5.8-3.2,1.2-5.1,1.2Z"/>
    <path class="st12" d="M1315.3,294.3v-19.8h4.4v5.4l-.5-1.6c.6-1.3,1.5-2.3,2.8-3.1,1.3-.7,2.8-1.1,4.7-1.1v4.4c-.2,0-.3,0-.5,0-.2,0-.3,0-.5,0-1.8,0-3.2.5-4.2,1.5s-1.6,2.6-1.6,4.6v9.5h-4.6Z"/>
    <path class="st12" d="M1339.7,294.6c-2.2,0-4.1-.4-5.8-1.3-1.6-.9-2.9-2.1-3.8-3.6-.9-1.5-1.4-3.3-1.4-5.2s.4-3.7,1.3-5.2c.9-1.5,2.1-2.7,3.6-3.6,1.5-.9,3.3-1.3,5.3-1.3s3.6.4,5.1,1.3c1.5.9,2.7,2,3.6,3.6.9,1.5,1.3,3.3,1.3,5.4s0,.4,0,.6c0,.3,0,.5,0,.7h-16.5v-3.1h14l-1.8,1c0-1.1-.2-2.1-.7-3-.5-.9-1.1-1.6-2-2-.8-.5-1.8-.7-3-.7s-2.1.2-3,.7c-.9.5-1.5,1.2-2,2.1-.5.9-.7,1.9-.7,3.1v.7c0,1.2.3,2.2.8,3.1.5.9,1.3,1.6,2.3,2.1,1,.5,2.1.8,3.4.8s2.1-.2,3-.6c.9-.4,1.7-.9,2.4-1.6l2.5,2.9c-.9,1-2,1.8-3.4,2.4-1.3.5-2.9.8-4.6.8Z"/>
    <path class="st12" d="M1350.8,278.4v-3.7h13.2v3.7h-13.2ZM1360.9,294.6c-2.2,0-3.8-.6-5-1.7-1.2-1.1-1.8-2.8-1.8-4.9v-17.8h4.6v17.6c0,.9.2,1.7.7,2.2.5.5,1.2.8,2.1.8s1.8-.3,2.5-.8l1.3,3.3c-.6.4-1.2.8-2,1-.8.2-1.6.3-2.4.3Z"/>
    <path class="st12" d="M1375.1,294.6c-1.5,0-2.8-.3-3.9-.8-1.1-.5-2-1.2-2.6-2.1s-.9-1.9-.9-3.1.3-2.1.8-3c.5-.9,1.4-1.6,2.6-2.1,1.2-.5,2.8-.8,4.8-.8h5.7v3.1h-5.4c-1.6,0-2.6.3-3.2.8-.6.5-.8,1.1-.8,1.9s.3,1.5,1,2c.7.5,1.6.7,2.8.7s2.2-.3,3.1-.8c.9-.5,1.6-1.3,2-2.3l.7,2.8c-.4,1.2-1.2,2.1-2.4,2.7-1.1.6-2.6,1-4.4,1ZM1381.3,294.3v-4l-.2-.8v-7c0-1.4-.4-2.4-1.2-3.2-.8-.8-2.1-1.1-3.8-1.1s-2.2.2-3.2.5c-1.1.3-2,.8-2.7,1.4l-1.8-3.4c1.1-.8,2.4-1.4,3.8-1.9,1.5-.4,3-.6,4.6-.6,2.9,0,5.1.7,6.7,2.1,1.6,1.4,2.3,3.5,2.3,6.4v11.6h-4.4Z"/>
    <path class="st12" d="M1391.7,294.3v-19.8h4.4v5.4l-.5-1.6c.6-1.3,1.5-2.3,2.8-3.1,1.3-.7,2.8-1.1,4.7-1.1v4.4c-.2,0-.3,0-.5,0-.2,0-.3,0-.5,0-1.8,0-3.2.5-4.2,1.5s-1.6,2.6-1.6,4.6v9.5h-4.6Z"/>
    <path class="st12" d="M1409.3,271.3c-.9,0-1.6-.3-2.1-.8-.6-.5-.8-1.2-.8-2s.3-1.4.8-1.9c.6-.5,1.3-.8,2.1-.8s1.6.3,2.1.8c.6.5.8,1.2.8,1.9s-.3,1.5-.8,2-1.3.8-2.1.8ZM1407,294.3v-19.8h4.6v19.8h-4.6Z"/>
    <path class="st12" d="M1423.6,294.6c-1.5,0-2.8-.3-3.9-.8-1.1-.5-2-1.2-2.6-2.1s-.9-1.9-.9-3.1.3-2.1.8-3c.5-.9,1.4-1.6,2.6-2.1,1.2-.5,2.8-.8,4.8-.8h5.7v3.1h-5.4c-1.6,0-2.6.3-3.2.8-.6.5-.8,1.1-.8,1.9s.3,1.5,1,2c.7.5,1.6.7,2.8.7s2.2-.3,3.1-.8c.9-.5,1.6-1.3,2-2.3l.7,2.8c-.4,1.2-1.2,2.1-2.4,2.7-1.1.6-2.6,1-4.4,1ZM1429.8,294.3v-4l-.2-.8v-7c0-1.4-.4-2.4-1.2-3.2-.8-.8-2.1-1.1-3.8-1.1s-2.2.2-3.2.5c-1.1.3-2,.8-2.7,1.4l-1.8-3.4c1.1-.8,2.4-1.4,3.8-1.9,1.5-.4,3-.6,4.6-.6,2.9,0,5.1.7,6.7,2.1,1.6,1.4,2.3,3.5,2.3,6.4v11.6h-4.4Z"/>
    <path class="st12" d="M1437.5,278.4v-3.7h13.2v3.7h-13.2ZM1447.6,294.6c-2.2,0-3.8-.6-5-1.7-1.2-1.1-1.8-2.8-1.8-4.9v-17.8h4.6v17.6c0,.9.2,1.7.7,2.2.5.5,1.2.8,2.1.8s1.8-.3,2.5-.8l1.3,3.3c-.6.4-1.2.8-2,1-.8.2-1.6.3-2.4.3Z"/>
  </g>
</svg>