<svg xmlns="http://www.w3.org/2000/svg" id="Layer_1" viewBox="0 0 767 259.44"><defs><style>      .cls-1 {        fill: #221f20;      }      .cls-2 {        fill: #ffb81c;      }      .cls-3 {        fill: #e03c31;      }      .cls-4 {        fill: #001489;      }      .cls-5 {        fill: #007749;      }    </style></defs><g><path class="cls-1" d="M227.85,182.06c-1.29-.55-2.63-1.02-4-1.47,5.68-3,10.23-7.04,13.64-12.15,3.77-5.66,5.66-12.33,5.66-20.01,0-11.45-4.64-20.67-13.93-27.66-9.29-6.98-23.15-10.47-41.59-10.47h-71.65v146.66h75.85c19.27,0,33.87-3.53,43.79-10.58,9.92-7.05,14.88-16.87,14.88-29.44,0-8.52-1.99-15.71-5.97-21.58-3.98-5.87-9.53-10.3-16.66-13.31ZM183.43,135.86c8.24,0,14.56,1.43,18.96,4.29,4.4,2.87,6.6,7.16,6.6,12.89s-2.2,10.23-6.6,13.09c-4.4,2.87-10.72,4.3-18.96,4.3h-33.73v-34.57h33.73ZM209.3,227.11c-4.54,2.87-11.21,4.29-20.01,4.29h-39.6v-36.25h39.6c8.8,0,15.47,1.5,20.01,4.5,4.54,3,6.81,7.58,6.81,13.72s-2.27,10.86-6.81,13.72Z"></path><path class="cls-1" d="M347.27,197.46c6.84-6.42,12.05-12.22,15.61-17.39,3.56-5.17,5.94-10.09,7.12-14.77,1.19-4.68,1.78-9.39,1.78-14.14,0-8.94-2.27-16.62-6.81-23.05-4.54-6.42-10.89-11.42-19.07-14.98-8.17-3.56-17.7-5.34-28.6-5.34-13.13,0-24.72,2.45-34.78,7.33-10.06,4.89-17.88,11.52-23.47,19.9l24.72,15.92c3.63-5.03,8.07-8.73,13.3-11.1,5.24-2.37,10.93-3.56,17.08-3.56,7.68,0,13.51,1.57,17.49,4.71,3.98,3.14,5.97,7.65,5.97,13.51,0,2.24-.39,4.68-1.15,7.33-.77,2.66-2.2,5.59-4.29,8.8-2.1,3.21-5.38,6.85-9.85,10.89l-56.57,53.43v22h110.84v-27.66h-63.14l33.81-31.85Z"></path><path class="cls-1" d="M508.18,142.57c-5.45-11.31-12.89-19.94-22.31-25.88-9.43-5.93-20.22-8.91-32.37-8.91s-22.77,2.97-32.27,8.91c-9.5,5.94-16.97,14.56-22.42,25.88-5.45,11.31-8.17,25-8.17,41.06s2.72,29.75,8.17,41.07c5.45,11.31,12.92,19.94,22.42,25.88,9.5,5.94,20.25,8.9,32.27,8.9s22.94-2.97,32.37-8.9c9.43-5.94,16.87-14.56,22.31-25.88,5.45-11.31,8.17-25,8.17-41.07s-2.72-29.75-8.17-41.06ZM478.53,210.66c-2.45,6.99-5.8,12.08-10.06,15.3-4.26,3.21-9.26,4.82-14.98,4.82s-10.51-1.6-14.77-4.82c-4.26-3.21-7.62-8.31-10.06-15.3-2.45-6.98-3.67-15.99-3.67-27.03s1.22-20.04,3.67-27.03c2.44-6.98,5.79-12.08,10.06-15.29,4.26-3.21,9.18-4.82,14.77-4.82s10.72,1.61,14.98,4.82c4.26,3.21,7.61,8.31,10.06,15.29,2.44,6.99,3.67,16,3.67,27.03s-1.23,20.05-3.67,27.03Z"></path></g><g><path class="cls-1" d="M584.31,141.36c-.99.32-2.3.48-3.91.48-2.12,0-4.21-.34-6.28-1.03-2.07-.69-3.86-1.57-5.37-2.65l-2.78,6.16c1.58,1.21,3.67,2.19,6.26,2.95,2.59.76,5.3,1.14,8.12,1.14,3.36,0,6.15-.5,8.35-1.52,2.2-1.01,3.86-2.34,4.97-3.98,1.11-1.65,1.67-3.47,1.67-5.45,0-1.85-.38-3.38-1.14-4.59-.76-1.21-1.74-2.19-2.95-2.93s-2.55-1.33-4.01-1.77c-1.46-.44-2.93-.82-4.39-1.16-1.46-.33-2.8-.67-4.01-1.01-1.21-.33-2.19-.78-2.93-1.34-.74-.56-1.11-1.29-1.11-2.2,0-.77.22-1.45.66-2.04.44-.59,1.16-1.07,2.17-1.44,1.01-.37,2.3-.55,3.89-.55s3.2.23,4.85.68c1.65.45,3.3,1.15,4.94,2.09l2.52-6.21c-1.65-1.04-3.55-1.82-5.7-2.35-2.15-.52-4.34-.78-6.56-.78-3.33,0-6.1.5-8.3,1.49-2.2.99-3.85,2.32-4.95,3.99s-1.64,3.51-1.64,5.53c0,1.88.38,3.43,1.14,4.64.76,1.21,1.74,2.19,2.95,2.93s2.55,1.35,4.01,1.82c1.46.47,2.93.87,4.39,1.19,1.46.32,2.8.66,4.01,1.01,1.21.35,2.19.81,2.93,1.36.74.55,1.11,1.3,1.11,2.25,0,.74-.24,1.4-.71,1.97-.47.57-1.2,1.02-2.2,1.34Z"></path><path class="cls-1" d="M604.2,143.21c1.73,1.65,3.78,2.93,6.16,3.84,2.37.91,4.95,1.36,7.75,1.36s5.31-.45,7.65-1.36c2.34-.91,4.37-2.18,6.11-3.81,1.73-1.63,3.09-3.56,4.06-5.8.97-2.24,1.46-4.67,1.46-7.29s-.49-5.09-1.46-7.29c-.98-2.2-2.33-4.13-4.06-5.78-1.73-1.65-3.77-2.93-6.11-3.84s-4.9-1.36-7.69-1.36-5.32.45-7.67,1.36-4.41,2.19-6.16,3.84c-1.75,1.65-3.1,3.58-4.06,5.8-.96,2.22-1.44,4.64-1.44,7.27s.48,5.05,1.44,7.27c.96,2.22,2.3,4.16,4.04,5.8ZM607.83,125.54c.55-1.38,1.34-2.57,2.35-3.58s2.18-1.78,3.51-2.32c1.33-.54,2.78-.81,4.37-.81s3.04.27,4.39.81c1.35.54,2.51,1.31,3.51,2.32.99,1.01,1.77,2.2,2.32,3.58.56,1.38.83,2.91.83,4.59s-.28,3.21-.83,4.59c-.55,1.38-1.34,2.57-2.35,3.58s-2.18,1.78-3.51,2.32c-1.33.54-2.78.81-4.37.81s-3.05-.27-4.39-.81c-1.35-.54-2.52-1.31-3.51-2.32s-1.77-2.21-2.32-3.61c-.56-1.4-.83-2.92-.83-4.57s.28-3.21.83-4.59Z"></path><path class="cls-1" d="M659.23,148.41c5.01,0,8.93-1.4,11.76-4.19,2.83-2.79,4.24-6.78,4.24-11.96v-19.78h-8.08v19.48c0,3.36-.69,5.79-2.07,7.27-1.38,1.48-3.31,2.22-5.8,2.22s-4.42-.74-5.8-2.22c-1.38-1.48-2.07-3.9-2.07-7.27v-19.48h-8.18v19.78c0,5.18,1.41,9.17,4.24,11.96,2.83,2.79,6.74,4.19,11.76,4.19Z"></path><polygon class="cls-1" points="698.19 147.8 698.19 119.13 709.49 119.13 709.49 112.47 678.71 112.47 678.71 119.13 690.01 119.13 690.01 147.8 698.19 147.8"></polygon><polygon class="cls-1" points="722.06 133.32 738.1 133.32 738.1 147.8 746.28 147.8 746.28 112.47 738.1 112.47 738.1 126.4 722.06 126.4 722.06 112.47 713.88 112.47 713.88 147.8 722.06 147.8 722.06 133.32"></polygon><path class="cls-1" d="M588.38,166.75h-8.08l-15.75,35.32h8.38l3.15-7.57h16.38l3.14,7.57h8.58l-15.79-35.32ZM578.66,188.3l5.62-13.52,5.6,13.52h-11.22Z"></path><polygon class="cls-1" points="634.55 173.31 634.55 166.75 607.86 166.75 607.86 202.08 616.03 202.08 616.03 189.21 632.38 189.21 632.38 182.65 616.03 182.65 616.03 173.31 634.55 173.31"></polygon><path class="cls-1" d="M648.28,192.24h7.12c.13,0,.25-.01.37-.02l6.79,9.85h8.83l-7.9-11.33s.05-.02.07-.03c2.29-1.01,4.06-2.46,5.3-4.37,1.24-1.9,1.87-4.16,1.87-6.79s-.62-4.94-1.87-6.86c-1.25-1.92-3.01-3.39-5.3-4.42-2.29-1.03-5.01-1.54-8.17-1.54h-15.29v35.32h8.18v-9.84ZM660.59,175.03c1.24,1.08,1.87,2.59,1.87,4.54s-.62,3.42-1.87,4.52c-1.24,1.1-3.13,1.64-5.65,1.64h-6.66v-12.31h6.66c2.52,0,4.41.54,5.65,1.62Z"></path><rect class="cls-1" x="677.19" y="166.75" width="8.17" height="35.32"></rect><path class="cls-1" d="M702.98,176.24c1.01-1.01,2.2-1.78,3.58-2.32,1.38-.54,2.89-.81,4.54-.81,1.75,0,3.36.35,4.85,1.04,1.48.69,2.83,1.72,4.04,3.1l5.25-4.85c-1.68-2.05-3.76-3.61-6.23-4.67-2.47-1.06-5.24-1.59-8.3-1.59-2.76,0-5.3.45-7.62,1.34-2.32.89-4.35,2.16-6.08,3.81-1.73,1.65-3.08,3.58-4.04,5.8-.96,2.22-1.44,4.66-1.44,7.32s.48,5.1,1.44,7.32c.96,2.22,2.3,4.16,4.01,5.8,1.72,1.65,3.74,2.92,6.08,3.81,2.34.89,4.87,1.34,7.6,1.34,3.09,0,5.88-.54,8.35-1.62,2.47-1.08,4.55-2.64,6.23-4.69l-5.25-4.85c-1.21,1.41-2.56,2.47-4.04,3.15-1.48.69-3.1,1.03-4.85,1.03-1.65,0-3.16-.27-4.54-.81-1.38-.54-2.57-1.31-3.58-2.32-1.01-1.01-1.79-2.2-2.35-3.58-.56-1.38-.83-2.91-.83-4.59s.28-3.21.83-4.59c.55-1.38,1.34-2.57,2.35-3.58Z"></path><path class="cls-1" d="M756.42,202.08h8.58l-15.79-35.32h-8.08l-15.75,35.32h8.38l3.15-7.57h16.38l3.14,7.57ZM739.49,188.3l5.62-13.52,5.6,13.52h-11.22Z"></path><path class="cls-1" d="M585.86,242.02c1.65-1.55,2.9-2.94,3.76-4.19s1.43-2.43,1.71-3.56c.29-1.13.43-2.26.43-3.41,0-2.15-.55-4-1.64-5.55-1.09-1.55-2.62-2.75-4.59-3.61-1.97-.86-4.26-1.29-6.89-1.29-3.16,0-5.96.59-8.38,1.77-2.42,1.18-4.31,2.78-5.65,4.8l5.95,3.83c.88-1.21,1.94-2.1,3.21-2.67,1.26-.57,2.63-.86,4.11-.86,1.85,0,3.25.38,4.21,1.14.96.76,1.44,1.84,1.44,3.25,0,.54-.09,1.13-.28,1.77-.19.64-.53,1.35-1.03,2.12-.5.77-1.3,1.65-2.37,2.62l-13.63,12.87v5.3h26.69v-6.66h-15.21l8.14-7.67Z"></path><path class="cls-1" d="M619.24,222.57c-2.27-1.43-4.87-2.14-7.8-2.14s-5.48.71-7.77,2.14c-2.29,1.43-4.09,3.51-5.4,6.23-1.31,2.73-1.97,6.02-1.97,9.89s.66,7.17,1.97,9.89c1.31,2.73,3.11,4.8,5.4,6.23s4.88,2.14,7.77,2.14,5.53-.71,7.8-2.14c2.27-1.43,4.06-3.51,5.37-6.23,1.31-2.73,1.97-6.02,1.97-9.89s-.66-7.17-1.97-9.89c-1.31-2.73-3.1-4.8-5.37-6.23ZM617.47,245.2c-.59,1.68-1.4,2.91-2.42,3.68-1.03.77-2.23,1.16-3.61,1.16s-2.53-.39-3.56-1.16c-1.03-.77-1.83-2-2.42-3.68s-.88-3.85-.88-6.51.29-4.83.88-6.51c.59-1.68,1.4-2.91,2.42-3.68,1.02-.77,2.21-1.16,3.56-1.16s2.58.39,3.61,1.16,1.83,2,2.42,3.68c.59,1.68.88,3.85.88,6.51s-.29,4.83-.88,6.51Z"></path><path class="cls-1" d="M649.69,242.02c1.65-1.55,2.9-2.94,3.76-4.19s1.43-2.43,1.72-3.56c.28-1.13.43-2.26.43-3.41,0-2.15-.55-4-1.64-5.55-1.09-1.55-2.62-2.75-4.59-3.61-1.97-.86-4.27-1.29-6.89-1.29-3.16,0-5.95.59-8.38,1.77-2.42,1.18-4.31,2.78-5.65,4.8l5.96,3.83c.87-1.21,1.94-2.1,3.2-2.67,1.26-.57,2.63-.86,4.11-.86,1.85,0,3.25.38,4.21,1.14s1.44,1.84,1.44,3.25c0,.54-.09,1.13-.28,1.77-.19.64-.53,1.35-1.03,2.12s-1.3,1.65-2.37,2.62l-13.63,12.87v5.3h26.7v-6.66h-15.21l8.14-7.67Z"></path><path class="cls-1" d="M680.7,235.74c-2.14-.96-4.95-1.44-8.45-1.44h-2.9l.6-6.71h14.72v-6.56h-21.55l-1.82,19.88h9.03c2.16,0,3.83.19,5.02.56,1.19.37,2.03.91,2.5,1.62.47.71.71,1.51.71,2.42,0,1.45-.59,2.57-1.77,3.38-1.18.81-2.79,1.21-4.84,1.21-1.82,0-3.61-.28-5.37-.86-1.77-.57-3.32-1.35-4.67-2.32l-3.23,6.26c1.72,1.21,3.78,2.14,6.18,2.8,2.4.66,4.84.98,7.29.98,3.36,0,6.13-.55,8.3-1.64,2.17-1.09,3.78-2.52,4.82-4.29,1.04-1.77,1.56-3.69,1.56-5.78s-.49-3.95-1.46-5.6c-.98-1.65-2.53-2.95-4.67-3.91Z"></path></g><path class="cls-3" d="M167.26,92.67h58.67s6.92-12.44,4.29-53.65c0,0-39.88,18.29-62.96,53.65Z"></path><path class="cls-4" d="M97.05,145.82v-53.15h36.47c-23.07-35.35-62.96-53.65-62.96-53.65-1.39,21.65-.13,35.36,1.37,43.49,0,0,6.45,35.49,25.12,63.3Z"></path><path class="cls-5" d="M150.51,17.76c-16.25,19.65-22.93,45.98-22.93,45.98,13.23,17.06,20.77,28.92,20.77,28.92h4.33s7.54-11.87,20.77-28.92c0,0-6.67-26.33-22.93-45.98Z"></path><path class="cls-1" d="M173.44,35.4l9.15,19.82,33.29-22.13L211.59-.04s-22.25,15.49-38.15,35.43Z"></path><path class="cls-2" d="M127.58,35.4l-9.15,19.82-33.29-22.13L89.43-.04s22.25,15.49,38.15,35.43Z"></path><g><path class="cls-1" d="M60.96,90.12l-.16-.89c-2.45-13.63-3.64-29.06-2.74-46.28l.09-1.63.09-1.41c-8.7-3.65-18.31-6.91-28.91-9.54v.02c7.45,31.5,22.68,51.05,31.75,60.41l-.12-.67Z"></path><path class="cls-1" d="M29.33,30.37l.11.48-.11-.46s0,0,0-.01Z"></path></g><path class="cls-3" d="M97.05,166.63s-20.99-20.2-32.32-60.83c0,0-25.6-11.46-62.73-7.88l.55,1.02c38.06,70.43,94.5,85.39,94.5,85.39v-17.7Z"></path></svg>