<?xml version="1.0" encoding="UTF-8"?>
<svg id="Layer_1" data-name="Layer 1" xmlns="http://www.w3.org/2000/svg" xmlns:xlink="http://www.w3.org/1999/xlink" viewBox="0 0 258.45 136.3">
  <defs>
    <style>
      .cls-1 {
        fill: none;
      }

      .cls-2 {
        fill: #1666a7;
      }

      .cls-3 {
        fill: #177347;
      }

      .cls-4 {
        fill: #231f20;
      }

      .cls-5 {
        fill: #1668aa;
      }

      .cls-6 {
        fill: #17744a;
      }

      .cls-7 {
        fill: #fdb716;
      }

      .cls-8 {
        fill: #e53143;
      }

      .cls-9 {
        fill: #1767a8;
      }

      .cls-10 {
        fill: #e32e40;
      }

      .cls-11 {
        fill: #e42b2b;
      }

      .cls-12 {
        fill: #157349;
      }

      .cls-13 {
        clip-path: url(#clippath);
      }
    </style>
    <clipPath id="clippath">
      <rect class="cls-1" x="-292.87" y="-56.21" width="841.89" height="595.28"/>
    </clipPath>
  </defs>
  <g class="cls-13">
    <path class="cls-4" d="M131.46,120.13c-31.95,0-57.85-25.9-57.85-57.85S99.51,4.43,131.46,4.43s57.85,25.9,57.85,57.85-25.9,57.85-57.85,57.85"/>
    <path class="cls-7" d="M74.84,81.37c17.47,33.81,55.2,48.53,55.2,48.53,0,0,9.41-40.11-8.06-73.92C104.51,22.17,66.78,7.45,66.78,7.45c0,0-9.41,40.11,8.06,73.92"/>
    <path class="cls-8" d="M187.89,75.09c.93-4.12,1.42-8.41,1.42-12.81,0-15.74-6.29-30.02-16.49-40.45,12.89-8.82,23.7-12.92,23.7-12.92,0,0,2.15,9.57,2.15,23.27,0,12.01-1.65,27.19-7.84,41.88-.98.32-1.96.66-2.95,1.02M130.29,129.78s-.04-.18-.11-.54c.28-1.32.9-4.54,1.44-9.11,1.5,0,2.98-.07,4.45-.18-2.98,4.7-4.82,8.28-5.55,9.74-.15.06-.22.09-.22.09"/>
    <path class="cls-10" d="M131.62,120.13c1.06-8.94,1.8-23.06-1-38.23,1.75-8.26,4.6-16.82,9.09-25.01,8.6-15.69,21.67-27.23,33.11-35.06,10.2,10.43,16.49,24.7,16.49,40.45,0,4.4-.49,8.69-1.42,12.81-1.82.67-3.65,1.41-5.45,2.22-23.2,10.43-38.62,30.38-46.37,42.64-1.47.11-2.95.18-4.45.18"/>
    <path class="cls-11" d="M130.18,129.24c-.72-3.57-4.45-24.26.44-47.34,2.79,15.18,2.05,29.29,1,38.23-.54,4.57-1.16,7.79-1.44,9.11"/>
    <path class="cls-6" d="M96.76,134.44c-12.34,0-26.71-1.88-40.38-8.13C22,110.58,5.01,73.19,5.01,73.19c0,0,14.06-4.32,32.76-4.32,10.39,0,22.21,1.33,33.85,5.48.96,2.36,2.03,4.7,3.22,7.02,2.84,5.49,6.21,10.48,9.87,14.98,2.79,3.82,6.04,7.29,9.66,10.32,15.08,14.09,31.28,21.39,34.92,22.92.17.34.25.52.25.52,0,0-14.06,4.32-32.76,4.32"/>
    <path class="cls-12" d="M94.36,106.67c-3.62-3.03-6.87-6.5-9.66-10.32,3.07,3.78,6.33,7.21,9.66,10.32"/>
    <path class="cls-3" d="M129.28,129.59c-3.64-1.53-19.84-8.83-34.92-22.92-3.32-3.11-6.59-6.54-9.66-10.32-3.66-4.5-7.03-9.49-9.87-14.99-1.2-2.31-2.26-4.66-3.22-7.02,2.19.78,4.37,1.66,6.54,2.65,31.99,14.62,48.92,48.01,51.13,52.59"/>
    <path class="cls-5" d="M163.5,134.74c-19.03,0-33.34-4.32-33.34-4.32,0,0,.12-.25.35-.73,1.85-.73,14.91-6.08,28.94-16.78,10.16-5.63,18.44-14.22,23.68-24.61,1.4-2.08,2.73-4.25,3.96-6.5,1.4-2.55,2.64-5.13,3.73-7.73,11.27-3.68,22.64-4.89,32.69-4.89,19.03,0,33.34,4.32,33.34,4.32,0,0-17.29,37.39-52.27,53.11-13.91,6.25-28.53,8.13-41.09,8.13"/>
    <path class="cls-2" d="M159.46,112.91c8.26-6.3,16.85-14.46,23.68-24.61-5.24,10.39-13.53,18.98-23.68,24.61"/>
    <path class="cls-9" d="M183.14,88.3c2.09-4.14,3.7-8.57,4.75-13.21.98-.36,1.96-.7,2.94-1.02-1.1,2.6-2.33,5.19-3.73,7.73-1.23,2.25-2.56,4.42-3.96,6.5M130.51,129.69c.73-1.47,2.57-5.04,5.55-9.74,8.43-.66,16.36-3.14,23.39-7.03-14.03,10.7-27.1,16.05-28.94,16.78"/>
    <path class="cls-9" d="M136.06,119.95c7.75-12.26,23.17-32.22,46.37-42.64,1.81-.81,3.63-1.55,5.45-2.22-1.05,4.64-2.66,9.07-4.75,13.21-6.83,10.16-15.42,18.31-23.68,24.61-7.03,3.89-14.96,6.37-23.39,7.03"/>
  </g>
</svg>