<?xml version="1.0" encoding="UTF-8"?>
<svg id="Layer_1" xmlns="http://www.w3.org/2000/svg" xmlns:xlink="http://www.w3.org/1999/xlink" version="1.1" viewBox="0 0 617.6 312.1">
  <!-- Generator: Adobe Illustrator 29.4.0, SVG Export Plug-In . SVG Version: 2.1.0 Build 152)  -->
  <defs>
    <style>
      .st0 {
        fill: none;
      }

      .st1 {
        fill: #177347;
      }

      .st2 {
        fill: #231f20;
      }

      .st3 {
        font-family: Montserrat-Bold, Montserrat;
        font-size: 171.4px;
        font-weight: 700;
      }

      .st3, .st4 {
        fill: #fff;
      }

      .st5 {
        fill: #17744a;
      }

      .st6 {
        clip-path: url(#clippath-1);
      }

      .st7 {
        fill: #fdb716;
      }

      .st8 {
        fill: #e53143;
      }

      .st9 {
        letter-spacing: 0em;
      }

      .st10 {
        fill: #e32e40;
      }

      .st11 {
        letter-spacing: 0em;
      }

      .st12 {
        letter-spacing: 0em;
      }

      .st13 {
        fill: #e42b2b;
      }

      .st14 {
        fill: #1768aa;
      }

      .st15 {
        fill: #157349;
      }

      .st16 {
        clip-path: url(#clippath);
      }
    </style>
    <clipPath id="clippath">
      <rect class="st0" x="-79.2" y="-139.5" width="841.9" height="595.3"/>
    </clipPath>
    <clipPath id="clippath-1">
      <rect class="st0" x="-79.2" y="-139.5" width="841.9" height="595.3"/>
    </clipPath>
  </defs>
  <g class="st16">
    <path class="st2" d="M147.2,157.5c0,37.9-30.7,68.6-68.6,68.6S9.9,195.4,9.9,157.5s30.7-68.6,68.6-68.6,68.6,30.7,68.6,68.6"/>
  </g>
  <text class="st3" transform="translate(177.6 212.1)"><tspan class="st11" x="0" y="0">SU</tspan><tspan class="st12" x="227.6" y="0">2</tspan><tspan class="st9" x="319.9" y="0">0</tspan></text>
  <g class="st6">
    <path class="st7" d="M101.2,224.7c40.1-20.7,57.6-65.5,57.6-65.5,0,0-47.6-11.2-87.7,9.6-40.1,20.7-57.6,65.5-57.6,65.5,0,0,47.6,11.2,87.7-9.6"/>
    <path class="st8" d="M30.5,108.5c-10.5-15.3-15.3-28.1-15.3-28.1,0,0,11.4-2.6,27.6-2.6s32.3,2,49.7,9.3c.4,1.2.8,2.3,1.2,3.5-4.9-1.1-10-1.7-15.2-1.7-18.7,0-35.6,7.5-48,19.6M158,159.1c-1.6-.3-5.4-1.1-10.8-1.7,0-1.8,0-3.5-.2-5.3,5.6,3.5,9.8,5.7,11.6,6.6,0,.2.1.3.1.3,0,0-.2,0-.6.1"/>
    <path class="st10" d="M101.8,158.5c-9.8-2.1-20-5.5-29.7-10.8-18.6-10.2-32.3-25.7-41.6-39.3,12.4-12.1,29.3-19.6,48-19.6s10.3.6,15.2,1.7c.8,2.2,1.7,4.3,2.6,6.5,12.4,27.5,36,45.8,50.6,55,.1,1.7.2,3.5.2,5.3-5.1-.6-11.7-1.1-19.1-1.1s-16.9.6-26.2,2.3"/>
    <path class="st13" d="M131,161.5c-8.7,0-18.7-.7-29.2-2.9,9.3-1.7,18.3-2.3,26.2-2.3s14,.5,19.1,1.1c5.4.6,9.2,1.4,10.8,1.7-2.6.5-13,2.4-27,2.4"/>
    <path class="st4" d="M154.8,70.8c18.7,41.5,4.5,88.3,4.5,88.3,0,0-44.4-20.5-63-62-18.7-41.5-4.5-88.3-4.5-88.3,0,0,44.4,20.5,63,62"/>
    <path class="st14" d="M159.4,159.1s-5-2.3-12.4-7c-14.6-9.2-38.2-27.5-50.6-55-1-2.1-1.8-4.3-2.6-6.5-5.3-14.5-7-29.3-7-42.3,0-22.6,5.1-39.6,5.1-39.6,0,0,44.4,20.5,63,62,7.4,16.5,9.6,33.8,9.7,48.7,0,22.6-5.1,39.6-5.1,39.6"/>
    <path class="st5" d="M91.5,307.6s-5.1-16.7-5.1-38.9c0-12.3,1.6-26.3,6.5-40.1,2.8-1.1,5.6-2.4,8.3-3.8,6.5-3.4,12.4-7.4,17.8-11.7,4.5-3.3,8.6-7.2,12.2-11.5,16.7-17.9,25.4-37.1,27.2-41.4.4-.2.6-.3.6-.3,0,0,5.1,16.7,5.1,38.9,0,14.6-2.2,31.7-9.7,47.9-18.7,40.8-63,61-63,61"/>
    <path class="st15" d="M118.9,213c4.5-3.6,8.6-7.5,12.2-11.5-3.6,4.3-7.7,8.2-12.2,11.5"/>
    <path class="st1" d="M92.8,228.5c.9-2.6,2-5.2,3.1-7.8,17.4-38,57-58.1,62.4-60.7-1.8,4.3-10.5,23.5-27.2,41.4-3.7,3.9-7.8,7.8-12.2,11.5-5.3,4.3-11.3,8.3-17.8,11.7-2.7,1.4-5.5,2.7-8.3,3.8"/>
  </g>
</svg>